<?xml version="1.0" standalone="no"?>
 <!DOCTYPE svg PUBLIC "-//W3C//DTD SVG 1.1//EN" 
 "http://www.w3.org/Graphics/SVG/1.1/DTD/svg11.dtd"> 
<svg
  xmlns:svg="http://www.w3.org/2000/svg"
  xmlns="http://www.w3.org/2000/svg"
  xmlns:xlink="http://www.w3.org/1999/xlink"
  version="1.1"
  width="29.700220cm" height="21.000720cm" viewBox="0 0 116930 82680">
<title>SVG Picture created as clock-F_Cu.svg date 2020/07/31 23:28:52 </title>
  <desc>Picture generated by PCBNEW </desc>
<g style="fill:#000000; fill-opacity:1;stroke:#000000; stroke-opacity:1;
stroke-linecap:round; stroke-linejoin:round;"
 transform="translate(0 0) scale(1 1)">
</g>
<g style="fill:#000000; fill-opacity:0.0; 
stroke:#000000; stroke-width:-0.000393701; stroke-opacity:1; 
stroke-linecap:round; stroke-linejoin:round;">
</g>
<g style="fill:#000000; fill-opacity:1.0; 
stroke:#000000; stroke-width:7.87402; stroke-opacity:1; 
stroke-linecap:round; stroke-linejoin:round;">
<rect x="29429.1" y="18313.5" width="15944.9" height="28381.4" rx="0" />
</g>
<g style="fill:#FFFFFF; fill-opacity:1.0; 
stroke:#FFFFFF; stroke-width:7.87402; stroke-opacity:1; 
stroke-linecap:round; stroke-linejoin:round;">
<g >
</g>
<g >
</g>
<g style="fill:#FFFFFF; fill-opacity:1.0; 
stroke:#FFFFFF; stroke-width:7.87402; stroke-opacity:1; 
stroke-linecap:round; stroke-linejoin:round;">
</g>
<g style="fill:#FFFFFF; fill-opacity:1.0; 
stroke:#FFFFFF; stroke-width:0; stroke-opacity:1; 
stroke-linecap:round; stroke-linejoin:round;">
<path style="fill:#FFFFFF; fill-opacity:1.0; 
stroke:#FFFFFF; stroke-width:0; stroke-opacity:1; 
stroke-linecap:round; stroke-linejoin:round;fill-rule:evenodd;"
d="M 36441.1,32974.9
36450.7,32976.3
36460.1,32978.6
36469.2,32981.9
36477.9,32986
36486.2,32991
36493.9,32996.8
36501.1,33003.2
36507.6,33010.4
36513.3,33018.2
36518.3,33026.4
36522.4,33035.2
36525.7,33044.3
36528,33053.6
36529.4,33063.2
36529.9,33072.8
36529.9,33427.2
36529.4,33436.8
36528,33446.4
36525.7,33455.7
36522.4,33464.8
36518.3,33473.6
36513.3,33481.8
36507.6,33489.6
36501.1,33496.8
36493.9,33503.2
36486.2,33509
36477.9,33514
36469.2,33518.1
36460.1,33521.4
36450.7,33523.7
36441.1,33525.1
36431.5,33525.6
36175.6,33525.6
36165.9,33525.1
36156.4,33523.7
36147,33521.4
36137.9,33518.1
36129.2,33514
36120.9,33509
36113.2,33503.2
36106,33496.8
36099.5,33489.6
36093.8,33481.8
36088.8,33473.6
36084.7,33464.8
36081.4,33455.7
36079.1,33446.4
36077.6,33436.8
36077.2,33427.2
36077.2,33072.8
36077.6,33063.2
36079.1,33053.6
36081.4,33044.3
36084.7,33035.2
36088.8,33026.4
36093.8,33018.2
36099.5,33010.4
36106,33003.2
36113.2,32996.8
36120.9,32991
36129.2,32986
36137.9,32981.9
36147,32978.6
36156.4,32976.3
36165.9,32974.9
36175.6,32974.4
36431.5,32974.4
Z" /> 
<path style="fill:#FFFFFF; fill-opacity:1.0; 
stroke:#FFFFFF; stroke-width:0; stroke-opacity:1; 
stroke-linecap:round; stroke-linejoin:round;fill-rule:evenodd;"
d="M 35634.1,32974.9
35643.6,32976.3
35653,32978.6
35662.1,32981.9
35670.8,32986
35679.1,32991
35686.8,32996.8
35694,33003.2
35700.5,33010.4
35706.2,33018.2
35711.2,33026.4
35715.3,33035.2
35718.6,33044.3
35720.9,33053.6
35722.4,33063.2
35722.8,33072.8
35722.8,33427.2
35722.4,33436.8
35720.9,33446.4
35718.6,33455.7
35715.3,33464.8
35711.2,33473.6
35706.2,33481.8
35700.5,33489.6
35694,33496.8
35686.8,33503.2
35679.1,33509
35670.8,33514
35662.1,33518.1
35653,33521.4
35643.6,33523.7
35634.1,33525.1
35624.4,33525.6
35368.5,33525.6
35358.9,33525.1
35349.3,33523.7
35339.9,33521.4
35330.8,33518.1
35322.1,33514
35313.8,33509
35306.1,33503.2
35298.9,33496.8
35292.4,33489.6
35286.7,33481.8
35281.7,33473.6
35277.6,33464.8
35274.3,33455.7
35272,33446.4
35270.6,33436.8
35270.1,33427.2
35270.1,33072.8
35270.6,33063.2
35272,33053.6
35274.3,33044.3
35277.6,33035.2
35281.7,33026.4
35286.7,33018.2
35292.4,33010.4
35298.9,33003.2
35306.1,32996.8
35313.8,32991
35322.1,32986
35330.8,32981.9
35339.9,32978.6
35349.3,32976.3
35358.9,32974.9
35368.5,32974.4
35624.4,32974.4
Z" /> 
</g>
<g >
</g>
<g >
</g>
<g style="fill:#FFFFFF; fill-opacity:1.0; 
stroke:#FFFFFF; stroke-width:0; stroke-opacity:1; 
stroke-linecap:round; stroke-linejoin:round;">
<path style="fill:#FFFFFF; fill-opacity:1.0; 
stroke:#FFFFFF; stroke-width:0; stroke-opacity:1; 
stroke-linecap:round; stroke-linejoin:round;fill-rule:evenodd;"
d="M 36499.4,41200
36499.4,40600
37680.6,40600
37680.6,41200
Z" /> 
</g>
<g >
</g>
<g >
</g>
<g style="fill:#FFFFFF; fill-opacity:1.0; 
stroke:#FFFFFF; stroke-width:0; stroke-opacity:1; 
stroke-linecap:round; stroke-linejoin:round;">
<path style="fill:#FFFFFF; fill-opacity:1.0; 
stroke:#FFFFFF; stroke-width:0; stroke-opacity:1; 
stroke-linecap:round; stroke-linejoin:round;fill-rule:evenodd;"
d="M 35644.6,35438.4
35652.9,35439.6
35661.1,35441.7
35669.1,35444.5
35676.7,35448.2
35684,35452.5
35690.8,35457.5
35697,35463.2
35702.7,35469.5
35707.7,35476.3
35712.1,35483.5
35715.7,35491.2
35718.5,35499.1
35720.6,35507.3
35721.8,35515.7
35722.2,35524.1
35722.2,35725.9
35721.8,35734.3
35720.6,35742.7
35718.5,35750.9
35715.7,35758.8
35712.1,35766.5
35707.7,35773.7
35702.7,35780.5
35697,35786.8
35690.8,35792.5
35684,35797.5
35676.7,35801.8
35669.1,35805.5
35661.1,35808.3
35652.9,35810.4
35644.6,35811.6
35636.1,35812
35463.9,35812
35455.4,35811.6
35447.1,35810.4
35438.9,35808.3
35430.9,35805.5
35423.3,35801.8
35416,35797.5
35409.2,35792.5
35403,35786.8
35397.3,35780.5
35392.3,35773.7
35387.9,35766.5
35384.3,35758.8
35381.5,35750.9
35379.4,35742.7
35378.2,35734.3
35377.8,35725.9
35377.8,35524.1
35378.2,35515.7
35379.4,35507.3
35381.5,35499.1
35384.3,35491.2
35387.9,35483.5
35392.3,35476.3
35397.3,35469.5
35403,35463.2
35409.2,35457.5
35416,35452.5
35423.3,35448.2
35430.9,35444.5
35438.9,35441.7
35447.1,35439.6
35455.4,35438.4
35463.9,35438
35636.1,35438
Z" /> 
<path style="fill:#FFFFFF; fill-opacity:1.0; 
stroke:#FFFFFF; stroke-width:0; stroke-opacity:1; 
stroke-linecap:round; stroke-linejoin:round;fill-rule:evenodd;"
d="M 35024.5,35438.4
35032.8,35439.6
35041,35441.7
35049,35444.5
35056.6,35448.2
35063.9,35452.5
35070.7,35457.5
35076.9,35463.2
35082.6,35469.5
35087.7,35476.3
35092,35483.5
35095.6,35491.2
35098.5,35499.1
35100.5,35507.3
35101.8,35515.7
35102.2,35524.1
35102.2,35725.9
35101.8,35734.3
35100.5,35742.7
35098.5,35750.9
35095.6,35758.8
35092,35766.5
35087.7,35773.7
35082.6,35780.5
35076.9,35786.8
35070.7,35792.5
35063.9,35797.5
35056.6,35801.8
35049,35805.5
35041,35808.3
35032.8,35810.4
35024.5,35811.6
35016,35812
34843.8,35812
34835.4,35811.6
34827,35810.4
34818.8,35808.3
34810.8,35805.5
34803.2,35801.8
34796,35797.5
34789.2,35792.5
34782.9,35786.8
34777.2,35780.5
34772.2,35773.7
34767.8,35766.5
34764.2,35758.8
34761.4,35750.9
34759.3,35742.7
34758.1,35734.3
34757.7,35725.9
34757.7,35524.1
34758.1,35515.7
34759.3,35507.3
34761.4,35499.1
34764.2,35491.2
34767.8,35483.5
34772.2,35476.3
34777.2,35469.5
34782.9,35463.2
34789.2,35457.5
34796,35452.5
34803.2,35448.2
34810.8,35444.5
34818.8,35441.7
34827,35439.6
34835.4,35438.4
34843.8,35438
35016,35438
Z" /> 
</g>
<g >
</g>
<g style="fill:#FFFFFF; fill-opacity:1.0; 
stroke:#FFFFFF; stroke-width:0; stroke-opacity:1; 
stroke-linecap:round; stroke-linejoin:round;">
<path style="fill:#FFFFFF; fill-opacity:1.0; 
stroke:#FFFFFF; stroke-width:0; stroke-opacity:1; 
stroke-linecap:round; stroke-linejoin:round;fill-rule:evenodd;"
d="M 35059.3,30818.1
35067.7,30819.4
35075.9,30821.4
35083.8,30824.3
35091.5,30827.9
35098.7,30832.2
35105.5,30837.3
35111.8,30842.9
35117.5,30849.2
35122.5,30856
35126.8,30863.2
35130.5,30870.9
35133.3,30878.8
35135.4,30887
35136.6,30895.4
35137,30903.8
35137,31076.1
35136.6,31084.5
35135.4,31092.9
35133.3,31101.1
35130.5,31109
35126.8,31116.7
35122.5,31123.9
35117.5,31130.7
35111.8,31137
35105.5,31142.7
35098.7,31147.7
35091.5,31152
35083.8,31155.6
35075.9,31158.5
35067.7,31160.5
35059.3,31161.8
35050.9,31162.2
34849.1,31162.2
34840.7,31161.8
34832.3,31160.5
34824.1,31158.5
34816.2,31155.6
34808.5,31152
34801.3,31147.7
34794.5,31142.7
34788.2,31137
34782.5,31130.7
34777.5,31123.9
34773.2,31116.7
34769.5,31109
34766.7,31101.1
34764.6,31092.9
34763.4,31084.5
34763,31076.1
34763,30903.8
34763.4,30895.4
34764.6,30887
34766.7,30878.8
34769.5,30870.9
34773.2,30863.2
34777.5,30856
34782.5,30849.2
34788.2,30842.9
34794.5,30837.3
34801.3,30832.2
34808.5,30827.9
34816.2,30824.3
34824.1,30821.4
34832.3,30819.4
34840.7,30818.1
34849.1,30817.7
35050.9,30817.7
Z" /> 
<path style="fill:#FFFFFF; fill-opacity:1.0; 
stroke:#FFFFFF; stroke-width:0; stroke-opacity:1; 
stroke-linecap:round; stroke-linejoin:round;fill-rule:evenodd;"
d="M 35059.3,31438.2
35067.7,31439.5
35075.9,31441.5
35083.8,31444.4
35091.5,31448
35098.7,31452.3
35105.5,31457.3
35111.8,31463
35117.5,31469.3
35122.5,31476.1
35126.8,31483.3
35130.5,31491
35133.3,31498.9
35135.4,31507.1
35136.6,31515.5
35137,31523.9
35137,31696.2
35136.6,31704.6
35135.4,31713
35133.3,31721.2
35130.5,31729.1
35126.8,31736.8
35122.5,31744
35117.5,31750.8
35111.8,31757.1
35105.5,31762.7
35098.7,31767.8
35091.5,31772.1
35083.8,31775.7
35075.9,31778.6
35067.7,31780.6
35059.3,31781.9
35050.9,31782.3
34849.1,31782.3
34840.7,31781.9
34832.3,31780.6
34824.1,31778.6
34816.2,31775.7
34808.5,31772.1
34801.3,31767.8
34794.5,31762.7
34788.2,31757.1
34782.5,31750.8
34777.5,31744
34773.2,31736.8
34769.5,31729.1
34766.7,31721.2
34764.6,31713
34763.4,31704.6
34763,31696.2
34763,31523.9
34763.4,31515.5
34764.6,31507.1
34766.7,31498.9
34769.5,31491
34773.2,31483.3
34777.5,31476.1
34782.5,31469.3
34788.2,31463
34794.5,31457.3
34801.3,31452.3
34808.5,31448
34816.2,31444.4
34824.1,31441.5
34832.3,31439.5
34840.7,31438.2
34849.1,31437.8
35050.9,31437.8
Z" /> 
</g>
<g >
</g>
<g style="fill:#FFFFFF; fill-opacity:1.0; 
stroke:#FFFFFF; stroke-width:0; stroke-opacity:1; 
stroke-linecap:round; stroke-linejoin:round;">
<path style="fill:#FFFFFF; fill-opacity:1.0; 
stroke:#FFFFFF; stroke-width:0; stroke-opacity:1; 
stroke-linecap:round; stroke-linejoin:round;fill-rule:evenodd;"
d="M 36107.5,31583.5
35792.5,31583.5
35792.5,30835.4
36107.5,30835.4
Z" /> 
<path style="fill:#FFFFFF; fill-opacity:1.0; 
stroke:#FFFFFF; stroke-width:0; stroke-opacity:1; 
stroke-linecap:round; stroke-linejoin:round;fill-rule:evenodd;"
d="M 36481.5,32764.6
36166.5,32764.6
36166.5,32016.5
36481.5,32016.5
Z" /> 
<path style="fill:#FFFFFF; fill-opacity:1.0; 
stroke:#FFFFFF; stroke-width:0; stroke-opacity:1; 
stroke-linecap:round; stroke-linejoin:round;fill-rule:evenodd;"
d="M 35733.5,32764.6
35418.5,32764.6
35418.5,32016.5
35733.5,32016.5
Z" /> 
</g>
<g >
</g>
<g style="fill:#FFFFFF; fill-opacity:1.0; 
stroke:#FFFFFF; stroke-width:0; stroke-opacity:1; 
stroke-linecap:round; stroke-linejoin:round;">
<path style="fill:#FFFFFF; fill-opacity:1.0; 
stroke:#FFFFFF; stroke-width:0; stroke-opacity:1; 
stroke-linecap:round; stroke-linejoin:round;fill-rule:evenodd;"
d="M 39191.1,29374.9
39200.7,29376.3
39210.1,29378.6
39219.2,29381.9
39227.9,29386
39236.2,29391
39243.9,29396.8
39251.1,29403.2
39257.6,29410.4
39263.3,29418.2
39268.3,29426.4
39272.4,29435.2
39275.7,29444.3
39278,29453.6
39279.4,29463.2
39279.9,29472.8
39279.9,29827.2
39279.4,29836.8
39278,29846.4
39275.7,29855.7
39272.4,29864.8
39268.3,29873.6
39263.3,29881.8
39257.6,29889.6
39251.1,29896.8
39243.9,29903.2
39236.2,29909
39227.9,29914
39219.2,29918.1
39210.1,29921.4
39200.7,29923.7
39191.1,29925.1
39181.5,29925.6
38925.6,29925.6
38915.9,29925.1
38906.4,29923.7
38897,29921.4
38887.9,29918.1
38879.2,29914
38870.9,29909
38863.2,29903.2
38856,29896.8
38849.5,29889.6
38843.8,29881.8
38838.8,29873.6
38834.7,29864.8
38831.4,29855.7
38829.1,29846.4
38827.6,29836.8
38827.2,29827.2
38827.2,29472.8
38827.6,29463.2
38829.1,29453.6
38831.4,29444.3
38834.7,29435.2
38838.8,29426.4
38843.8,29418.2
38849.5,29410.4
38856,29403.2
38863.2,29396.8
38870.9,29391
38879.2,29386
38887.9,29381.9
38897,29378.6
38906.4,29376.3
38915.9,29374.9
38925.6,29374.4
39181.5,29374.4
Z" /> 
<path style="fill:#FFFFFF; fill-opacity:1.0; 
stroke:#FFFFFF; stroke-width:0; stroke-opacity:1; 
stroke-linecap:round; stroke-linejoin:round;fill-rule:evenodd;"
d="M 38384.1,29374.9
38393.6,29376.3
38403,29378.6
38412.1,29381.9
38420.8,29386
38429.1,29391
38436.8,29396.8
38444,29403.2
38450.5,29410.4
38456.2,29418.2
38461.2,29426.4
38465.3,29435.2
38468.6,29444.3
38470.9,29453.6
38472.4,29463.2
38472.8,29472.8
38472.8,29827.2
38472.4,29836.8
38470.9,29846.4
38468.6,29855.7
38465.3,29864.8
38461.2,29873.6
38456.2,29881.8
38450.5,29889.6
38444,29896.8
38436.8,29903.2
38429.1,29909
38420.8,29914
38412.1,29918.1
38403,29921.4
38393.6,29923.7
38384.1,29925.1
38374.4,29925.6
38118.5,29925.6
38108.9,29925.1
38099.3,29923.7
38089.9,29921.4
38080.8,29918.1
38072.1,29914
38063.8,29909
38056.1,29903.2
38048.9,29896.8
38042.4,29889.6
38036.7,29881.8
38031.7,29873.6
38027.6,29864.8
38024.3,29855.7
38022,29846.4
38020.6,29836.8
38020.1,29827.2
38020.1,29472.8
38020.6,29463.2
38022,29453.6
38024.3,29444.3
38027.6,29435.2
38031.7,29426.4
38036.7,29418.2
38042.4,29410.4
38048.9,29403.2
38056.1,29396.8
38063.8,29391
38072.1,29386
38080.8,29381.9
38089.9,29378.6
38099.3,29376.3
38108.9,29374.9
38118.5,29374.4
38374.4,29374.4
Z" /> 
</g>
<g >
</g>
<g >
</g>
<g style="fill:#FFFFFF; fill-opacity:1.0; 
stroke:#FFFFFF; stroke-width:0; stroke-opacity:1; 
stroke-linecap:round; stroke-linejoin:round;">
<path style="fill:#FFFFFF; fill-opacity:1.0; 
stroke:#FFFFFF; stroke-width:0; stroke-opacity:1; 
stroke-linecap:round; stroke-linejoin:round;fill-rule:evenodd;"
d="M 35459.1,36574.9
35468.6,36576.3
35478,36578.6
35487.1,36581.9
35495.8,36586
35504.1,36591
35511.8,36596.8
35519,36603.2
35525.5,36610.4
35531.2,36618.2
35536.2,36626.4
35540.3,36635.2
35543.6,36644.3
35545.9,36653.6
35547.4,36663.2
35547.8,36672.8
35547.8,37027.2
35547.4,37036.8
35545.9,37046.4
35543.6,37055.7
35540.3,37064.8
35536.2,37073.6
35531.2,37081.8
35525.5,37089.6
35519,37096.8
35511.8,37103.2
35504.1,37109
35495.8,37114
35487.1,37118.1
35478,37121.4
35468.6,37123.7
35459.1,37125.1
35449.4,37125.6
35193.5,37125.6
35183.9,37125.1
35174.3,37123.7
35164.9,37121.4
35155.8,37118.1
35147.1,37114
35138.8,37109
35131.1,37103.2
35123.9,37096.8
35117.4,37089.6
35111.7,37081.8
35106.7,37073.6
35102.6,37064.8
35099.3,37055.7
35097,37046.4
35095.6,37036.8
35095.1,37027.2
35095.1,36672.8
35095.6,36663.2
35097,36653.6
35099.3,36644.3
35102.6,36635.2
35106.7,36626.4
35111.7,36618.2
35117.4,36610.4
35123.9,36603.2
35131.1,36596.8
35138.8,36591
35147.1,36586
35155.8,36581.9
35164.9,36578.6
35174.3,36576.3
35183.9,36574.9
35193.5,36574.4
35449.4,36574.4
Z" /> 
<path style="fill:#FFFFFF; fill-opacity:1.0; 
stroke:#FFFFFF; stroke-width:0; stroke-opacity:1; 
stroke-linecap:round; stroke-linejoin:round;fill-rule:evenodd;"
d="M 36266.1,36574.9
36275.7,36576.3
36285.1,36578.6
36294.2,36581.9
36302.9,36586
36311.2,36591
36318.9,36596.8
36326.1,36603.2
36332.6,36610.4
36338.3,36618.2
36343.3,36626.4
36347.4,36635.2
36350.7,36644.3
36353,36653.6
36354.4,36663.2
36354.9,36672.8
36354.9,37027.2
36354.4,37036.8
36353,37046.4
36350.7,37055.7
36347.4,37064.8
36343.3,37073.6
36338.3,37081.8
36332.6,37089.6
36326.1,37096.8
36318.9,37103.2
36311.2,37109
36302.9,37114
36294.2,37118.1
36285.1,37121.4
36275.7,37123.7
36266.1,37125.1
36256.5,37125.6
36000.6,37125.6
35990.9,37125.1
35981.4,37123.7
35972,37121.4
35962.9,37118.1
35954.2,37114
35945.9,37109
35938.2,37103.2
35931,37096.8
35924.5,37089.6
35918.8,37081.8
35913.8,37073.6
35909.7,37064.8
35906.4,37055.7
35904.1,37046.4
35902.6,37036.8
35902.2,37027.2
35902.2,36672.8
35902.6,36663.2
35904.1,36653.6
35906.4,36644.3
35909.7,36635.2
35913.8,36626.4
35918.8,36618.2
35924.5,36610.4
35931,36603.2
35938.2,36596.8
35945.9,36591
35954.2,36586
35962.9,36581.9
35972,36578.6
35981.4,36576.3
35990.9,36574.9
36000.6,36574.4
36256.5,36574.4
Z" /> 
</g>
<g >
</g>
<g style="fill:#FFFFFF; fill-opacity:1.0; 
stroke:#FFFFFF; stroke-width:0; stroke-opacity:1; 
stroke-linecap:round; stroke-linejoin:round;">
<path style="fill:#FFFFFF; fill-opacity:1.0; 
stroke:#FFFFFF; stroke-width:0; stroke-opacity:1; 
stroke-linecap:round; stroke-linejoin:round;fill-rule:evenodd;"
d="M 36286.8,30177.6
36296.4,30179.1
36305.7,30181.4
36314.8,30184.7
36323.6,30188.8
36331.8,30193.8
36339.6,30199.5
36346.8,30206
36353.2,30213.1
36359,30220.9
36364,30229.2
36368.1,30237.9
36371.4,30247
36373.7,30256.4
36375.1,30265.9
36375.6,30275.6
36375.6,30531.5
36375.1,30541.1
36373.7,30550.7
36371.4,30560.1
36368.1,30569.2
36364,30577.9
36359,30586.2
36353.2,30593.9
36346.8,30601.1
36339.6,30607.6
36331.8,30613.3
36323.6,30618.3
36314.8,30622.4
36305.7,30625.7
36296.4,30628
36286.8,30629.4
36277.2,30629.9
35922.8,30629.9
35913.2,30629.4
35903.6,30628
35894.3,30625.7
35885.2,30622.4
35876.4,30618.3
35868.2,30613.3
35860.4,30607.6
35853.2,30601.1
35846.8,30593.9
35841,30586.2
35836,30577.9
35831.9,30569.2
35828.6,30560.1
35826.3,30550.7
35824.9,30541.1
35824.4,30531.5
35824.4,30275.6
35824.9,30265.9
35826.3,30256.4
35828.6,30247
35831.9,30237.9
35836,30229.2
35841,30220.9
35846.8,30213.1
35853.2,30206
35860.4,30199.5
35868.2,30193.8
35876.4,30188.8
35885.2,30184.7
35894.3,30181.4
35903.6,30179.1
35913.2,30177.6
35922.8,30177.2
36277.2,30177.2
Z" /> 
<path style="fill:#FFFFFF; fill-opacity:1.0; 
stroke:#FFFFFF; stroke-width:0; stroke-opacity:1; 
stroke-linecap:round; stroke-linejoin:round;fill-rule:evenodd;"
d="M 36286.8,29370.6
36296.4,29372
36305.7,29374.3
36314.8,29377.6
36323.6,29381.7
36331.8,29386.7
36339.6,29392.4
36346.8,29398.9
36353.2,29406.1
36359,29413.8
36364,29422.1
36368.1,29430.8
36371.4,29439.9
36373.7,29449.3
36375.1,29458.9
36375.6,29468.5
36375.6,29724.4
36375.1,29734.1
36373.7,29743.6
36371.4,29753
36368.1,29762.1
36364,29770.8
36359,29779.1
36353.2,29786.8
36346.8,29794
36339.6,29800.5
36331.8,29806.2
36323.6,29811.2
36314.8,29815.3
36305.7,29818.6
36296.4,29820.9
36286.8,29822.4
36277.2,29822.8
35922.8,29822.8
35913.2,29822.4
35903.6,29820.9
35894.3,29818.6
35885.2,29815.3
35876.4,29811.2
35868.2,29806.2
35860.4,29800.5
35853.2,29794
35846.8,29786.8
35841,29779.1
35836,29770.8
35831.9,29762.1
35828.6,29753
35826.3,29743.6
35824.9,29734.1
35824.4,29724.4
35824.4,29468.5
35824.9,29458.9
35826.3,29449.3
35828.6,29439.9
35831.9,29430.8
35836,29422.1
35841,29413.8
35846.8,29406.1
35853.2,29398.9
35860.4,29392.4
35868.2,29386.7
35876.4,29381.7
35885.2,29377.6
35894.3,29374.3
35903.6,29372
35913.2,29370.6
35922.8,29370.1
36277.2,29370.1
Z" /> 
</g>
<g >
</g>
<g style="fill:#FFFFFF; fill-opacity:1.0; 
stroke:#FFFFFF; stroke-width:0; stroke-opacity:1; 
stroke-linecap:round; stroke-linejoin:round;">
<path style="fill:#FFFFFF; fill-opacity:1.0; 
stroke:#FFFFFF; stroke-width:0; stroke-opacity:1; 
stroke-linecap:round; stroke-linejoin:round;fill-rule:evenodd;"
d="M 36934.1,29374.9
36943.6,29376.3
36953,29378.6
36962.1,29381.9
36970.8,29386
36979.1,29391
36986.8,29396.8
36994,29403.2
37000.5,29410.4
37006.2,29418.2
37011.2,29426.4
37015.3,29435.2
37018.6,29444.3
37020.9,29453.6
37022.4,29463.2
37022.8,29472.8
37022.8,29827.2
37022.4,29836.8
37020.9,29846.4
37018.6,29855.7
37015.3,29864.8
37011.2,29873.6
37006.2,29881.8
37000.5,29889.6
36994,29896.8
36986.8,29903.2
36979.1,29909
36970.8,29914
36962.1,29918.1
36953,29921.4
36943.6,29923.7
36934.1,29925.1
36924.4,29925.6
36668.5,29925.6
36658.9,29925.1
36649.3,29923.7
36639.9,29921.4
36630.8,29918.1
36622.1,29914
36613.8,29909
36606.1,29903.2
36598.9,29896.8
36592.4,29889.6
36586.7,29881.8
36581.7,29873.6
36577.6,29864.8
36574.3,29855.7
36572,29846.4
36570.6,29836.8
36570.1,29827.2
36570.1,29472.8
36570.6,29463.2
36572,29453.6
36574.3,29444.3
36577.6,29435.2
36581.7,29426.4
36586.7,29418.2
36592.4,29410.4
36598.9,29403.2
36606.1,29396.8
36613.8,29391
36622.1,29386
36630.8,29381.9
36639.9,29378.6
36649.3,29376.3
36658.9,29374.9
36668.5,29374.4
36924.4,29374.4
Z" /> 
<path style="fill:#FFFFFF; fill-opacity:1.0; 
stroke:#FFFFFF; stroke-width:0; stroke-opacity:1; 
stroke-linecap:round; stroke-linejoin:round;fill-rule:evenodd;"
d="M 37741.1,29374.9
37750.7,29376.3
37760.1,29378.6
37769.2,29381.9
37777.9,29386
37786.2,29391
37793.9,29396.8
37801.1,29403.2
37807.6,29410.4
37813.3,29418.2
37818.3,29426.4
37822.4,29435.2
37825.7,29444.3
37828,29453.6
37829.4,29463.2
37829.9,29472.8
37829.9,29827.2
37829.4,29836.8
37828,29846.4
37825.7,29855.7
37822.4,29864.8
37818.3,29873.6
37813.3,29881.8
37807.6,29889.6
37801.1,29896.8
37793.9,29903.2
37786.2,29909
37777.9,29914
37769.2,29918.1
37760.1,29921.4
37750.7,29923.7
37741.1,29925.1
37731.5,29925.6
37475.6,29925.6
37465.9,29925.1
37456.4,29923.7
37447,29921.4
37437.9,29918.1
37429.2,29914
37420.9,29909
37413.2,29903.2
37406,29896.8
37399.5,29889.6
37393.8,29881.8
37388.8,29873.6
37384.7,29864.8
37381.4,29855.7
37379.1,29846.4
37377.6,29836.8
37377.2,29827.2
37377.2,29472.8
37377.6,29463.2
37379.1,29453.6
37381.4,29444.3
37384.7,29435.2
37388.8,29426.4
37393.8,29418.2
37399.5,29410.4
37406,29403.2
37413.2,29396.8
37420.9,29391
37429.2,29386
37437.9,29381.9
37447,29378.6
37456.4,29376.3
37465.9,29374.9
37475.6,29374.4
37731.5,29374.4
Z" /> 
</g>
<g >
</g>
<g style="fill:#FFFFFF; fill-opacity:1.0; 
stroke:#FFFFFF; stroke-width:0; stroke-opacity:1; 
stroke-linecap:round; stroke-linejoin:round;">
<path style="fill:#FFFFFF; fill-opacity:1.0; 
stroke:#FFFFFF; stroke-width:0; stroke-opacity:1; 
stroke-linecap:round; stroke-linejoin:round;fill-rule:evenodd;"
d="M 36459.1,37349.9
36468.6,37351.3
36478,37353.6
36487.1,37356.9
36495.8,37361
36504.1,37366
36511.8,37371.8
36519,37378.2
36525.5,37385.4
36531.2,37393.2
36536.2,37401.4
36540.3,37410.2
36543.6,37419.3
36545.9,37428.6
36547.4,37438.2
36547.8,37447.8
36547.8,37802.2
36547.4,37811.8
36545.9,37821.4
36543.6,37830.7
36540.3,37839.8
36536.2,37848.6
36531.2,37856.8
36525.5,37864.6
36519,37871.8
36511.8,37878.2
36504.1,37884
36495.8,37889
36487.1,37893.1
36478,37896.4
36468.6,37898.7
36459.1,37900.1
36449.4,37900.6
36193.5,37900.6
36183.9,37900.1
36174.3,37898.7
36164.9,37896.4
36155.8,37893.1
36147.1,37889
36138.8,37884
36131.1,37878.2
36123.9,37871.8
36117.4,37864.6
36111.7,37856.8
36106.7,37848.6
36102.6,37839.8
36099.3,37830.7
36097,37821.4
36095.6,37811.8
36095.1,37802.2
36095.1,37447.8
36095.6,37438.2
36097,37428.6
36099.3,37419.3
36102.6,37410.2
36106.7,37401.4
36111.7,37393.2
36117.4,37385.4
36123.9,37378.2
36131.1,37371.8
36138.8,37366
36147.1,37361
36155.8,37356.9
36164.9,37353.6
36174.3,37351.3
36183.9,37349.9
36193.5,37349.4
36449.4,37349.4
Z" /> 
<path style="fill:#FFFFFF; fill-opacity:1.0; 
stroke:#FFFFFF; stroke-width:0; stroke-opacity:1; 
stroke-linecap:round; stroke-linejoin:round;fill-rule:evenodd;"
d="M 37266.1,37349.9
37275.7,37351.3
37285.1,37353.6
37294.2,37356.9
37302.9,37361
37311.2,37366
37318.9,37371.8
37326.1,37378.2
37332.6,37385.4
37338.3,37393.2
37343.3,37401.4
37347.4,37410.2
37350.7,37419.3
37353,37428.6
37354.4,37438.2
37354.9,37447.8
37354.9,37802.2
37354.4,37811.8
37353,37821.4
37350.7,37830.7
37347.4,37839.8
37343.3,37848.6
37338.3,37856.8
37332.6,37864.6
37326.1,37871.8
37318.9,37878.2
37311.2,37884
37302.9,37889
37294.2,37893.1
37285.1,37896.4
37275.7,37898.7
37266.1,37900.1
37256.5,37900.6
37000.6,37900.6
36990.9,37900.1
36981.4,37898.7
36972,37896.4
36962.9,37893.1
36954.2,37889
36945.9,37884
36938.2,37878.2
36931,37871.8
36924.5,37864.6
36918.8,37856.8
36913.8,37848.6
36909.7,37839.8
36906.4,37830.7
36904.1,37821.4
36902.6,37811.8
36902.2,37802.2
36902.2,37447.8
36902.6,37438.2
36904.1,37428.6
36906.4,37419.3
36909.7,37410.2
36913.8,37401.4
36918.8,37393.2
36924.5,37385.4
36931,37378.2
36938.2,37371.8
36945.9,37366
36954.2,37361
36962.9,37356.9
36972,37353.6
36981.4,37351.3
36990.9,37349.9
37000.6,37349.4
37256.5,37349.4
Z" /> 
</g>
<g >
</g>
<g style="fill:#FFFFFF; fill-opacity:1.0; 
stroke:#FFFFFF; stroke-width:0; stroke-opacity:1; 
stroke-linecap:round; stroke-linejoin:round;">
<path style="fill:#FFFFFF; fill-opacity:1.0; 
stroke:#FFFFFF; stroke-width:0; stroke-opacity:1; 
stroke-linecap:round; stroke-linejoin:round;fill-rule:evenodd;"
d="M 35226.8,30157.6
35236.4,30159.1
35245.7,30161.4
35254.8,30164.7
35263.6,30168.8
35271.8,30173.8
35279.6,30179.5
35286.8,30186
35293.2,30193.1
35299,30200.9
35304,30209.2
35308.1,30217.9
35311.4,30227
35313.7,30236.4
35315.1,30245.9
35315.6,30255.6
35315.6,30511.5
35315.1,30521.1
35313.7,30530.7
35311.4,30540.1
35308.1,30549.2
35304,30557.9
35299,30566.2
35293.2,30573.9
35286.8,30581.1
35279.6,30587.6
35271.8,30593.3
35263.6,30598.3
35254.8,30602.4
35245.7,30605.7
35236.4,30608
35226.8,30609.4
35217.2,30609.9
34862.8,30609.9
34853.2,30609.4
34843.6,30608
34834.3,30605.7
34825.2,30602.4
34816.4,30598.3
34808.2,30593.3
34800.4,30587.6
34793.2,30581.1
34786.8,30573.9
34781,30566.2
34776,30557.9
34771.9,30549.2
34768.6,30540.1
34766.3,30530.7
34764.9,30521.1
34764.4,30511.5
34764.4,30255.6
34764.9,30245.9
34766.3,30236.4
34768.6,30227
34771.9,30217.9
34776,30209.2
34781,30200.9
34786.8,30193.1
34793.2,30186
34800.4,30179.5
34808.2,30173.8
34816.4,30168.8
34825.2,30164.7
34834.3,30161.4
34843.6,30159.1
34853.2,30157.6
34862.8,30157.2
35217.2,30157.2
Z" /> 
<path style="fill:#FFFFFF; fill-opacity:1.0; 
stroke:#FFFFFF; stroke-width:0; stroke-opacity:1; 
stroke-linecap:round; stroke-linejoin:round;fill-rule:evenodd;"
d="M 35226.8,29350.6
35236.4,29352
35245.7,29354.3
35254.8,29357.6
35263.6,29361.7
35271.8,29366.7
35279.6,29372.4
35286.8,29378.9
35293.2,29386.1
35299,29393.8
35304,29402.1
35308.1,29410.8
35311.4,29419.9
35313.7,29429.3
35315.1,29438.9
35315.6,29448.5
35315.6,29704.4
35315.1,29714.1
35313.7,29723.6
35311.4,29733
35308.1,29742.1
35304,29750.8
35299,29759.1
35293.2,29766.8
35286.8,29774
35279.6,29780.5
35271.8,29786.2
35263.6,29791.2
35254.8,29795.3
35245.7,29798.6
35236.4,29800.9
35226.8,29802.4
35217.2,29802.8
34862.8,29802.8
34853.2,29802.4
34843.6,29800.9
34834.3,29798.6
34825.2,29795.3
34816.4,29791.2
34808.2,29786.2
34800.4,29780.5
34793.2,29774
34786.8,29766.8
34781,29759.1
34776,29750.8
34771.9,29742.1
34768.6,29733
34766.3,29723.6
34764.9,29714.1
34764.4,29704.4
34764.4,29448.5
34764.9,29438.9
34766.3,29429.3
34768.6,29419.9
34771.9,29410.8
34776,29402.1
34781,29393.8
34786.8,29386.1
34793.2,29378.9
34800.4,29372.4
34808.2,29366.7
34816.4,29361.7
34825.2,29357.6
34834.3,29354.3
34843.6,29352
34853.2,29350.6
34862.8,29350.1
35217.2,29350.1
Z" /> 
</g>
<g >
</g>
<g style="fill:#FFFFFF; fill-opacity:1.0; 
stroke:#FFFFFF; stroke-width:0; stroke-opacity:1; 
stroke-linecap:round; stroke-linejoin:round;">
<path style="fill:#FFFFFF; fill-opacity:1.0; 
stroke:#FFFFFF; stroke-width:0; stroke-opacity:1; 
stroke-linecap:round; stroke-linejoin:round;fill-rule:evenodd;"
d="M 35833.5,38542.5
35833.5,38857.5
35085.4,38857.5
35085.4,38542.5
Z" /> 
<path style="fill:#FFFFFF; fill-opacity:1.0; 
stroke:#FFFFFF; stroke-width:0; stroke-opacity:1; 
stroke-linecap:round; stroke-linejoin:round;fill-rule:evenodd;"
d="M 37014.6,38168.5
37014.6,38483.5
36266.5,38483.5
36266.5,38168.5
Z" /> 
<path style="fill:#FFFFFF; fill-opacity:1.0; 
stroke:#FFFFFF; stroke-width:0; stroke-opacity:1; 
stroke-linecap:round; stroke-linejoin:round;fill-rule:evenodd;"
d="M 37014.6,38916.5
37014.6,39231.5
36266.5,39231.5
36266.5,38916.5
Z" /> 
</g>
<g >
</g>
<g style="fill:#FFFFFF; fill-opacity:1.0; 
stroke:#FFFFFF; stroke-width:0; stroke-opacity:1; 
stroke-linecap:round; stroke-linejoin:round;">
<path style="fill:#FFFFFF; fill-opacity:1.0; 
stroke:#FFFFFF; stroke-width:0; stroke-opacity:1; 
stroke-linecap:round; stroke-linejoin:round;fill-rule:evenodd;"
d="M 35176.1,39528.8
35185.7,39530.2
35195,39532.6
35204.1,39535.8
35212.9,39540
35221.1,39544.9
35228.9,39550.7
35236.1,39557.2
35242.5,39564.3
35248.3,39572.1
35253.3,39580.4
35257.4,39589.1
35260.6,39598.2
35263,39607.6
35264.4,39617.1
35264.9,39626.8
35264.9,40473.2
35264.4,40482.9
35263,40492.4
35260.6,40501.8
35257.4,40510.9
35253.3,40519.6
35248.3,40527.9
35242.5,40535.7
35236.1,40542.8
35228.9,40549.3
35221.1,40555.1
35212.9,40560
35204.1,40564.2
35195,40567.4
35185.7,40569.8
35176.1,40571.2
35166.5,40571.7
34871.2,40571.7
34861.5,40571.2
34852,40569.8
34842.6,40567.4
34833.5,40564.2
34824.8,40560
34816.5,40555.1
34808.7,40549.3
34801.6,40542.8
34795.1,40535.7
34789.3,40527.9
34784.4,40519.6
34780.2,40510.9
34777,40501.8
34774.6,40492.4
34773.2,40482.9
34772.8,40473.2
34772.8,39626.8
34773.2,39617.1
34774.6,39607.6
34777,39598.2
34780.2,39589.1
34784.4,39580.4
34789.3,39572.1
34795.1,39564.3
34801.6,39557.2
34808.7,39550.7
34816.5,39544.9
34824.8,39540
34833.5,39535.8
34842.6,39532.6
34852,39530.2
34861.5,39528.8
34871.2,39528.3
35166.5,39528.3
Z" /> 
<path style="fill:#FFFFFF; fill-opacity:1.0; 
stroke:#FFFFFF; stroke-width:0; stroke-opacity:1; 
stroke-linecap:round; stroke-linejoin:round;fill-rule:evenodd;"
d="M 36278.5,39528.8
36288,39530.2
36297.4,39532.6
36306.5,39535.8
36315.2,39540
36323.5,39544.9
36331.3,39550.7
36338.4,39557.2
36344.9,39564.3
36350.7,39572.1
36355.6,39580.4
36359.8,39589.1
36363,39598.2
36365.4,39607.6
36366.8,39617.1
36367.2,39626.8
36367.2,40473.2
36366.8,40482.9
36365.4,40492.4
36363,40501.8
36359.8,40510.9
36355.6,40519.6
36350.7,40527.9
36344.9,40535.7
36338.4,40542.8
36331.3,40549.3
36323.5,40555.1
36315.2,40560
36306.5,40564.2
36297.4,40567.4
36288,40569.8
36278.5,40571.2
36268.8,40571.7
35973.5,40571.7
35963.9,40571.2
35954.3,40569.8
35945,40567.4
35935.9,40564.2
35927.1,40560
35918.9,40555.1
35911.1,40549.3
35903.9,40542.8
35897.5,40535.7
35891.7,40527.9
35886.7,40519.6
35882.6,40510.9
35879.4,40501.8
35877,40492.4
35875.6,40482.9
35875.1,40473.2
35875.1,39626.8
35875.6,39617.1
35877,39607.6
35879.4,39598.2
35882.6,39589.1
35886.7,39580.4
35891.7,39572.1
35897.5,39564.3
35903.9,39557.2
35911.1,39550.7
35918.9,39544.9
35927.1,39540
35935.9,39535.8
35945,39532.6
35954.3,39530.2
35963.9,39528.8
35973.5,39528.3
36268.8,39528.3
Z" /> 
</g>
<g >
</g>
<g style="fill:#FFFFFF; fill-opacity:1.0; 
stroke:#FFFFFF; stroke-width:0; stroke-opacity:1; 
stroke-linecap:round; stroke-linejoin:round;">
</g>
<g style="fill:#FFFFFF; fill-opacity:1.0; 
stroke:#FFFFFF; stroke-width:748.031; stroke-opacity:1; 
stroke-linecap:round; stroke-linejoin:round;">
</g>
<g style="fill:#FFFFFF; fill-opacity:0.0; 
stroke:#FFFFFF; stroke-width:748.031; stroke-opacity:1; 
stroke-linecap:round; stroke-linejoin:round;">
<path d="M39244 27811
L39244 27181
" />
<path d="M34755 27811
L34755 27181
" />
</g>
<g style="fill:#FFFFFF; fill-opacity:0.0; 
stroke:#FFFFFF; stroke-width:0; stroke-opacity:1; 
stroke-linecap:round; stroke-linejoin:round;">
</g>
<g style="fill:#FFFFFF; fill-opacity:1.0; 
stroke:#FFFFFF; stroke-width:0; stroke-opacity:1; 
stroke-linecap:round; stroke-linejoin:round;">
<path style="fill:#FFFFFF; fill-opacity:1.0; 
stroke:#FFFFFF; stroke-width:0; stroke-opacity:1; 
stroke-linecap:round; stroke-linejoin:round;fill-rule:evenodd;"
d="M 38594.5,29071.3
38161.4,29071.3
38161.4,28087.1
38594.5,28087.1
Z" /> 
<path style="fill:#FFFFFF; fill-opacity:1.0; 
stroke:#FFFFFF; stroke-width:0; stroke-opacity:1; 
stroke-linecap:round; stroke-linejoin:round;fill-rule:evenodd;"
d="M 35838.6,29071.3
35405.5,29071.3
35405.5,28087.1
35838.6,28087.1
Z" /> 
<path style="fill:#FFFFFF; fill-opacity:1.0; 
stroke:#FFFFFF; stroke-width:0; stroke-opacity:1; 
stroke-linecap:round; stroke-linejoin:round;fill-rule:evenodd;"
d="M 37610.2,29071.3
37177.2,29071.3
37177.2,28087.1
37610.2,28087.1
Z" /> 
<path style="fill:#FFFFFF; fill-opacity:1.0; 
stroke:#FFFFFF; stroke-width:0; stroke-opacity:1; 
stroke-linecap:round; stroke-linejoin:round;fill-rule:evenodd;"
d="M 36822.8,29071.3
36389.8,29071.3
36389.8,28087.1
36822.8,28087.1
Z" /> 
</g>
<g >
</g>
<g >
</g>
<g >
</g>
<g >
</g>
<g >
</g>
<g >
</g>
<g >
</g>
<g >
</g>
<g >
</g>
<g >
</g>
<g >
</g>
<g >
</g>
<g >
</g>
<g >
</g>
<g >
</g>
<g >
</g>
<g style="fill:#FFFFFF; fill-opacity:1.0; 
stroke:#FFFFFF; stroke-width:0; stroke-opacity:1; 
stroke-linecap:round; stroke-linejoin:round;">
<circle cx="34975" cy="34950" r="334.646" /> 
</g>
<g style="fill:#FFFFFF; fill-opacity:1.0; 
stroke:#FFFFFF; stroke-width:7.87402; stroke-opacity:1; 
stroke-linecap:round; stroke-linejoin:round;">
</g>
<g style="fill:#FFFFFF; fill-opacity:1.0; 
stroke:#FFFFFF; stroke-width:0; stroke-opacity:1; 
stroke-linecap:round; stroke-linejoin:round;">
<circle cx="37700" cy="30400" r="334.646" /> 
</g>
<g style="fill:#FFFFFF; fill-opacity:1.0; 
stroke:#FFFFFF; stroke-width:7.87402; stroke-opacity:1; 
stroke-linecap:round; stroke-linejoin:round;">
</g>
<g style="fill:#FFFFFF; fill-opacity:1.0; 
stroke:#FFFFFF; stroke-width:0; stroke-opacity:1; 
stroke-linecap:round; stroke-linejoin:round;">
<circle cx="39025" cy="37550" r="334.646" /> 
</g>
<g style="fill:#FFFFFF; fill-opacity:1.0; 
stroke:#FFFFFF; stroke-width:7.87402; stroke-opacity:1; 
stroke-linecap:round; stroke-linejoin:round;">
</g>
<g style="fill:#FFFFFF; fill-opacity:1.0; 
stroke:#FFFFFF; stroke-width:0; stroke-opacity:1; 
stroke-linecap:round; stroke-linejoin:round;">
<circle cx="36825" cy="36800" r="334.646" /> 
</g>
<g style="fill:#FFFFFF; fill-opacity:1.0; 
stroke:#FFFFFF; stroke-width:7.87402; stroke-opacity:1; 
stroke-linecap:round; stroke-linejoin:round;">
</g>
<g style="fill:#FFFFFF; fill-opacity:1.0; 
stroke:#FFFFFF; stroke-width:0; stroke-opacity:1; 
stroke-linecap:round; stroke-linejoin:round;">
<circle cx="35600" cy="34075" r="334.646" /> 
</g>
<g style="fill:#FFFFFF; fill-opacity:1.0; 
stroke:#FFFFFF; stroke-width:7.87402; stroke-opacity:1; 
stroke-linecap:round; stroke-linejoin:round;">
</g>
<g style="fill:#FFFFFF; fill-opacity:1.0; 
stroke:#FFFFFF; stroke-width:0; stroke-opacity:1; 
stroke-linecap:round; stroke-linejoin:round;">
<circle cx="39000" cy="34125" r="334.646" /> 
</g>
<g style="fill:#FFFFFF; fill-opacity:1.0; 
stroke:#FFFFFF; stroke-width:7.87402; stroke-opacity:1; 
stroke-linecap:round; stroke-linejoin:round;">
</g>
<g style="fill:#FFFFFF; fill-opacity:1.0; 
stroke:#FFFFFF; stroke-width:0; stroke-opacity:1; 
stroke-linecap:round; stroke-linejoin:round;">
<circle cx="37425" cy="32600" r="334.646" /> 
</g>
<g style="fill:#FFFFFF; fill-opacity:1.0; 
stroke:#FFFFFF; stroke-width:7.87402; stroke-opacity:1; 
stroke-linecap:round; stroke-linejoin:round;">
</g>
<g style="fill:#FFFFFF; fill-opacity:1.0; 
stroke:#FFFFFF; stroke-width:0; stroke-opacity:1; 
stroke-linecap:round; stroke-linejoin:round;">
<circle cx="37350" cy="33350" r="334.646" /> 
</g>
<g style="fill:#FFFFFF; fill-opacity:1.0; 
stroke:#FFFFFF; stroke-width:7.87402; stroke-opacity:1; 
stroke-linecap:round; stroke-linejoin:round;">
</g>
<g style="fill:#FFFFFF; fill-opacity:1.0; 
stroke:#FFFFFF; stroke-width:0; stroke-opacity:1; 
stroke-linecap:round; stroke-linejoin:round;">
<circle cx="35650" cy="37575" r="334.646" /> 
</g>
<g style="fill:#FFFFFF; fill-opacity:1.0; 
stroke:#FFFFFF; stroke-width:7.87402; stroke-opacity:1; 
stroke-linecap:round; stroke-linejoin:round;">
</g>
<g style="fill:#FFFFFF; fill-opacity:1.0; 
stroke:#FFFFFF; stroke-width:0; stroke-opacity:1; 
stroke-linecap:round; stroke-linejoin:round;">
<circle cx="38850" cy="39725" r="334.646" /> 
</g>
<g style="fill:#FFFFFF; fill-opacity:1.0; 
stroke:#FFFFFF; stroke-width:7.87402; stroke-opacity:1; 
stroke-linecap:round; stroke-linejoin:round;">
</g>
<g >
</g>
<g style="fill:#FFFFFF; fill-opacity:1.0; 
stroke:#FFFFFF; stroke-width:7.87402; stroke-opacity:1; 
stroke-linecap:round; stroke-linejoin:round;">
</g>
<g style="fill:#FFFFFF; fill-opacity:1.0; 
stroke:#FFFFFF; stroke-width:196.85; stroke-opacity:1; 
stroke-linecap:round; stroke-linejoin:round;">
</g>
<g style="fill:#FFFFFF; fill-opacity:0.0; 
stroke:#FFFFFF; stroke-width:196.85; stroke-opacity:1; 
stroke-linecap:round; stroke-linejoin:round;">
<path d="M31496 23622
L41338 23622
" />
<path d="M41338 23622
L43307 23622
" />
<path d="M43307 23622
L43307 43307
" />
<path d="M43307 43307
L31496 43307
" />
<path d="M31496 23622
L31496 43307
" />
</g>
<g style="fill:#FFFFFF; fill-opacity:0.0; 
stroke:#FFFFFF; stroke-width:157.48; stroke-opacity:1; 
stroke-linecap:round; stroke-linejoin:round;">
<path d="M34939 39881
L35008 39950
" />
</g>
<g style="fill:#FFFFFF; fill-opacity:0.0; 
stroke:#FFFFFF; stroke-width:196.85; stroke-opacity:1; 
stroke-linecap:round; stroke-linejoin:round;">
<path d="M35018 40050
L35018 39768
" />
<path d="M39244 27036
L39026 27036
" />
<path d="M38377 28579
L38960 28579
" />
<path d="M39244 28295
L39244 27496
" />
<path d="M38960 28579
L39244 28295
" />
<path d="M39244 27496
L39244 27474
" />
<path d="M39244 27474
L38800 27030
" />
<path d="M35222 27030
L34755 27496
" />
<path d="M38800 27030
L35222 27030
" />
</g>
<g style="fill:#FFFFFF; fill-opacity:0.0; 
stroke:#FFFFFF; stroke-width:98.4252; stroke-opacity:1; 
stroke-linecap:round; stroke-linejoin:round;">
<path d="M34996 35026
L34939 34969
" />
<path d="M34996 35160
L34996 35026
" />
</g>
<g style="fill:#FFFFFF; fill-opacity:0.0; 
stroke:#FFFFFF; stroke-width:196.85; stroke-opacity:1; 
stroke-linecap:round; stroke-linejoin:round;">
<path d="M34939 35103
L34996 35160
" />
</g>
<g style="fill:#FFFFFF; fill-opacity:0.0; 
stroke:#FFFFFF; stroke-width:236.22; stroke-opacity:1; 
stroke-linecap:round; stroke-linejoin:round;">
<path d="M34975 34950
L34975 33450
" />
<path d="M35175 33250
L35496 33250
" />
<path d="M34975 33450
L35175 33250
" />
<path d="M34975 31635
L34950 31610
" />
<path d="M35015 32390
L34975 32350
" />
<path d="M35575 32390
L35015 32390
" />
<path d="M34975 32350
L34975 31635
" />
<path d="M35496 33250
L34975 33250
" />
<path d="M34975 33450
L34975 33250
" />
<path d="M34975 33250
L34975 32350
" />
</g>
<g style="fill:#FFFFFF; fill-opacity:0.0; 
stroke:#FFFFFF; stroke-width:196.85; stroke-opacity:1; 
stroke-linecap:round; stroke-linejoin:round;">
<path d="M34929 34995
L34975 34950
" />
<path d="M34929 35625
L34929 34995
" />
<path d="M34929 36120
L34929 35625
" />
<path d="M34840 39600
L34840 36210
" />
<path d="M35018 39778
L34840 39600
" />
<path d="M34840 36210
L34929 36120
" />
<path d="M35018 40050
L35018 39778
" />
</g>
<g style="fill:#FFFFFF; fill-opacity:0.0; 
stroke:#FFFFFF; stroke-width:236.22; stroke-opacity:1; 
stroke-linecap:round; stroke-linejoin:round;">
<path d="M35600 34075
L36150 34075
" />
<path d="M36303 33921
L36303 33250
" />
<path d="M36150 34075
L36303 33921
" />
<path d="M36324 33229
L36303 33250
" />
<path d="M36324 32390
L36324 33229
" />
</g>
<g style="fill:#FFFFFF; fill-opacity:0.0; 
stroke:#FFFFFF; stroke-width:118.11; stroke-opacity:1; 
stroke-linecap:round; stroke-linejoin:round;">
<path d="M36178 36800
L36128 36850
" />
<path d="M36825 36800
L36178 36800
" />
</g>
<g style="fill:#FFFFFF; fill-opacity:0.0; 
stroke:#FFFFFF; stroke-width:137.795; stroke-opacity:1; 
stroke-linecap:round; stroke-linejoin:round;">
<path d="M37425 32600
L37425 31150
" />
<path d="M36796 29650
L36796 30146
" />
<path d="M37217 30942
L37425 31150
" />
<path d="M37217 30567
L37217 30942
" />
<path d="M36796 30146
L37217 30567
" />
<path d="M36575 30450
L36528 30403
" />
<path d="M36528 30403
L36100 30403
" />
<path d="M36875 30750
L36528 30403
" />
<path d="M37350 33350
L37050 33350
" />
<path d="M36875 33175
L36875 30750
" />
<path d="M37050 33350
L36875 33175
" />
</g>
<g style="fill:#FFFFFF; fill-opacity:0.0; 
stroke:#FFFFFF; stroke-width:196.85; stroke-opacity:1; 
stroke-linecap:round; stroke-linejoin:round;">
<path d="M35622 28579
L35622 29497
" />
<path d="M35543 29576
L35040 29576
" />
<path d="M35622 29497
L35543 29576
" />
</g>
<g style="fill:#FFFFFF; fill-opacity:0.0; 
stroke:#FFFFFF; stroke-width:236.22; stroke-opacity:1; 
stroke-linecap:round; stroke-linejoin:round;">
<path d="M38246 29650
L37603 29650
" />
<path d="M37393 28579
L37393 29043
" />
<path d="M37603 29253
L37603 29650
" />
<path d="M37393 29043
L37603 29253
" />
</g>
<g style="fill:#FFFFFF; fill-opacity:0.0; 
stroke:#FFFFFF; stroke-width:196.85; stroke-opacity:1; 
stroke-linecap:round; stroke-linejoin:round;">
<path d="M36606 28579
L36606 28913
" />
</g>
<g style="fill:#FFFFFF; fill-opacity:0.0; 
stroke:#FFFFFF; stroke-width:236.22; stroke-opacity:1; 
stroke-linecap:round; stroke-linejoin:round;">
<path d="M36100 29596
L36100 29400
" />
<path d="M36250 29250
L36350 29250
" />
<path d="M36100 29400
L36250 29250
" />
<path d="M36606 28993
L36606 28579
" />
<path d="M36350 29250
L36606 28993
" />
</g>
<g style="fill:#FFFFFF; fill-opacity:0.0; 
stroke:#FFFFFF; stroke-width:118.11; stroke-opacity:1; 
stroke-linecap:round; stroke-linejoin:round;">
<path d="M36640 39074
L36640 39884
" />
<path d="M36475 40050
L36121 40050
" />
<path d="M36640 39884
L36475 40050
" />
<path d="M35321 36850
L35321 37178
" />
<path d="M35321 37178
L35125 37375
" />
<path d="M35125 37375
L35125 38525
" />
<path d="M35300 38700
L35459 38700
" />
<path d="M35125 38525
L35300 38700
" />
<path d="M37128 37625
L37128 38296
" />
<path d="M37099 38325
L36640 38325
" />
<path d="M37128 38296
L37099 38325
" />
</g>
<g style="fill:#FFFFFF; fill-opacity:0.0; 
stroke:#FFFFFF; stroke-width:196.85; stroke-opacity:1; 
stroke-linecap:round; stroke-linejoin:round;">
<path d="M35700 37625
L35650 37575
" />
<path d="M36321 37625
L35700 37625
" />
<path d="M38830 39620
L38830 40580
" />
<path d="M38510 40900
L37090 40900
" />
<path d="M38830 40580
L38510 40900
" />
</g>
<g style="fill:#FFFFFF; fill-opacity:0.0; 
stroke:#FFFFFF; stroke-width:236.22; stroke-opacity:1; 
stroke-linecap:round; stroke-linejoin:round;">
<path d="M35730 30989
L35950 31209
" />
<path d="M34950 30989
L35730 30989
" />
<path d="M34950 30473
L35040 30383
" />
<path d="M34950 30989
L34950 30473
" />
</g>
<g >
</g>
<g style="fill:#FFFFFF; fill-opacity:0.0; 
stroke:#FFFFFF; stroke-width:236.22; stroke-opacity:1; 
stroke-linecap:round; stroke-linejoin:round;">
</g>
<g style="fill:#FFFFFF; fill-opacity:1.0; 
stroke:#FFFFFF; stroke-width:100; stroke-opacity:1; 
stroke-linecap:round; stroke-linejoin:round;">
<path style="fill:#FFFFFF; fill-opacity:1.0; 
stroke:#FFFFFF; stroke-width:100; stroke-opacity:1; 
stroke-linecap:round; stroke-linejoin:round;fill-rule:evenodd;"
d="M 39326.3,29127.8
39279.9,29123.2
39166,29124.4
39103.5,29186.9
39103.5,29600
39111.4,29600
39111.4,29700
39103.5,29700
39103.5,30113.1
39166,30175.6
39279.9,30176.8
39324.9,30172.4
39312.6,39365
39304.1,39352.3
39222.7,39270.9
39126.9,39206.9
39020.5,39162.8
38907.6,39140.4
38792.4,39140.4
38679.5,39162.8
38573.1,39206.9
38477.3,39270.9
38395.9,39352.3
38331.9,39448.1
38287.8,39554.5
38265.4,39667.4
38265.4,39782.6
38287.8,39895.5
38331.9,40001.9
38395.9,40097.7
38477.3,40179.1
38481.6,40182
38481.6,40435.7
38365.7,40551.6
37927,40551.6
37926.9,40551
37912.6,40503.9
37889.4,40460.4
37858.2,40422.4
37820.1,40391.1
37776.7,40367.9
37729.6,40353.6
37680.6,40348.8
36618.5,40348.8
36618.5,40323.8
36647.5,40308.2
36694.6,40269.6
36704.3,40257.8
36848.3,40113.7
36860.1,40104
36898.8,40057
36927.5,40003.3
36936.6,39973.3
36945.1,39945
36948.3,39912.8
36949.6,39899.6
36949.6,39899.6
36951.1,39884.4
36949.6,39869.3
36949.6,39482.7
37014.6,39482.7
37063.6,39477.9
37110.7,39463.6
37154.1,39440.4
37192.2,39409.1
37223.4,39371.1
37246.7,39327.6
37260.9,39280.5
37265.8,39231.5
37265.8,38916.5
37260.9,38867.5
37246.7,38820.4
37223.4,38777
37192.2,38738.9
37154.1,38707.7
37139.8,38700
37154.1,38692.3
37192.2,38661.1
37223.4,38623
37233.3,38604.7
37271.5,38584.2
37318.6,38545.6
37328.3,38533.8
37336.3,38525.7
37348.1,38516
37386.8,38469
37415.5,38415.3
37433.1,38357
37437.6,38311.6
37437.6,38311.6
37439.1,38296.5
37437.6,38281.3
37437.6,38099.9
37450.7,38092.9
37503.7,38049.4
37547.2,37996.4
37579.5,37936
37599.4,37870.4
37606.1,37802.2
37606.1,37447.8
37599.4,37379.6
37579.5,37314
37547.2,37253.6
37503.7,37200.6
37450.7,37157.1
37390.3,37124.8
37324.7,37104.9
37256.5,37098.2
37000.6,37098.2
36932.4,37104.9
36866.8,37124.8
36806.3,37157.1
36753.4,37200.6
36725,37235.2
36696.6,37200.6
36643.7,37157.1
36605.1,37136.5
36606.1,37125.6
36604.9,36962.5
36542.4,36900
36178.5,36900
36178.5,36907.9
36078.5,36907.9
36078.5,36900
36070.7,36900
36070.7,36800
36078.5,36800
36078.5,36386.9
36178.5,36386.9
36178.5,36800
36542.4,36800
36604.9,36737.5
36606.1,36574.4
36601.3,36525.4
36587,36478.3
36563.8,36434.8
36532.6,36396.8
36494.5,36365.5
36451.1,36342.3
36403.9,36328
36354.9,36323.2
36241,36324.4
36178.5,36386.9
36078.5,36386.9
36016,36324.4
35902.2,36323.2
35853.2,36328
35806,36342.3
35762.6,36365.5
35724.5,36396.8
35698.8,36428.2
35696.6,36425.6
35643.7,36382.1
35583.2,36349.8
35517.6,36329.9
35449.4,36323.2
35214,36323.2
35221,36314.6
35253.4,36254.1
35273.3,36188.4
35278.3,36137.2
35278.3,36137.2
35280,36120.1
35278.3,36103
35278.3,36042.3
35281.6,36044.1
35328.7,36058.4
35377.8,36063.2
35437.5,36062
35500,35999.5
35500,35675
35600,35675
35600,35999.5
35662.5,36062
35722.2,36063.2
35771.3,36058.4
35818.4,36044.1
35861.8,36020.9
35899.9,35989.6
35931.1,35951.6
35954.3,35908.1
35968.6,35861
35973.5,35812
35972.2,35737.5
35909.7,35675
35600,35675
35500,35675
35492.1,35675
35492.1,35575
35500,35575
35500,35250.5
35600,35250.5
35600,35575
35909.7,35575
35972.2,35512.5
35973.5,35438
35968.6,35389
35954.3,35341.9
35931.1,35298.4
35899.9,35260.4
35861.8,35229.1
35818.4,35205.9
35771.3,35191.6
35722.2,35186.8
35662.5,35188
35600,35250.5
35500,35250.5
35486.4,35236.9
35493.1,35226.9
35537.2,35120.5
35559.6,35007.6
35559.6,34892.4
35537.2,34779.5
35493.1,34673.1
35429.1,34577.3
35347.7,34495.9
35343.1,34492.8
35343.1,33774.3
35368.5,33776.8
35624.4,33776.8
35692.6,33770.1
35758.2,33750.2
35818.7,33717.9
35871.6,33674.4
35873.8,33671.8
35899.5,33703.2
35937.6,33734.5
35981,33757.7
36028.2,33772
36077.2,33776.8
36191,33775.6
36253.5,33713.1
36253.5,33300
36245.7,33300
36245.7,33200
36253.5,33200
36253.5,32972.5
36274,32952.1
36274,32440.6
36266.1,32440.6
36266.1,32340.6
36274,32340.6
36274,31829
36240.7,31795.7
36247,31792.3
36285.1,31761.1
36316.4,31723
36339.6,31679.6
36353.9,31632.5
36358.7,31583.5
36358.7,30870.4
36411,30854.5
36471.4,30822.2
36485,30811
36556.1,30882.1
36556.1,31777.9
36530.5,31770.2
36481.5,31765.3
36436.5,31766.5
36374,31829
36374,32340.6
36381.9,32340.6
36381.9,32440.6
36374,32440.6
36374,32766.4
36353.5,32786.9
36353.5,33200
36361.4,33200
36361.4,33300
36353.5,33300
36353.5,33713.1
36416,33775.6
36529.9,33776.8
36578.9,33772
36626.1,33757.7
36669.5,33734.5
36707.6,33703.2
36738.8,33665.2
36762,33621.7
36776.3,33574.6
36780.5,33531.5
36800.7,33551.7
36831.9,33626.9
36895.9,33722.7
36977.3,33804.1
37073.1,33868.1
37179.5,33912.2
37292.4,33934.6
37407.6,33934.6
37520.5,33912.2
37626.9,33868.1
37722.7,33804.1
37804.1,33722.7
37868.1,33626.9
37912.2,33520.5
37934.6,33407.6
37934.6,33292.4
37912.2,33179.5
37868.1,33073.1
37832.3,33019.5
37879.1,32972.7
37943.1,32876.9
37987.2,32770.5
38009.6,32657.6
38009.6,32542.4
37987.2,32429.5
37943.1,32323.1
37879.1,32227.3
37797.7,32145.9
37743.9,32109.9
37743.9,31165.7
37745.4,31150
37742.6,31120.7
37739.3,31087.5
37721,31027.4
37699.2,30986.6
37691.4,30972
37679.2,30957.1
37651.6,30923.4
37639.4,30913.4
37536.6,30810.6
37536.6,30583.4
37538.2,30567.7
37536.6,30552.1
37532,30505.2
37513.8,30445.1
37500,30419.3
37484.2,30389.7
37460.5,30360.9
37444.3,30341.1
37432.1,30331.1
37173.3,30072.3
37200,30039.8
37228.4,30074.4
37281.3,30117.9
37341.8,30150.2
37407.4,30170.1
37475.6,30176.8
37731.5,30176.8
37799.7,30170.1
37865.3,30150.2
37925,30118.3
37984.7,30150.2
38050.3,30170.1
38118.5,30176.8
38374.4,30176.8
38442.6,30170.1
38508.2,30150.2
38568.7,30117.9
38621.6,30074.4
38623.8,30071.8
38649.5,30103.2
38687.6,30134.5
38731,30157.7
38778.2,30172
38827.2,30176.8
38941,30175.6
39003.5,30113.1
39003.5,29700
38995.7,29700
38995.7,29600
39003.5,29600
39003.5,29186.9
38941,29124.4
38840,29123.3
38840.9,29120.3
38845.7,29071.3
38845.7,28927.6
38943.7,28927.6
38960.8,28929.3
38977.9,28927.6
38977.9,28927.6
39029.1,28922.6
39094.8,28902.7
39155.3,28870.3
39208.4,28826.8
39219.3,28813.5
39326.9,28705.9
Z" /> 
</g>
</g>
<g style="fill:#000000; fill-opacity:1.0; 
stroke:#000000; stroke-width:100; stroke-opacity:1; 
stroke-linecap:round; stroke-linejoin:round;">
</g>
<g style="fill:#000000; fill-opacity:1.0; 
stroke:#000000; stroke-width:0; stroke-opacity:1; 
stroke-linecap:round; stroke-linejoin:round;">
<circle cx="34975" cy="34950" r="68.8976" /> 
</g>
<g style="fill:#000000; fill-opacity:1.0; 
stroke:#000000; stroke-width:7.87402; stroke-opacity:1; 
stroke-linecap:round; stroke-linejoin:round;">
</g>
<g style="fill:#000000; fill-opacity:1.0; 
stroke:#000000; stroke-width:0; stroke-opacity:1; 
stroke-linecap:round; stroke-linejoin:round;">
<circle cx="37700" cy="30400" r="68.8976" /> 
</g>
<g style="fill:#000000; fill-opacity:1.0; 
stroke:#000000; stroke-width:7.87402; stroke-opacity:1; 
stroke-linecap:round; stroke-linejoin:round;">
</g>
<g style="fill:#000000; fill-opacity:1.0; 
stroke:#000000; stroke-width:0; stroke-opacity:1; 
stroke-linecap:round; stroke-linejoin:round;">
<circle cx="39025" cy="37550" r="68.8976" /> 
</g>
<g style="fill:#000000; fill-opacity:1.0; 
stroke:#000000; stroke-width:7.87402; stroke-opacity:1; 
stroke-linecap:round; stroke-linejoin:round;">
</g>
<g style="fill:#000000; fill-opacity:1.0; 
stroke:#000000; stroke-width:0; stroke-opacity:1; 
stroke-linecap:round; stroke-linejoin:round;">
<circle cx="36825" cy="36800" r="68.8976" /> 
</g>
<g style="fill:#000000; fill-opacity:1.0; 
stroke:#000000; stroke-width:7.87402; stroke-opacity:1; 
stroke-linecap:round; stroke-linejoin:round;">
</g>
<g style="fill:#000000; fill-opacity:1.0; 
stroke:#000000; stroke-width:0; stroke-opacity:1; 
stroke-linecap:round; stroke-linejoin:round;">
<circle cx="35600" cy="34075" r="68.8976" /> 
</g>
<g style="fill:#000000; fill-opacity:1.0; 
stroke:#000000; stroke-width:7.87402; stroke-opacity:1; 
stroke-linecap:round; stroke-linejoin:round;">
</g>
<g style="fill:#000000; fill-opacity:1.0; 
stroke:#000000; stroke-width:0; stroke-opacity:1; 
stroke-linecap:round; stroke-linejoin:round;">
<circle cx="39000" cy="34125" r="68.8976" /> 
</g>
<g style="fill:#000000; fill-opacity:1.0; 
stroke:#000000; stroke-width:7.87402; stroke-opacity:1; 
stroke-linecap:round; stroke-linejoin:round;">
</g>
<g style="fill:#000000; fill-opacity:1.0; 
stroke:#000000; stroke-width:0; stroke-opacity:1; 
stroke-linecap:round; stroke-linejoin:round;">
<circle cx="37425" cy="32600" r="68.8976" /> 
</g>
<g style="fill:#000000; fill-opacity:1.0; 
stroke:#000000; stroke-width:7.87402; stroke-opacity:1; 
stroke-linecap:round; stroke-linejoin:round;">
</g>
<g style="fill:#000000; fill-opacity:1.0; 
stroke:#000000; stroke-width:0; stroke-opacity:1; 
stroke-linecap:round; stroke-linejoin:round;">
<circle cx="37350" cy="33350" r="68.8976" /> 
</g>
<g style="fill:#000000; fill-opacity:1.0; 
stroke:#000000; stroke-width:7.87402; stroke-opacity:1; 
stroke-linecap:round; stroke-linejoin:round;">
</g>
<g style="fill:#000000; fill-opacity:1.0; 
stroke:#000000; stroke-width:0; stroke-opacity:1; 
stroke-linecap:round; stroke-linejoin:round;">
<circle cx="35650" cy="37575" r="68.8976" /> 
</g>
<g style="fill:#000000; fill-opacity:1.0; 
stroke:#000000; stroke-width:7.87402; stroke-opacity:1; 
stroke-linecap:round; stroke-linejoin:round;">
</g>
<g style="fill:#000000; fill-opacity:1.0; 
stroke:#000000; stroke-width:0; stroke-opacity:1; 
stroke-linecap:round; stroke-linejoin:round;">
<circle cx="38850" cy="39725" r="68.8976" /> 
</g>
<g style="fill:#000000; fill-opacity:1.0; 
stroke:#000000; stroke-width:7.87402; stroke-opacity:1; 
stroke-linecap:round; stroke-linejoin:round;">
</g>
<g style="fill:#000000; fill-opacity:1.0; 
stroke:#000000; stroke-width:0; stroke-opacity:1; 
stroke-linecap:round; stroke-linejoin:round;">
<circle cx="37905.5" cy="27496.5" r="68.8976" /> 
</g>
<g style="fill:#000000; fill-opacity:1.0; 
stroke:#000000; stroke-width:7.87402; stroke-opacity:1; 
stroke-linecap:round; stroke-linejoin:round;">
</g>
<g style="fill:#000000; fill-opacity:1.0; 
stroke:#000000; stroke-width:0; stroke-opacity:1; 
stroke-linecap:round; stroke-linejoin:round;">
<circle cx="36094.5" cy="27496.5" r="68.8976" /> 
</g>
<g style="fill:#000000; fill-opacity:1.0; 
stroke:#000000; stroke-width:7.87402; stroke-opacity:1; 
stroke-linecap:round; stroke-linejoin:round;">
</g>
<g style="fill:#000000; fill-opacity:1.0; 
stroke:#000000; stroke-width:354.331; stroke-opacity:1; 
stroke-linecap:round; stroke-linejoin:round;">
</g>
<g style="fill:#000000; fill-opacity:0.0; 
stroke:#000000; stroke-width:354.331; stroke-opacity:1; 
stroke-linecap:round; stroke-linejoin:round;">
<path d="M39244 27811
L39244 27181
" />
<path d="M34755 27811
L34755 27181
" />
</g>
<g style="fill:#FFFFFF; fill-opacity:0.0; 
stroke:#FFFFFF; stroke-width:354.331; stroke-opacity:1; 
stroke-linecap:round; stroke-linejoin:round;">
</g> 
</svg>
