<?xml version="1.0" standalone="no"?>
 <!DOCTYPE svg PUBLIC "-//W3C//DTD SVG 1.1//EN" 
 "http://www.w3.org/Graphics/SVG/1.1/DTD/svg11.dtd"> 
<svg
  xmlns:svg="http://www.w3.org/2000/svg"
  xmlns="http://www.w3.org/2000/svg"
  xmlns:xlink="http://www.w3.org/1999/xlink"
  version="1.1"
  width="29.700220cm" height="21.000720cm" viewBox="0 0 116930 82680">
<title>SVG Picture created as clock-B_Cu.svg date 2020/07/31 23:28:52 </title>
  <desc>Picture generated by PCBNEW </desc>
<g style="fill:#000000; fill-opacity:1;stroke:#000000; stroke-opacity:1;
stroke-linecap:round; stroke-linejoin:round;"
 transform="translate(0 0) scale(1 1)">
</g>
<g style="fill:#000000; fill-opacity:0.0; 
stroke:#000000; stroke-width:-0.000393701; stroke-opacity:1; 
stroke-linecap:round; stroke-linejoin:round;">
</g>
<g style="fill:#000000; fill-opacity:1.0; 
stroke:#000000; stroke-width:7.87402; stroke-opacity:1; 
stroke-linecap:round; stroke-linejoin:round;">
<rect x="29429.1" y="18313.5" width="15944.9" height="28381.4" rx="0" />
</g>
<g style="fill:#FFFFFF; fill-opacity:1.0; 
stroke:#FFFFFF; stroke-width:7.87402; stroke-opacity:1; 
stroke-linecap:round; stroke-linejoin:round;">
<g >
</g>
<g style="fill:#FFFFFF; fill-opacity:1.0; 
stroke:#FFFFFF; stroke-width:0; stroke-opacity:1; 
stroke-linecap:round; stroke-linejoin:round;">
<path style="fill:#FFFFFF; fill-opacity:1.0; 
stroke:#FFFFFF; stroke-width:0; stroke-opacity:1; 
stroke-linecap:round; stroke-linejoin:round;fill-rule:evenodd;"
d="M 36190.4,38902.6
36190.4,39847.4
35403,39847.4
35403,38902.6
Z" /> 
<path style="fill:#FFFFFF; fill-opacity:1.0; 
stroke:#FFFFFF; stroke-width:0; stroke-opacity:1; 
stroke-linecap:round; stroke-linejoin:round;fill-rule:evenodd;"
d="M 37647,38902.6
37647,39847.4
36859.6,39847.4
36859.6,38902.6
Z" /> 
</g>
<g >
</g>
<g >
</g>
<g style="fill:#FFFFFF; fill-opacity:1.0; 
stroke:#FFFFFF; stroke-width:0; stroke-opacity:1; 
stroke-linecap:round; stroke-linejoin:round;">
<path style="fill:#FFFFFF; fill-opacity:1.0; 
stroke:#FFFFFF; stroke-width:0; stroke-opacity:1; 
stroke-linecap:round; stroke-linejoin:round;fill-rule:evenodd;"
d="M 35822.1,32129.9
35822.1,30870.1
35987.5,30870.1
35987.5,32129.9
Z" /> 
<path style="fill:#FFFFFF; fill-opacity:1.0; 
stroke:#FFFFFF; stroke-width:0; stroke-opacity:1; 
stroke-linecap:round; stroke-linejoin:round;fill-rule:evenodd;"
d="M 36074.1,32129.9
36074.1,30870.1
36239.4,30870.1
36239.4,32129.9
Z" /> 
<path style="fill:#FFFFFF; fill-opacity:1.0; 
stroke:#FFFFFF; stroke-width:0; stroke-opacity:1; 
stroke-linecap:round; stroke-linejoin:round;fill-rule:evenodd;"
d="M 36326.1,32129.9
36326.1,30870.1
36491.4,30870.1
36491.4,32129.9
Z" /> 
<path style="fill:#FFFFFF; fill-opacity:1.0; 
stroke:#FFFFFF; stroke-width:0; stroke-opacity:1; 
stroke-linecap:round; stroke-linejoin:round;fill-rule:evenodd;"
d="M 36578,32129.9
36578,30870.1
36743.4,30870.1
36743.4,32129.9
Z" /> 
<path style="fill:#FFFFFF; fill-opacity:1.0; 
stroke:#FFFFFF; stroke-width:0; stroke-opacity:1; 
stroke-linecap:round; stroke-linejoin:round;fill-rule:evenodd;"
d="M 36830,32129.9
36830,30870.1
36995.4,30870.1
36995.4,32129.9
Z" /> 
<path style="fill:#FFFFFF; fill-opacity:1.0; 
stroke:#FFFFFF; stroke-width:0; stroke-opacity:1; 
stroke-linecap:round; stroke-linejoin:round;fill-rule:evenodd;"
d="M 37082,32129.9
37082,30870.1
37247.3,30870.1
37247.3,32129.9
Z" /> 
<path style="fill:#FFFFFF; fill-opacity:1.0; 
stroke:#FFFFFF; stroke-width:0; stroke-opacity:1; 
stroke-linecap:round; stroke-linejoin:round;fill-rule:evenodd;"
d="M 37333.9,32129.9
37333.9,30870.1
37499.3,30870.1
37499.3,32129.9
Z" /> 
<path style="fill:#FFFFFF; fill-opacity:1.0; 
stroke:#FFFFFF; stroke-width:0; stroke-opacity:1; 
stroke-linecap:round; stroke-linejoin:round;fill-rule:evenodd;"
d="M 39097.7,32129.9
39097.7,30870.1
39263.1,30870.1
39263.1,32129.9
Z" /> 
<path style="fill:#FFFFFF; fill-opacity:1.0; 
stroke:#FFFFFF; stroke-width:0; stroke-opacity:1; 
stroke-linecap:round; stroke-linejoin:round;fill-rule:evenodd;"
d="M 38845.7,32129.9
38845.7,30870.1
39011.1,30870.1
39011.1,32129.9
Z" /> 
<path style="fill:#FFFFFF; fill-opacity:1.0; 
stroke:#FFFFFF; stroke-width:0; stroke-opacity:1; 
stroke-linecap:round; stroke-linejoin:round;fill-rule:evenodd;"
d="M 38593.8,32129.9
38593.8,30870.1
38759.1,30870.1
38759.1,32129.9
Z" /> 
<path style="fill:#FFFFFF; fill-opacity:1.0; 
stroke:#FFFFFF; stroke-width:0; stroke-opacity:1; 
stroke-linecap:round; stroke-linejoin:round;fill-rule:evenodd;"
d="M 38341.8,32129.9
38341.8,30870.1
38507.2,30870.1
38507.2,32129.9
Z" /> 
<path style="fill:#FFFFFF; fill-opacity:1.0; 
stroke:#FFFFFF; stroke-width:0; stroke-opacity:1; 
stroke-linecap:round; stroke-linejoin:round;fill-rule:evenodd;"
d="M 38089.8,32129.9
38089.8,30870.1
38255.2,30870.1
38255.2,32129.9
Z" /> 
<path style="fill:#FFFFFF; fill-opacity:1.0; 
stroke:#FFFFFF; stroke-width:0; stroke-opacity:1; 
stroke-linecap:round; stroke-linejoin:round;fill-rule:evenodd;"
d="M 37837.9,32129.9
37837.9,30870.1
38003.2,30870.1
38003.2,32129.9
Z" /> 
<path style="fill:#FFFFFF; fill-opacity:1.0; 
stroke:#FFFFFF; stroke-width:0; stroke-opacity:1; 
stroke-linecap:round; stroke-linejoin:round;fill-rule:evenodd;"
d="M 37585.9,32129.9
37585.9,30870.1
37751.3,30870.1
37751.3,32129.9
Z" /> 
</g>
<g >
</g>
<g style="fill:#FFFFFF; fill-opacity:1.0; 
stroke:#FFFFFF; stroke-width:0; stroke-opacity:1; 
stroke-linecap:round; stroke-linejoin:round;">
<path style="fill:#FFFFFF; fill-opacity:1.0; 
stroke:#FFFFFF; stroke-width:0; stroke-opacity:1; 
stroke-linecap:round; stroke-linejoin:round;fill-rule:evenodd;"
d="M 36499.4,41200
36499.4,40600
37680.6,40600
37680.6,41200
Z" /> 
</g>
<g >
</g>
<g style="fill:#FFFFFF; fill-opacity:1.0; 
stroke:#FFFFFF; stroke-width:0; stroke-opacity:1; 
stroke-linecap:round; stroke-linejoin:round;">
<path style="fill:#FFFFFF; fill-opacity:1.0; 
stroke:#FFFFFF; stroke-width:0; stroke-opacity:1; 
stroke-linecap:round; stroke-linejoin:round;fill-rule:evenodd;"
d="M 38776.7,36981.9
38776.7,36883.5
39288.5,36883.5
39288.5,36981.9
Z" /> 
<path style="fill:#FFFFFF; fill-opacity:1.0; 
stroke:#FFFFFF; stroke-width:0; stroke-opacity:1; 
stroke-linecap:round; stroke-linejoin:round;fill-rule:evenodd;"
d="M 38776.7,36785
38776.7,36686.6
39288.5,36686.6
39288.5,36785
Z" /> 
<path style="fill:#FFFFFF; fill-opacity:1.0; 
stroke:#FFFFFF; stroke-width:0; stroke-opacity:1; 
stroke-linecap:round; stroke-linejoin:round;fill-rule:evenodd;"
d="M 38776.7,36588.2
38776.7,36489.8
39288.5,36489.8
39288.5,36588.2
Z" /> 
<path style="fill:#FFFFFF; fill-opacity:1.0; 
stroke:#FFFFFF; stroke-width:0; stroke-opacity:1; 
stroke-linecap:round; stroke-linejoin:round;fill-rule:evenodd;"
d="M 38776.7,36391.3
38776.7,36292.9
39288.5,36292.9
39288.5,36391.3
Z" /> 
<path style="fill:#FFFFFF; fill-opacity:1.0; 
stroke:#FFFFFF; stroke-width:0; stroke-opacity:1; 
stroke-linecap:round; stroke-linejoin:round;fill-rule:evenodd;"
d="M 38776.7,36194.5
38776.7,36096.1
39288.5,36096.1
39288.5,36194.5
Z" /> 
<path style="fill:#FFFFFF; fill-opacity:1.0; 
stroke:#FFFFFF; stroke-width:0; stroke-opacity:1; 
stroke-linecap:round; stroke-linejoin:round;fill-rule:evenodd;"
d="M 38776.7,35997.6
38776.7,35899.2
39288.5,35899.2
39288.5,35997.6
Z" /> 
<path style="fill:#FFFFFF; fill-opacity:1.0; 
stroke:#FFFFFF; stroke-width:0; stroke-opacity:1; 
stroke-linecap:round; stroke-linejoin:round;fill-rule:evenodd;"
d="M 38776.7,35800.8
38776.7,35702.4
39288.5,35702.4
39288.5,35800.8
Z" /> 
<path style="fill:#FFFFFF; fill-opacity:1.0; 
stroke:#FFFFFF; stroke-width:0; stroke-opacity:1; 
stroke-linecap:round; stroke-linejoin:round;fill-rule:evenodd;"
d="M 38776.7,35603.9
38776.7,35505.5
39288.5,35505.5
39288.5,35603.9
Z" /> 
<path style="fill:#FFFFFF; fill-opacity:1.0; 
stroke:#FFFFFF; stroke-width:0; stroke-opacity:1; 
stroke-linecap:round; stroke-linejoin:round;fill-rule:evenodd;"
d="M 38776.7,35407.1
38776.7,35308.7
39288.5,35308.7
39288.5,35407.1
Z" /> 
<path style="fill:#FFFFFF; fill-opacity:1.0; 
stroke:#FFFFFF; stroke-width:0; stroke-opacity:1; 
stroke-linecap:round; stroke-linejoin:round;fill-rule:evenodd;"
d="M 38776.7,35210.2
38776.7,35111.8
39288.5,35111.8
39288.5,35210.2
Z" /> 
<path style="fill:#FFFFFF; fill-opacity:1.0; 
stroke:#FFFFFF; stroke-width:0; stroke-opacity:1; 
stroke-linecap:round; stroke-linejoin:round;fill-rule:evenodd;"
d="M 38776.7,35013.4
38776.7,34915
39288.5,34915
39288.5,35013.4
Z" /> 
<path style="fill:#FFFFFF; fill-opacity:1.0; 
stroke:#FFFFFF; stroke-width:0; stroke-opacity:1; 
stroke-linecap:round; stroke-linejoin:round;fill-rule:evenodd;"
d="M 38776.7,34816.5
38776.7,34718.1
39288.5,34718.1
39288.5,34816.5
Z" /> 
<path style="fill:#FFFFFF; fill-opacity:1.0; 
stroke:#FFFFFF; stroke-width:0; stroke-opacity:1; 
stroke-linecap:round; stroke-linejoin:round;fill-rule:evenodd;"
d="M 38451.9,34393.3
38353.5,34393.3
38353.5,33881.5
38451.9,33881.5
Z" /> 
<path style="fill:#FFFFFF; fill-opacity:1.0; 
stroke:#FFFFFF; stroke-width:0; stroke-opacity:1; 
stroke-linecap:round; stroke-linejoin:round;fill-rule:evenodd;"
d="M 38255,34393.3
38156.6,34393.3
38156.6,33881.5
38255,33881.5
Z" /> 
<path style="fill:#FFFFFF; fill-opacity:1.0; 
stroke:#FFFFFF; stroke-width:0; stroke-opacity:1; 
stroke-linecap:round; stroke-linejoin:round;fill-rule:evenodd;"
d="M 38058.2,34393.3
37959.8,34393.3
37959.8,33881.5
38058.2,33881.5
Z" /> 
<path style="fill:#FFFFFF; fill-opacity:1.0; 
stroke:#FFFFFF; stroke-width:0; stroke-opacity:1; 
stroke-linecap:round; stroke-linejoin:round;fill-rule:evenodd;"
d="M 37861.3,34393.3
37762.9,34393.3
37762.9,33881.5
37861.3,33881.5
Z" /> 
<path style="fill:#FFFFFF; fill-opacity:1.0; 
stroke:#FFFFFF; stroke-width:0; stroke-opacity:1; 
stroke-linecap:round; stroke-linejoin:round;fill-rule:evenodd;"
d="M 37664.5,34393.3
37566.1,34393.3
37566.1,33881.5
37664.5,33881.5
Z" /> 
<path style="fill:#FFFFFF; fill-opacity:1.0; 
stroke:#FFFFFF; stroke-width:0; stroke-opacity:1; 
stroke-linecap:round; stroke-linejoin:round;fill-rule:evenodd;"
d="M 37467.6,34393.3
37369.2,34393.3
37369.2,33881.5
37467.6,33881.5
Z" /> 
<path style="fill:#FFFFFF; fill-opacity:1.0; 
stroke:#FFFFFF; stroke-width:0; stroke-opacity:1; 
stroke-linecap:round; stroke-linejoin:round;fill-rule:evenodd;"
d="M 37270.8,34393.3
37172.4,34393.3
37172.4,33881.5
37270.8,33881.5
Z" /> 
<path style="fill:#FFFFFF; fill-opacity:1.0; 
stroke:#FFFFFF; stroke-width:0; stroke-opacity:1; 
stroke-linecap:round; stroke-linejoin:round;fill-rule:evenodd;"
d="M 37073.9,34393.3
36975.5,34393.3
36975.5,33881.5
37073.9,33881.5
Z" /> 
<path style="fill:#FFFFFF; fill-opacity:1.0; 
stroke:#FFFFFF; stroke-width:0; stroke-opacity:1; 
stroke-linecap:round; stroke-linejoin:round;fill-rule:evenodd;"
d="M 36877.1,34393.3
36778.7,34393.3
36778.7,33881.5
36877.1,33881.5
Z" /> 
<path style="fill:#FFFFFF; fill-opacity:1.0; 
stroke:#FFFFFF; stroke-width:0; stroke-opacity:1; 
stroke-linecap:round; stroke-linejoin:round;fill-rule:evenodd;"
d="M 36680.2,34393.3
36581.8,34393.3
36581.8,33881.5
36680.2,33881.5
Z" /> 
<path style="fill:#FFFFFF; fill-opacity:1.0; 
stroke:#FFFFFF; stroke-width:0; stroke-opacity:1; 
stroke-linecap:round; stroke-linejoin:round;fill-rule:evenodd;"
d="M 36483.4,34393.3
36385,34393.3
36385,33881.5
36483.4,33881.5
Z" /> 
<path style="fill:#FFFFFF; fill-opacity:1.0; 
stroke:#FFFFFF; stroke-width:0; stroke-opacity:1; 
stroke-linecap:round; stroke-linejoin:round;fill-rule:evenodd;"
d="M 36286.5,34393.3
36188.1,34393.3
36188.1,33881.5
36286.5,33881.5
Z" /> 
<path style="fill:#FFFFFF; fill-opacity:1.0; 
stroke:#FFFFFF; stroke-width:0; stroke-opacity:1; 
stroke-linecap:round; stroke-linejoin:round;fill-rule:evenodd;"
d="M 35351.5,34816.5
35351.5,34718.1
35863.3,34718.1
35863.3,34816.5
Z" /> 
<path style="fill:#FFFFFF; fill-opacity:1.0; 
stroke:#FFFFFF; stroke-width:0; stroke-opacity:1; 
stroke-linecap:round; stroke-linejoin:round;fill-rule:evenodd;"
d="M 35351.5,35013.4
35351.5,34915
35863.3,34915
35863.3,35013.4
Z" /> 
<path style="fill:#FFFFFF; fill-opacity:1.0; 
stroke:#FFFFFF; stroke-width:0; stroke-opacity:1; 
stroke-linecap:round; stroke-linejoin:round;fill-rule:evenodd;"
d="M 35351.5,35210.2
35351.5,35111.8
35863.3,35111.8
35863.3,35210.2
Z" /> 
<path style="fill:#FFFFFF; fill-opacity:1.0; 
stroke:#FFFFFF; stroke-width:0; stroke-opacity:1; 
stroke-linecap:round; stroke-linejoin:round;fill-rule:evenodd;"
d="M 35351.5,35407.1
35351.5,35308.7
35863.3,35308.7
35863.3,35407.1
Z" /> 
<path style="fill:#FFFFFF; fill-opacity:1.0; 
stroke:#FFFFFF; stroke-width:0; stroke-opacity:1; 
stroke-linecap:round; stroke-linejoin:round;fill-rule:evenodd;"
d="M 35351.5,35603.9
35351.5,35505.5
35863.3,35505.5
35863.3,35603.9
Z" /> 
<path style="fill:#FFFFFF; fill-opacity:1.0; 
stroke:#FFFFFF; stroke-width:0; stroke-opacity:1; 
stroke-linecap:round; stroke-linejoin:round;fill-rule:evenodd;"
d="M 35351.5,35800.8
35351.5,35702.4
35863.3,35702.4
35863.3,35800.8
Z" /> 
<path style="fill:#FFFFFF; fill-opacity:1.0; 
stroke:#FFFFFF; stroke-width:0; stroke-opacity:1; 
stroke-linecap:round; stroke-linejoin:round;fill-rule:evenodd;"
d="M 35351.5,35997.6
35351.5,35899.2
35863.3,35899.2
35863.3,35997.6
Z" /> 
<path style="fill:#FFFFFF; fill-opacity:1.0; 
stroke:#FFFFFF; stroke-width:0; stroke-opacity:1; 
stroke-linecap:round; stroke-linejoin:round;fill-rule:evenodd;"
d="M 35351.5,36194.5
35351.5,36096.1
35863.3,36096.1
35863.3,36194.5
Z" /> 
<path style="fill:#FFFFFF; fill-opacity:1.0; 
stroke:#FFFFFF; stroke-width:0; stroke-opacity:1; 
stroke-linecap:round; stroke-linejoin:round;fill-rule:evenodd;"
d="M 35351.5,36391.3
35351.5,36292.9
35863.3,36292.9
35863.3,36391.3
Z" /> 
<path style="fill:#FFFFFF; fill-opacity:1.0; 
stroke:#FFFFFF; stroke-width:0; stroke-opacity:1; 
stroke-linecap:round; stroke-linejoin:round;fill-rule:evenodd;"
d="M 35351.5,36588.2
35351.5,36489.8
35863.3,36489.8
35863.3,36588.2
Z" /> 
<path style="fill:#FFFFFF; fill-opacity:1.0; 
stroke:#FFFFFF; stroke-width:0; stroke-opacity:1; 
stroke-linecap:round; stroke-linejoin:round;fill-rule:evenodd;"
d="M 35351.5,36785
35351.5,36686.6
35863.3,36686.6
35863.3,36785
Z" /> 
<path style="fill:#FFFFFF; fill-opacity:1.0; 
stroke:#FFFFFF; stroke-width:0; stroke-opacity:1; 
stroke-linecap:round; stroke-linejoin:round;fill-rule:evenodd;"
d="M 35351.5,36981.9
35351.5,36883.5
35863.3,36883.5
35863.3,36981.9
Z" /> 
<path style="fill:#FFFFFF; fill-opacity:1.0; 
stroke:#FFFFFF; stroke-width:0; stroke-opacity:1; 
stroke-linecap:round; stroke-linejoin:round;fill-rule:evenodd;"
d="M 36286.5,37818.5
36188.1,37818.5
36188.1,37306.7
36286.5,37306.7
Z" /> 
<path style="fill:#FFFFFF; fill-opacity:1.0; 
stroke:#FFFFFF; stroke-width:0; stroke-opacity:1; 
stroke-linecap:round; stroke-linejoin:round;fill-rule:evenodd;"
d="M 36483.4,37818.5
36385,37818.5
36385,37306.7
36483.4,37306.7
Z" /> 
<path style="fill:#FFFFFF; fill-opacity:1.0; 
stroke:#FFFFFF; stroke-width:0; stroke-opacity:1; 
stroke-linecap:round; stroke-linejoin:round;fill-rule:evenodd;"
d="M 36680.2,37818.5
36581.8,37818.5
36581.8,37306.7
36680.2,37306.7
Z" /> 
<path style="fill:#FFFFFF; fill-opacity:1.0; 
stroke:#FFFFFF; stroke-width:0; stroke-opacity:1; 
stroke-linecap:round; stroke-linejoin:round;fill-rule:evenodd;"
d="M 36877.1,37818.5
36778.7,37818.5
36778.7,37306.7
36877.1,37306.7
Z" /> 
<path style="fill:#FFFFFF; fill-opacity:1.0; 
stroke:#FFFFFF; stroke-width:0; stroke-opacity:1; 
stroke-linecap:round; stroke-linejoin:round;fill-rule:evenodd;"
d="M 37073.9,37818.5
36975.5,37818.5
36975.5,37306.7
37073.9,37306.7
Z" /> 
<path style="fill:#FFFFFF; fill-opacity:1.0; 
stroke:#FFFFFF; stroke-width:0; stroke-opacity:1; 
stroke-linecap:round; stroke-linejoin:round;fill-rule:evenodd;"
d="M 37270.8,37818.5
37172.4,37818.5
37172.4,37306.7
37270.8,37306.7
Z" /> 
<path style="fill:#FFFFFF; fill-opacity:1.0; 
stroke:#FFFFFF; stroke-width:0; stroke-opacity:1; 
stroke-linecap:round; stroke-linejoin:round;fill-rule:evenodd;"
d="M 37467.6,37818.5
37369.2,37818.5
37369.2,37306.7
37467.6,37306.7
Z" /> 
<path style="fill:#FFFFFF; fill-opacity:1.0; 
stroke:#FFFFFF; stroke-width:0; stroke-opacity:1; 
stroke-linecap:round; stroke-linejoin:round;fill-rule:evenodd;"
d="M 37664.5,37818.5
37566.1,37818.5
37566.1,37306.7
37664.5,37306.7
Z" /> 
<path style="fill:#FFFFFF; fill-opacity:1.0; 
stroke:#FFFFFF; stroke-width:0; stroke-opacity:1; 
stroke-linecap:round; stroke-linejoin:round;fill-rule:evenodd;"
d="M 37861.3,37818.5
37762.9,37818.5
37762.9,37306.7
37861.3,37306.7
Z" /> 
<path style="fill:#FFFFFF; fill-opacity:1.0; 
stroke:#FFFFFF; stroke-width:0; stroke-opacity:1; 
stroke-linecap:round; stroke-linejoin:round;fill-rule:evenodd;"
d="M 38058.2,37818.5
37959.8,37818.5
37959.8,37306.7
38058.2,37306.7
Z" /> 
<path style="fill:#FFFFFF; fill-opacity:1.0; 
stroke:#FFFFFF; stroke-width:0; stroke-opacity:1; 
stroke-linecap:round; stroke-linejoin:round;fill-rule:evenodd;"
d="M 38255,37818.5
38156.6,37818.5
38156.6,37306.7
38255,37306.7
Z" /> 
<path style="fill:#FFFFFF; fill-opacity:1.0; 
stroke:#FFFFFF; stroke-width:0; stroke-opacity:1; 
stroke-linecap:round; stroke-linejoin:round;fill-rule:evenodd;"
d="M 38451.9,37818.5
38353.5,37818.5
38353.5,37306.7
38451.9,37306.7
Z" /> 
</g>
<g >
</g>
<g >
</g>
<g >
</g>
<g >
</g>
<g >
</g>
<g style="fill:#FFFFFF; fill-opacity:1.0; 
stroke:#FFFFFF; stroke-width:0; stroke-opacity:1; 
stroke-linecap:round; stroke-linejoin:round;">
<path style="fill:#FFFFFF; fill-opacity:1.0; 
stroke:#FFFFFF; stroke-width:0; stroke-opacity:1; 
stroke-linecap:round; stroke-linejoin:round;fill-rule:evenodd;"
d="M 38416.5,38717.5
37983.5,38717.5
37983.5,38304.1
38416.5,38304.1
Z" /> 
<path style="fill:#FFFFFF; fill-opacity:1.0; 
stroke:#FFFFFF; stroke-width:0; stroke-opacity:1; 
stroke-linecap:round; stroke-linejoin:round;fill-rule:evenodd;"
d="M 38416.5,39445.9
37983.5,39445.9
37983.5,39032.5
38416.5,39032.5
Z" /> 
</g>
<g >
</g>
<g >
</g>
<g >
</g>
<g >
</g>
<g >
</g>
<g >
</g>
<g >
</g>
<g >
</g>
<g style="fill:#FFFFFF; fill-opacity:1.0; 
stroke:#FFFFFF; stroke-width:0; stroke-opacity:1; 
stroke-linecap:round; stroke-linejoin:round;">
</g>
<g style="fill:#FFFFFF; fill-opacity:1.0; 
stroke:#FFFFFF; stroke-width:748.031; stroke-opacity:1; 
stroke-linecap:round; stroke-linejoin:round;">
</g>
<g style="fill:#FFFFFF; fill-opacity:0.0; 
stroke:#FFFFFF; stroke-width:748.031; stroke-opacity:1; 
stroke-linecap:round; stroke-linejoin:round;">
<path d="M39244 27811
L39244 27181
" />
<path d="M34755 27811
L34755 27181
" />
</g>
<g >
</g>
<g style="fill:#FFFFFF; fill-opacity:0.0; 
stroke:#FFFFFF; stroke-width:748.031; stroke-opacity:1; 
stroke-linecap:round; stroke-linejoin:round;">
</g>
<g style="fill:#FFFFFF; fill-opacity:0.0; 
stroke:#FFFFFF; stroke-width:0; stroke-opacity:1; 
stroke-linecap:round; stroke-linejoin:round;">
</g>
<g style="fill:#FFFFFF; fill-opacity:1.0; 
stroke:#FFFFFF; stroke-width:0; stroke-opacity:1; 
stroke-linecap:round; stroke-linejoin:round;">
<path style="fill:#FFFFFF; fill-opacity:1.0; 
stroke:#FFFFFF; stroke-width:0; stroke-opacity:1; 
stroke-linecap:round; stroke-linejoin:round;fill-rule:evenodd;"
d="M 38184.3,40243.1
38192.7,40244.4
38200.9,40246.4
38208.8,40249.3
38216.5,40252.9
38223.7,40257.2
38230.5,40262.3
38236.8,40267.9
38242.5,40274.2
38247.5,40281
38251.8,40288.2
38255.5,40295.9
38258.3,40303.8
38260.4,40312
38261.6,40320.4
38262,40328.8
38262,40501.1
38261.6,40509.5
38260.4,40517.9
38258.3,40526.1
38255.5,40534
38251.8,40541.7
38247.5,40548.9
38242.5,40555.7
38236.8,40562
38230.5,40567.7
38223.7,40572.7
38216.5,40577
38208.8,40580.6
38200.9,40583.5
38192.7,40585.6
38184.3,40586.8
38175.9,40587.2
37974.1,40587.2
37965.7,40586.8
37957.3,40585.6
37949.1,40583.5
37941.2,40580.6
37933.5,40577
37926.3,40572.7
37919.5,40567.7
37913.2,40562
37907.5,40555.7
37902.5,40548.9
37898.2,40541.7
37894.5,40534
37891.7,40526.1
37889.6,40517.9
37888.4,40509.5
37888,40501.1
37888,40328.8
37888.4,40320.4
37889.6,40312
37891.7,40303.8
37894.5,40295.9
37898.2,40288.2
37902.5,40281
37907.5,40274.2
37913.2,40267.9
37919.5,40262.3
37926.3,40257.2
37933.5,40252.9
37941.2,40249.3
37949.1,40246.4
37957.3,40244.4
37965.7,40243.1
37974.1,40242.7
38175.9,40242.7
Z" /> 
<path style="fill:#FFFFFF; fill-opacity:1.0; 
stroke:#FFFFFF; stroke-width:0; stroke-opacity:1; 
stroke-linecap:round; stroke-linejoin:round;fill-rule:evenodd;"
d="M 38184.3,40863.2
38192.7,40864.4
38200.9,40866.5
38208.8,40869.4
38216.5,40873
38223.7,40877.3
38230.5,40882.3
38236.8,40888
38242.5,40894.3
38247.5,40901.1
38251.8,40908.3
38255.5,40916
38258.3,40923.9
38260.4,40932.1
38261.6,40940.5
38262,40948.9
38262,41121.2
38261.6,41129.6
38260.4,41138
38258.3,41146.2
38255.5,41154.1
38251.8,41161.8
38247.5,41169
38242.5,41175.8
38236.8,41182.1
38230.5,41187.7
38223.7,41192.8
38216.5,41197.1
38208.8,41200.7
38200.9,41203.6
38192.7,41205.6
38184.3,41206.9
38175.9,41207.3
37974.1,41207.3
37965.7,41206.9
37957.3,41205.6
37949.1,41203.6
37941.2,41200.7
37933.5,41197.1
37926.3,41192.8
37919.5,41187.7
37913.2,41182.1
37907.5,41175.8
37902.5,41169
37898.2,41161.8
37894.5,41154.1
37891.7,41146.2
37889.6,41138
37888.4,41129.6
37888,41121.2
37888,40948.9
37888.4,40940.5
37889.6,40932.1
37891.7,40923.9
37894.5,40916
37898.2,40908.3
37902.5,40901.1
37907.5,40894.3
37913.2,40888
37919.5,40882.3
37926.3,40877.3
37933.5,40873
37941.2,40869.4
37949.1,40866.5
37957.3,40864.4
37965.7,40863.2
37974.1,40862.8
38175.9,40862.8
Z" /> 
</g>
<g >
</g>
<g style="fill:#FFFFFF; fill-opacity:1.0; 
stroke:#FFFFFF; stroke-width:0; stroke-opacity:1; 
stroke-linecap:round; stroke-linejoin:round;">
<path style="fill:#FFFFFF; fill-opacity:1.0; 
stroke:#FFFFFF; stroke-width:0; stroke-opacity:1; 
stroke-linecap:round; stroke-linejoin:round;fill-rule:evenodd;"
d="M 38784.3,40243.1
38792.7,40244.4
38800.9,40246.4
38808.8,40249.3
38816.5,40252.9
38823.7,40257.2
38830.5,40262.3
38836.8,40267.9
38842.5,40274.2
38847.5,40281
38851.8,40288.2
38855.5,40295.9
38858.3,40303.8
38860.4,40312
38861.6,40320.4
38862,40328.8
38862,40501.1
38861.6,40509.5
38860.4,40517.9
38858.3,40526.1
38855.5,40534
38851.8,40541.7
38847.5,40548.9
38842.5,40555.7
38836.8,40562
38830.5,40567.7
38823.7,40572.7
38816.5,40577
38808.8,40580.6
38800.9,40583.5
38792.7,40585.6
38784.3,40586.8
38775.9,40587.2
38574.1,40587.2
38565.7,40586.8
38557.3,40585.6
38549.1,40583.5
38541.2,40580.6
38533.5,40577
38526.3,40572.7
38519.5,40567.7
38513.2,40562
38507.5,40555.7
38502.5,40548.9
38498.2,40541.7
38494.5,40534
38491.7,40526.1
38489.6,40517.9
38488.4,40509.5
38488,40501.1
38488,40328.8
38488.4,40320.4
38489.6,40312
38491.7,40303.8
38494.5,40295.9
38498.2,40288.2
38502.5,40281
38507.5,40274.2
38513.2,40267.9
38519.5,40262.3
38526.3,40257.2
38533.5,40252.9
38541.2,40249.3
38549.1,40246.4
38557.3,40244.4
38565.7,40243.1
38574.1,40242.7
38775.9,40242.7
Z" /> 
<path style="fill:#FFFFFF; fill-opacity:1.0; 
stroke:#FFFFFF; stroke-width:0; stroke-opacity:1; 
stroke-linecap:round; stroke-linejoin:round;fill-rule:evenodd;"
d="M 38784.3,40863.2
38792.7,40864.4
38800.9,40866.5
38808.8,40869.4
38816.5,40873
38823.7,40877.3
38830.5,40882.3
38836.8,40888
38842.5,40894.3
38847.5,40901.1
38851.8,40908.3
38855.5,40916
38858.3,40923.9
38860.4,40932.1
38861.6,40940.5
38862,40948.9
38862,41121.2
38861.6,41129.6
38860.4,41138
38858.3,41146.2
38855.5,41154.1
38851.8,41161.8
38847.5,41169
38842.5,41175.8
38836.8,41182.1
38830.5,41187.7
38823.7,41192.8
38816.5,41197.1
38808.8,41200.7
38800.9,41203.6
38792.7,41205.6
38784.3,41206.9
38775.9,41207.3
38574.1,41207.3
38565.7,41206.9
38557.3,41205.6
38549.1,41203.6
38541.2,41200.7
38533.5,41197.1
38526.3,41192.8
38519.5,41187.7
38513.2,41182.1
38507.5,41175.8
38502.5,41169
38498.2,41161.8
38494.5,41154.1
38491.7,41146.2
38489.6,41138
38488.4,41129.6
38488,41121.2
38488,40948.9
38488.4,40940.5
38489.6,40932.1
38491.7,40923.9
38494.5,40916
38498.2,40908.3
38502.5,40901.1
38507.5,40894.3
38513.2,40888
38519.5,40882.3
38526.3,40877.3
38533.5,40873
38541.2,40869.4
38549.1,40866.5
38557.3,40864.4
38565.7,40863.2
38574.1,40862.8
38775.9,40862.8
Z" /> 
</g>
<g >
</g>
<g style="fill:#FFFFFF; fill-opacity:1.0; 
stroke:#FFFFFF; stroke-width:0; stroke-opacity:1; 
stroke-linecap:round; stroke-linejoin:round;">
<path style="fill:#FFFFFF; fill-opacity:1.0; 
stroke:#FFFFFF; stroke-width:0; stroke-opacity:1; 
stroke-linecap:round; stroke-linejoin:round;fill-rule:evenodd;"
d="M 39208,29924.9
39217.3,29926.3
39226.5,29928.5
39235.3,29931.7
39243.8,29935.7
39251.9,29940.6
39259.5,29946.2
39266.5,29952.5
39272.8,29959.5
39278.4,29967.1
39283.2,29975.1
39287.3,29983.6
39290.4,29992.5
39292.7,30001.7
39294.1,30011
39294.6,30020.4
39294.6,30379.6
39294.1,30389
39292.7,30398.3
39290.4,30407.5
39287.3,30416.3
39283.2,30424.9
39278.4,30432.9
39272.8,30440.5
39266.5,30447.5
39259.5,30453.8
39251.9,30459.4
39243.8,30464.3
39235.3,30468.3
39226.5,30471.5
39217.3,30473.7
39208,30475.1
39198.6,30475.6
39006.7,30475.6
38997.3,30475.1
38988,30473.7
38978.8,30471.5
38969.9,30468.3
38961.4,30464.3
38953.4,30459.4
38945.8,30453.8
38938.8,30447.5
38932.5,30440.5
38926.9,30432.9
38922,30424.9
38918,30416.3
38914.8,30407.5
38912.6,30398.3
38911.2,30389
38910.7,30379.6
38910.7,30020.4
38911.2,30011
38912.6,30001.7
38914.8,29992.5
38918,29983.6
38922,29975.1
38926.9,29967.1
38932.5,29959.5
38938.8,29952.5
38945.8,29946.2
38953.4,29940.6
38961.4,29935.7
38969.9,29931.7
38978.8,29928.5
38988,29926.3
38997.3,29924.9
39006.7,29924.4
39198.6,29924.4
Z" /> 
<path style="fill:#FFFFFF; fill-opacity:1.0; 
stroke:#FFFFFF; stroke-width:0; stroke-opacity:1; 
stroke-linecap:round; stroke-linejoin:round;fill-rule:evenodd;"
d="M 38469.8,29924.9
38479.1,29926.3
38488.3,29928.5
38497.1,29931.7
38505.7,29935.7
38513.7,29940.6
38521.3,29946.2
38528.3,29952.5
38534.6,29959.5
38540.2,29967.1
38545,29975.1
38549.1,29983.6
38552.2,29992.5
38554.5,30001.7
38555.9,30011
38556.4,30020.4
38556.4,30379.6
38555.9,30389
38554.5,30398.3
38552.2,30407.5
38549.1,30416.3
38545,30424.9
38540.2,30432.9
38534.6,30440.5
38528.3,30447.5
38521.3,30453.8
38513.7,30459.4
38505.7,30464.3
38497.1,30468.3
38488.3,30471.5
38479.1,30473.7
38469.8,30475.1
38460.4,30475.6
38268.5,30475.6
38259.1,30475.1
38249.8,30473.7
38240.6,30471.5
38231.8,30468.3
38223.2,30464.3
38215.2,30459.4
38207.6,30453.8
38200.6,30447.5
38194.3,30440.5
38188.7,30432.9
38183.9,30424.9
38179.8,30416.3
38176.7,30407.5
38174.4,30398.3
38173,30389
38172.5,30379.6
38172.5,30020.4
38173,30011
38174.4,30001.7
38176.7,29992.5
38179.8,29983.6
38183.9,29975.1
38188.7,29967.1
38194.3,29959.5
38200.6,29952.5
38207.6,29946.2
38215.2,29940.6
38223.2,29935.7
38231.8,29931.7
38240.6,29928.5
38249.8,29926.3
38259.1,29924.9
38268.5,29924.4
38460.4,29924.4
Z" /> 
</g>
<g >
</g>
<g style="fill:#FFFFFF; fill-opacity:1.0; 
stroke:#FFFFFF; stroke-width:0; stroke-opacity:1; 
stroke-linecap:round; stroke-linejoin:round;">
<path style="fill:#FFFFFF; fill-opacity:1.0; 
stroke:#FFFFFF; stroke-width:0; stroke-opacity:1; 
stroke-linecap:round; stroke-linejoin:round;fill-rule:evenodd;"
d="M 39204.5,32524.9
39213.8,32526.3
39222.9,32528.5
39231.8,32531.7
39240.3,32535.7
39248.4,32540.6
39255.9,32546.2
39262.9,32552.5
39269.2,32559.5
39274.9,32567.1
39279.7,32575.1
39283.7,32583.6
39286.9,32592.5
39289.2,32601.7
39290.6,32611
39291,32620.4
39291,32979.6
39290.6,32989
39289.2,32998.3
39286.9,33007.5
39283.7,33016.3
39279.7,33024.9
39274.9,33032.9
39269.2,33040.5
39262.9,33047.5
39255.9,33053.8
39248.4,33059.4
39240.3,33064.3
39231.8,33068.3
39222.9,33071.5
39213.8,33073.7
39204.5,33075.1
39195.1,33075.6
39003.1,33075.6
38993.7,33075.1
38984.4,33073.7
38975.3,33071.5
38966.4,33068.3
38957.9,33064.3
38949.8,33059.4
38942.3,33053.8
38935.3,33047.5
38928.9,33040.5
38923.3,33032.9
38918.5,33024.9
38914.5,33016.3
38911.3,33007.5
38909,32998.3
38907.6,32989
38907.2,32979.6
38907.2,32620.4
38907.6,32611
38909,32601.7
38911.3,32592.5
38914.5,32583.6
38918.5,32575.1
38923.3,32567.1
38928.9,32559.5
38935.3,32552.5
38942.3,32546.2
38949.8,32540.6
38957.9,32535.7
38966.4,32531.7
38975.3,32528.5
38984.4,32526.3
38993.7,32524.9
39003.1,32524.4
39195.1,32524.4
Z" /> 
<path style="fill:#FFFFFF; fill-opacity:1.0; 
stroke:#FFFFFF; stroke-width:0; stroke-opacity:1; 
stroke-linecap:round; stroke-linejoin:round;fill-rule:evenodd;"
d="M 38466.3,32524.9
38475.6,32526.3
38484.7,32528.5
38493.6,32531.7
38502.1,32535.7
38510.2,32540.6
38517.7,32546.2
38524.7,32552.5
38531.1,32559.5
38536.7,32567.1
38541.5,32575.1
38545.5,32583.6
38548.7,32592.5
38551,32601.7
38552.4,32611
38552.8,32620.4
38552.8,32979.6
38552.4,32989
38551,32998.3
38548.7,33007.5
38545.5,33016.3
38541.5,33024.9
38536.7,33032.9
38531.1,33040.5
38524.7,33047.5
38517.7,33053.8
38510.2,33059.4
38502.1,33064.3
38493.6,33068.3
38484.7,33071.5
38475.6,33073.7
38466.3,33075.1
38456.9,33075.6
38264.9,33075.6
38255.5,33075.1
38246.2,33073.7
38237.1,33071.5
38228.2,33068.3
38219.7,33064.3
38211.6,33059.4
38204.1,33053.8
38197.1,33047.5
38190.8,33040.5
38185.1,33032.9
38180.3,33024.9
38176.3,33016.3
38173.1,33007.5
38170.8,32998.3
38169.4,32989
38169,32979.6
38169,32620.4
38169.4,32611
38170.8,32601.7
38173.1,32592.5
38176.3,32583.6
38180.3,32575.1
38185.1,32567.1
38190.8,32559.5
38197.1,32552.5
38204.1,32546.2
38211.6,32540.6
38219.7,32535.7
38228.2,32531.7
38237.1,32528.5
38246.2,32526.3
38255.5,32524.9
38264.9,32524.4
38456.9,32524.4
Z" /> 
</g>
<g >
</g>
<g style="fill:#FFFFFF; fill-opacity:1.0; 
stroke:#FFFFFF; stroke-width:0; stroke-opacity:1; 
stroke-linecap:round; stroke-linejoin:round;">
<path style="fill:#FFFFFF; fill-opacity:1.0; 
stroke:#FFFFFF; stroke-width:0; stroke-opacity:1; 
stroke-linecap:round; stroke-linejoin:round;fill-rule:evenodd;"
d="M 35939,30127.6
35948.3,30129
35957.5,30131.3
35966.3,30134.5
35974.9,30138.5
35982.9,30143.3
35990.5,30148.9
35997.5,30155.3
36003.8,30162.3
36009.4,30169.8
36014.3,30177.9
36018.3,30186.4
36021.5,30195.3
36023.7,30204.4
36025.1,30213.7
36025.6,30223.1
36025.6,30415.1
36025.1,30424.5
36023.7,30433.8
36021.5,30442.9
36018.3,30451.8
36014.3,30460.3
36009.4,30468.4
36003.8,30475.9
35997.5,30482.9
35990.5,30489.2
35982.9,30494.9
35974.9,30499.7
35966.3,30503.7
35957.5,30506.9
35948.3,30509.2
35939,30510.6
35929.6,30511
35570.4,30511
35561,30510.6
35551.7,30509.2
35542.5,30506.9
35533.7,30503.7
35525.1,30499.7
35517.1,30494.9
35509.5,30489.2
35502.5,30482.9
35496.2,30475.9
35490.6,30468.4
35485.7,30460.3
35481.7,30451.8
35478.5,30442.9
35476.3,30433.8
35474.9,30424.5
35474.4,30415.1
35474.4,30223.1
35474.9,30213.7
35476.3,30204.4
35478.5,30195.3
35481.7,30186.4
35485.7,30177.9
35490.6,30169.8
35496.2,30162.3
35502.5,30155.3
35509.5,30148.9
35517.1,30143.3
35525.1,30138.5
35533.7,30134.5
35542.5,30131.3
35551.7,30129
35561,30127.6
35570.4,30127.2
35929.6,30127.2
Z" /> 
<path style="fill:#FFFFFF; fill-opacity:1.0; 
stroke:#FFFFFF; stroke-width:0; stroke-opacity:1; 
stroke-linecap:round; stroke-linejoin:round;fill-rule:evenodd;"
d="M 35939,29389.4
35948.3,29390.8
35957.5,29393.1
35966.3,29396.3
35974.9,29400.3
35982.9,29405.1
35990.5,29410.8
35997.5,29417.1
36003.8,29424.1
36009.4,29431.6
36014.3,29439.7
36018.3,29448.2
36021.5,29457.1
36023.7,29466.2
36025.1,29475.5
36025.6,29484.9
36025.6,29676.9
36025.1,29686.3
36023.7,29695.6
36021.5,29704.7
36018.3,29713.6
36014.3,29722.1
36009.4,29730.2
36003.8,29737.7
35997.5,29744.7
35990.5,29751.1
35982.9,29756.7
35974.9,29761.5
35966.3,29765.5
35957.5,29768.7
35948.3,29771
35939,29772.4
35929.6,29772.8
35570.4,29772.8
35561,29772.4
35551.7,29771
35542.5,29768.7
35533.7,29765.5
35525.1,29761.5
35517.1,29756.7
35509.5,29751.1
35502.5,29744.7
35496.2,29737.7
35490.6,29730.2
35485.7,29722.1
35481.7,29713.6
35478.5,29704.7
35476.3,29695.6
35474.9,29686.3
35474.4,29676.9
35474.4,29484.9
35474.9,29475.5
35476.3,29466.2
35478.5,29457.1
35481.7,29448.2
35485.7,29439.7
35490.6,29431.6
35496.2,29424.1
35502.5,29417.1
35509.5,29410.8
35517.1,29405.1
35525.1,29400.3
35533.7,29396.3
35542.5,29393.1
35551.7,29390.8
35561,29389.4
35570.4,29389
35929.6,29389
Z" /> 
</g>
<g >
</g>
<g style="fill:#FFFFFF; fill-opacity:1.0; 
stroke:#FFFFFF; stroke-width:0; stroke-opacity:1; 
stroke-linecap:round; stroke-linejoin:round;">
<path style="fill:#FFFFFF; fill-opacity:1.0; 
stroke:#FFFFFF; stroke-width:0; stroke-opacity:1; 
stroke-linecap:round; stroke-linejoin:round;fill-rule:evenodd;"
d="M 36714,29389.4
36723.3,29390.8
36732.5,29393.1
36741.3,29396.3
36749.9,29400.3
36757.9,29405.1
36765.5,29410.8
36772.5,29417.1
36778.8,29424.1
36784.4,29431.6
36789.3,29439.7
36793.3,29448.2
36796.5,29457.1
36798.7,29466.2
36800.1,29475.5
36800.6,29484.9
36800.6,29676.9
36800.1,29686.3
36798.7,29695.6
36796.5,29704.7
36793.3,29713.6
36789.3,29722.1
36784.4,29730.2
36778.8,29737.7
36772.5,29744.7
36765.5,29751.1
36757.9,29756.7
36749.9,29761.5
36741.3,29765.5
36732.5,29768.7
36723.3,29771
36714,29772.4
36704.6,29772.8
36345.4,29772.8
36336,29772.4
36326.7,29771
36317.5,29768.7
36308.7,29765.5
36300.1,29761.5
36292.1,29756.7
36284.5,29751.1
36277.5,29744.7
36271.2,29737.7
36265.6,29730.2
36260.7,29722.1
36256.7,29713.6
36253.5,29704.7
36251.3,29695.6
36249.9,29686.3
36249.4,29676.9
36249.4,29484.9
36249.9,29475.5
36251.3,29466.2
36253.5,29457.1
36256.7,29448.2
36260.7,29439.7
36265.6,29431.6
36271.2,29424.1
36277.5,29417.1
36284.5,29410.8
36292.1,29405.1
36300.1,29400.3
36308.7,29396.3
36317.5,29393.1
36326.7,29390.8
36336,29389.4
36345.4,29389
36704.6,29389
Z" /> 
<path style="fill:#FFFFFF; fill-opacity:1.0; 
stroke:#FFFFFF; stroke-width:0; stroke-opacity:1; 
stroke-linecap:round; stroke-linejoin:round;fill-rule:evenodd;"
d="M 36714,30127.6
36723.3,30129
36732.5,30131.3
36741.3,30134.5
36749.9,30138.5
36757.9,30143.3
36765.5,30148.9
36772.5,30155.3
36778.8,30162.3
36784.4,30169.8
36789.3,30177.9
36793.3,30186.4
36796.5,30195.3
36798.7,30204.4
36800.1,30213.7
36800.6,30223.1
36800.6,30415.1
36800.1,30424.5
36798.7,30433.8
36796.5,30442.9
36793.3,30451.8
36789.3,30460.3
36784.4,30468.4
36778.8,30475.9
36772.5,30482.9
36765.5,30489.2
36757.9,30494.9
36749.9,30499.7
36741.3,30503.7
36732.5,30506.9
36723.3,30509.2
36714,30510.6
36704.6,30511
36345.4,30511
36336,30510.6
36326.7,30509.2
36317.5,30506.9
36308.7,30503.7
36300.1,30499.7
36292.1,30494.9
36284.5,30489.2
36277.5,30482.9
36271.2,30475.9
36265.6,30468.4
36260.7,30460.3
36256.7,30451.8
36253.5,30442.9
36251.3,30433.8
36249.9,30424.5
36249.4,30415.1
36249.4,30223.1
36249.9,30213.7
36251.3,30204.4
36253.5,30195.3
36256.7,30186.4
36260.7,30177.9
36265.6,30169.8
36271.2,30162.3
36277.5,30155.3
36284.5,30148.9
36292.1,30143.3
36300.1,30138.5
36308.7,30134.5
36317.5,30131.3
36326.7,30129
36336,30127.6
36345.4,30127.2
36704.6,30127.2
Z" /> 
</g>
<g >
</g>
<g style="fill:#FFFFFF; fill-opacity:1.0; 
stroke:#FFFFFF; stroke-width:0; stroke-opacity:1; 
stroke-linecap:round; stroke-linejoin:round;">
<path style="fill:#FFFFFF; fill-opacity:1.0; 
stroke:#FFFFFF; stroke-width:0; stroke-opacity:1; 
stroke-linecap:round; stroke-linejoin:round;fill-rule:evenodd;"
d="M 35509.3,31363.2
35517.7,31364.5
35525.9,31366.5
35533.8,31369.4
35541.5,31373
35548.7,31377.3
35555.5,31382.3
35561.8,31388
35567.5,31394.3
35572.5,31401.1
35576.8,31408.3
35580.5,31416
35583.3,31423.9
35585.4,31432.1
35586.6,31440.5
35587,31448.9
35587,31621.2
35586.6,31629.6
35585.4,31638
35583.3,31646.2
35580.5,31654.1
35576.8,31661.8
35572.5,31669
35567.5,31675.8
35561.8,31682.1
35555.5,31687.7
35548.7,31692.8
35541.5,31697.1
35533.8,31700.7
35525.9,31703.6
35517.7,31705.6
35509.3,31706.9
35500.9,31707.3
35299.1,31707.3
35290.7,31706.9
35282.3,31705.6
35274.1,31703.6
35266.2,31700.7
35258.5,31697.1
35251.3,31692.8
35244.5,31687.7
35238.2,31682.1
35232.5,31675.8
35227.5,31669
35223.2,31661.8
35219.5,31654.1
35216.7,31646.2
35214.6,31638
35213.4,31629.6
35213,31621.2
35213,31448.9
35213.4,31440.5
35214.6,31432.1
35216.7,31423.9
35219.5,31416
35223.2,31408.3
35227.5,31401.1
35232.5,31394.3
35238.2,31388
35244.5,31382.3
35251.3,31377.3
35258.5,31373
35266.2,31369.4
35274.1,31366.5
35282.3,31364.5
35290.7,31363.2
35299.1,31362.8
35500.9,31362.8
Z" /> 
<path style="fill:#FFFFFF; fill-opacity:1.0; 
stroke:#FFFFFF; stroke-width:0; stroke-opacity:1; 
stroke-linecap:round; stroke-linejoin:round;fill-rule:evenodd;"
d="M 35509.3,30743.1
35517.7,30744.4
35525.9,30746.4
35533.8,30749.3
35541.5,30752.9
35548.7,30757.2
35555.5,30762.3
35561.8,30767.9
35567.5,30774.2
35572.5,30781
35576.8,30788.2
35580.5,30795.9
35583.3,30803.8
35585.4,30812
35586.6,30820.4
35587,30828.8
35587,31001.1
35586.6,31009.5
35585.4,31017.9
35583.3,31026.1
35580.5,31034
35576.8,31041.7
35572.5,31048.9
35567.5,31055.7
35561.8,31062
35555.5,31067.7
35548.7,31072.7
35541.5,31077
35533.8,31080.6
35525.9,31083.5
35517.7,31085.5
35509.3,31086.8
35500.9,31087.2
35299.1,31087.2
35290.7,31086.8
35282.3,31085.5
35274.1,31083.5
35266.2,31080.6
35258.5,31077
35251.3,31072.7
35244.5,31067.7
35238.2,31062
35232.5,31055.7
35227.5,31048.9
35223.2,31041.7
35219.5,31034
35216.7,31026.1
35214.6,31017.9
35213.4,31009.5
35213,31001.1
35213,30828.8
35213.4,30820.4
35214.6,30812
35216.7,30803.8
35219.5,30795.9
35223.2,30788.2
35227.5,30781
35232.5,30774.2
35238.2,30767.9
35244.5,30762.3
35251.3,30757.2
35258.5,30752.9
35266.2,30749.3
35274.1,30746.4
35282.3,30744.4
35290.7,30743.1
35299.1,30742.7
35500.9,30742.7
Z" /> 
</g>
<g >
</g>
<g style="fill:#FFFFFF; fill-opacity:1.0; 
stroke:#FFFFFF; stroke-width:0; stroke-opacity:1; 
stroke-linecap:round; stroke-linejoin:round;">
<path style="fill:#FFFFFF; fill-opacity:1.0; 
stroke:#FFFFFF; stroke-width:0; stroke-opacity:1; 
stroke-linecap:round; stroke-linejoin:round;fill-rule:evenodd;"
d="M 36144.6,32363.4
36153,32364.6
36161.2,32366.7
36169.1,32369.5
36176.8,32373.2
36184,32377.5
36190.8,32382.5
36197.1,32388.2
36202.7,32394.5
36207.8,32401.3
36212.1,32408.5
36215.7,32416.2
36218.6,32424.1
36220.6,32432.3
36221.9,32440.7
36222.3,32449.1
36222.3,32650.9
36221.9,32659.3
36220.6,32667.7
36218.6,32675.9
36215.7,32683.8
36212.1,32691.5
36207.8,32698.7
36202.7,32705.5
36197.1,32711.8
36190.8,32717.5
36184,32722.5
36176.8,32726.8
36169.1,32730.5
36161.2,32733.3
36153,32735.4
36144.6,32736.6
36136.2,32737
35963.9,32737
35955.5,32736.6
35947.1,32735.4
35938.9,32733.3
35931,32730.5
35923.3,32726.8
35916.1,32722.5
35909.3,32717.5
35903,32711.8
35897.3,32705.5
35892.3,32698.7
35888,32691.5
35884.4,32683.8
35881.5,32675.9
35879.4,32667.7
35878.2,32659.3
35877.8,32650.9
35877.8,32449.1
35878.2,32440.7
35879.4,32432.3
35881.5,32424.1
35884.4,32416.2
35888,32408.5
35892.3,32401.3
35897.3,32394.5
35903,32388.2
35909.3,32382.5
35916.1,32377.5
35923.3,32373.2
35931,32369.5
35938.9,32366.7
35947.1,32364.6
35955.5,32363.4
35963.9,32363
36136.2,32363
Z" /> 
<path style="fill:#FFFFFF; fill-opacity:1.0; 
stroke:#FFFFFF; stroke-width:0; stroke-opacity:1; 
stroke-linecap:round; stroke-linejoin:round;fill-rule:evenodd;"
d="M 35524.5,32363.4
35532.9,32364.6
35541.1,32366.7
35549,32369.5
35556.7,32373.2
35563.9,32377.5
35570.7,32382.5
35577,32388.2
35582.7,32394.5
35587.7,32401.3
35592,32408.5
35595.6,32416.2
35598.5,32424.1
35600.6,32432.3
35601.8,32440.7
35602.2,32449.1
35602.2,32650.9
35601.8,32659.3
35600.6,32667.7
35598.5,32675.9
35595.6,32683.8
35592,32691.5
35587.7,32698.7
35582.7,32705.5
35577,32711.8
35570.7,32717.5
35563.9,32722.5
35556.7,32726.8
35549,32730.5
35541.1,32733.3
35532.9,32735.4
35524.5,32736.6
35516.1,32737
35343.8,32737
35335.4,32736.6
35327,32735.4
35318.8,32733.3
35310.9,32730.5
35303.2,32726.8
35296,32722.5
35289.2,32717.5
35282.9,32711.8
35277.3,32705.5
35272.2,32698.7
35267.9,32691.5
35264.3,32683.8
35261.4,32675.9
35259.4,32667.7
35258.1,32659.3
35257.7,32650.9
35257.7,32449.1
35258.1,32440.7
35259.4,32432.3
35261.4,32424.1
35264.3,32416.2
35267.9,32408.5
35272.2,32401.3
35277.3,32394.5
35282.9,32388.2
35289.2,32382.5
35296,32377.5
35303.2,32373.2
35310.9,32369.5
35318.8,32366.7
35327,32364.6
35335.4,32363.4
35343.8,32363
35516.1,32363
Z" /> 
</g>
<g >
</g>
<g style="fill:#FFFFFF; fill-opacity:1.0; 
stroke:#FFFFFF; stroke-width:0; stroke-opacity:1; 
stroke-linecap:round; stroke-linejoin:round;">
<path style="fill:#FFFFFF; fill-opacity:1.0; 
stroke:#FFFFFF; stroke-width:0; stroke-opacity:1; 
stroke-linecap:round; stroke-linejoin:round;fill-rule:evenodd;"
d="M 36004.6,38038.4
36013,38039.6
36021.2,38041.7
36029.1,38044.5
36036.8,38048.2
36044,38052.5
36050.8,38057.5
36057.1,38063.2
36062.7,38069.5
36067.8,38076.3
36072.1,38083.5
36075.7,38091.2
36078.6,38099.1
36080.6,38107.3
36081.9,38115.7
36082.3,38124.1
36082.3,38325.9
36081.9,38334.3
36080.6,38342.7
36078.6,38350.9
36075.7,38358.8
36072.1,38366.5
36067.8,38373.7
36062.7,38380.5
36057.1,38386.8
36050.8,38392.5
36044,38397.5
36036.8,38401.8
36029.1,38405.5
36021.2,38408.3
36013,38410.4
36004.6,38411.6
35996.2,38412
35823.9,38412
35815.5,38411.6
35807.1,38410.4
35798.9,38408.3
35791,38405.5
35783.3,38401.8
35776.1,38397.5
35769.3,38392.5
35763,38386.8
35757.3,38380.5
35752.3,38373.7
35748,38366.5
35744.4,38358.8
35741.5,38350.9
35739.4,38342.7
35738.2,38334.3
35737.8,38325.9
35737.8,38124.1
35738.2,38115.7
35739.4,38107.3
35741.5,38099.1
35744.4,38091.2
35748,38083.5
35752.3,38076.3
35757.3,38069.5
35763,38063.2
35769.3,38057.5
35776.1,38052.5
35783.3,38048.2
35791,38044.5
35798.9,38041.7
35807.1,38039.6
35815.5,38038.4
35823.9,38038
35996.2,38038
Z" /> 
<path style="fill:#FFFFFF; fill-opacity:1.0; 
stroke:#FFFFFF; stroke-width:0; stroke-opacity:1; 
stroke-linecap:round; stroke-linejoin:round;fill-rule:evenodd;"
d="M 35384.5,38038.4
35392.9,38039.6
35401.1,38041.7
35409,38044.5
35416.7,38048.2
35423.9,38052.5
35430.7,38057.5
35437,38063.2
35442.7,38069.5
35447.7,38076.3
35452,38083.5
35455.6,38091.2
35458.5,38099.1
35460.6,38107.3
35461.8,38115.7
35462.2,38124.1
35462.2,38325.9
35461.8,38334.3
35460.6,38342.7
35458.5,38350.9
35455.6,38358.8
35452,38366.5
35447.7,38373.7
35442.7,38380.5
35437,38386.8
35430.7,38392.5
35423.9,38397.5
35416.7,38401.8
35409,38405.5
35401.1,38408.3
35392.9,38410.4
35384.5,38411.6
35376.1,38412
35203.8,38412
35195.4,38411.6
35187,38410.4
35178.8,38408.3
35170.9,38405.5
35163.2,38401.8
35156,38397.5
35149.2,38392.5
35142.9,38386.8
35137.3,38380.5
35132.2,38373.7
35127.9,38366.5
35124.3,38358.8
35121.4,38350.9
35119.4,38342.7
35118.1,38334.3
35117.7,38325.9
35117.7,38124.1
35118.1,38115.7
35119.4,38107.3
35121.4,38099.1
35124.3,38091.2
35127.9,38083.5
35132.2,38076.3
35137.3,38069.5
35142.9,38063.2
35149.2,38057.5
35156,38052.5
35163.2,38048.2
35170.9,38044.5
35178.8,38041.7
35187,38039.6
35195.4,38038.4
35203.8,38038
35376.1,38038
Z" /> 
</g>
<g >
</g>
<g style="fill:#FFFFFF; fill-opacity:1.0; 
stroke:#FFFFFF; stroke-width:0; stroke-opacity:1; 
stroke-linecap:round; stroke-linejoin:round;">
<path style="fill:#FFFFFF; fill-opacity:1.0; 
stroke:#FFFFFF; stroke-width:0; stroke-opacity:1; 
stroke-linecap:round; stroke-linejoin:round;fill-rule:evenodd;"
d="M 39189.3,38018.1
39197.7,38019.4
39205.9,38021.4
39213.8,38024.3
39221.5,38027.9
39228.7,38032.2
39235.5,38037.3
39241.8,38042.9
39247.5,38049.2
39252.5,38056
39256.8,38063.2
39260.5,38070.9
39263.3,38078.8
39265.4,38087
39266.6,38095.4
39267,38103.8
39267,38276.1
39266.6,38284.5
39265.4,38292.9
39263.3,38301.1
39260.5,38309
39256.8,38316.7
39252.5,38323.9
39247.5,38330.7
39241.8,38337
39235.5,38342.7
39228.7,38347.7
39221.5,38352
39213.8,38355.6
39205.9,38358.5
39197.7,38360.6
39189.3,38361.8
39180.9,38362.2
38979.1,38362.2
38970.7,38361.8
38962.3,38360.6
38954.1,38358.5
38946.2,38355.6
38938.5,38352
38931.3,38347.7
38924.5,38342.7
38918.2,38337
38912.5,38330.7
38907.5,38323.9
38903.2,38316.7
38899.5,38309
38896.7,38301.1
38894.6,38292.9
38893.4,38284.5
38893,38276.1
38893,38103.8
38893.4,38095.4
38894.6,38087
38896.7,38078.8
38899.5,38070.9
38903.2,38063.2
38907.5,38056
38912.5,38049.2
38918.2,38042.9
38924.5,38037.3
38931.3,38032.2
38938.5,38027.9
38946.2,38024.3
38954.1,38021.4
38962.3,38019.4
38970.7,38018.1
38979.1,38017.7
39180.9,38017.7
Z" /> 
<path style="fill:#FFFFFF; fill-opacity:1.0; 
stroke:#FFFFFF; stroke-width:0; stroke-opacity:1; 
stroke-linecap:round; stroke-linejoin:round;fill-rule:evenodd;"
d="M 39189.3,38638.2
39197.7,38639.4
39205.9,38641.5
39213.8,38644.4
39221.5,38648
39228.7,38652.3
39235.5,38657.3
39241.8,38663
39247.5,38669.3
39252.5,38676.1
39256.8,38683.3
39260.5,38691
39263.3,38698.9
39265.4,38707.1
39266.6,38715.5
39267,38723.9
39267,38896.2
39266.6,38904.6
39265.4,38913
39263.3,38921.2
39260.5,38929.1
39256.8,38936.8
39252.5,38944
39247.5,38950.8
39241.8,38957.1
39235.5,38962.7
39228.7,38967.8
39221.5,38972.1
39213.8,38975.7
39205.9,38978.6
39197.7,38980.6
39189.3,38981.9
39180.9,38982.3
38979.1,38982.3
38970.7,38981.9
38962.3,38980.6
38954.1,38978.6
38946.2,38975.7
38938.5,38972.1
38931.3,38967.8
38924.5,38962.7
38918.2,38957.1
38912.5,38950.8
38907.5,38944
38903.2,38936.8
38899.5,38929.1
38896.7,38921.2
38894.6,38913
38893.4,38904.6
38893,38896.2
38893,38723.9
38893.4,38715.5
38894.6,38707.1
38896.7,38698.9
38899.5,38691
38903.2,38683.3
38907.5,38676.1
38912.5,38669.3
38918.2,38663
38924.5,38657.3
38931.3,38652.3
38938.5,38648
38946.2,38644.4
38954.1,38641.5
38962.3,38639.4
38970.7,38638.2
38979.1,38637.8
39180.9,38637.8
Z" /> 
</g>
<g >
</g>
<g style="fill:#FFFFFF; fill-opacity:1.0; 
stroke:#FFFFFF; stroke-width:0; stroke-opacity:1; 
stroke-linecap:round; stroke-linejoin:round;">
<path style="fill:#FFFFFF; fill-opacity:1.0; 
stroke:#FFFFFF; stroke-width:0; stroke-opacity:1; 
stroke-linecap:round; stroke-linejoin:round;fill-rule:evenodd;"
d="M 39035.2,33288.4
39043.5,33289.6
39051.7,33291.7
39059.7,33294.5
39067.3,33298.2
39074.6,33302.5
39081.3,33307.5
39087.6,33313.2
39093.3,33319.5
39098.3,33326.3
39102.7,33333.5
39106.3,33341.2
39109.1,33349.1
39111.2,33357.3
39112.4,33365.7
39112.8,33374.1
39112.8,33575.9
39112.4,33584.3
39111.2,33592.7
39109.1,33600.9
39106.3,33608.8
39102.7,33616.5
39098.3,33623.7
39093.3,33630.5
39087.6,33636.8
39081.3,33642.5
39074.6,33647.5
39067.3,33651.8
39059.7,33655.5
39051.7,33658.3
39043.5,33660.4
39035.2,33661.6
39026.7,33662
38854.5,33662
38846,33661.6
38837.7,33660.4
38829.5,33658.3
38821.5,33655.5
38813.9,33651.8
38806.6,33647.5
38799.8,33642.5
38793.6,33636.8
38787.9,33630.5
38782.9,33623.7
38778.5,33616.5
38774.9,33608.8
38772.1,33600.9
38770,33592.7
38768.8,33584.3
38768.3,33575.9
38768.3,33374.1
38768.8,33365.7
38770,33357.3
38772.1,33349.1
38774.9,33341.2
38778.5,33333.5
38782.9,33326.3
38787.9,33319.5
38793.6,33313.2
38799.8,33307.5
38806.6,33302.5
38813.9,33298.2
38821.5,33294.5
38829.5,33291.7
38837.7,33289.6
38846,33288.4
38854.5,33288
39026.7,33288
Z" /> 
<path style="fill:#FFFFFF; fill-opacity:1.0; 
stroke:#FFFFFF; stroke-width:0; stroke-opacity:1; 
stroke-linecap:round; stroke-linejoin:round;fill-rule:evenodd;"
d="M 38415.1,33288.4
38423.4,33289.6
38431.6,33291.7
38439.6,33294.5
38447.2,33298.2
38454.5,33302.5
38461.3,33307.5
38467.5,33313.2
38473.2,33319.5
38478.2,33326.3
38482.6,33333.5
38486.2,33341.2
38489,33349.1
38491.1,33357.3
38492.3,33365.7
38492.8,33374.1
38492.8,33575.9
38492.3,33584.3
38491.1,33592.7
38489,33600.9
38486.2,33608.8
38482.6,33616.5
38478.2,33623.7
38473.2,33630.5
38467.5,33636.8
38461.3,33642.5
38454.5,33647.5
38447.2,33651.8
38439.6,33655.5
38431.6,33658.3
38423.4,33660.4
38415.1,33661.6
38406.6,33662
38234.4,33662
38225.9,33661.6
38217.6,33660.4
38209.4,33658.3
38201.4,33655.5
38193.8,33651.8
38186.5,33647.5
38179.8,33642.5
38173.5,33636.8
38167.8,33630.5
38162.8,33623.7
38158.4,33616.5
38154.8,33608.8
38152,33600.9
38149.9,33592.7
38148.7,33584.3
38148.3,33575.9
38148.3,33374.1
38148.7,33365.7
38149.9,33357.3
38152,33349.1
38154.8,33341.2
38158.4,33333.5
38162.8,33326.3
38167.8,33319.5
38173.5,33313.2
38179.8,33307.5
38186.5,33302.5
38193.8,33298.2
38201.4,33294.5
38209.4,33291.7
38217.6,33289.6
38225.9,33288.4
38234.4,33288
38406.6,33288
Z" /> 
</g>
<g >
</g>
<g style="fill:#FFFFFF; fill-opacity:1.0; 
stroke:#FFFFFF; stroke-width:0; stroke-opacity:1; 
stroke-linecap:round; stroke-linejoin:round;">
<path style="fill:#FFFFFF; fill-opacity:1.0; 
stroke:#FFFFFF; stroke-width:0; stroke-opacity:1; 
stroke-linecap:round; stroke-linejoin:round;fill-rule:evenodd;"
d="M 35844.6,33013.4
35853,33014.6
35861.2,33016.7
35869.1,33019.5
35876.8,33023.2
35884,33027.5
35890.8,33032.5
35897.1,33038.2
35902.7,33044.5
35907.8,33051.3
35912.1,33058.5
35915.7,33066.2
35918.6,33074.1
35920.6,33082.3
35921.9,33090.7
35922.3,33099.1
35922.3,33300.9
35921.9,33309.3
35920.6,33317.7
35918.6,33325.9
35915.7,33333.8
35912.1,33341.5
35907.8,33348.7
35902.7,33355.5
35897.1,33361.8
35890.8,33367.5
35884,33372.5
35876.8,33376.8
35869.1,33380.5
35861.2,33383.3
35853,33385.4
35844.6,33386.6
35836.2,33387
35663.9,33387
35655.5,33386.6
35647.1,33385.4
35638.9,33383.3
35631,33380.5
35623.3,33376.8
35616.1,33372.5
35609.3,33367.5
35603,33361.8
35597.3,33355.5
35592.3,33348.7
35588,33341.5
35584.4,33333.8
35581.5,33325.9
35579.4,33317.7
35578.2,33309.3
35577.8,33300.9
35577.8,33099.1
35578.2,33090.7
35579.4,33082.3
35581.5,33074.1
35584.4,33066.2
35588,33058.5
35592.3,33051.3
35597.3,33044.5
35603,33038.2
35609.3,33032.5
35616.1,33027.5
35623.3,33023.2
35631,33019.5
35638.9,33016.7
35647.1,33014.6
35655.5,33013.4
35663.9,33013
35836.2,33013
Z" /> 
<path style="fill:#FFFFFF; fill-opacity:1.0; 
stroke:#FFFFFF; stroke-width:0; stroke-opacity:1; 
stroke-linecap:round; stroke-linejoin:round;fill-rule:evenodd;"
d="M 35224.5,33013.4
35232.9,33014.6
35241.1,33016.7
35249,33019.5
35256.7,33023.2
35263.9,33027.5
35270.7,33032.5
35277,33038.2
35282.7,33044.5
35287.7,33051.3
35292,33058.5
35295.6,33066.2
35298.5,33074.1
35300.6,33082.3
35301.8,33090.7
35302.2,33099.1
35302.2,33300.9
35301.8,33309.3
35300.6,33317.7
35298.5,33325.9
35295.6,33333.8
35292,33341.5
35287.7,33348.7
35282.7,33355.5
35277,33361.8
35270.7,33367.5
35263.9,33372.5
35256.7,33376.8
35249,33380.5
35241.1,33383.3
35232.9,33385.4
35224.5,33386.6
35216.1,33387
35043.8,33387
35035.4,33386.6
35027,33385.4
35018.8,33383.3
35010.9,33380.5
35003.2,33376.8
34996,33372.5
34989.2,33367.5
34982.9,33361.8
34977.3,33355.5
34972.2,33348.7
34967.9,33341.5
34964.3,33333.8
34961.4,33325.9
34959.4,33317.7
34958.1,33309.3
34957.7,33300.9
34957.7,33099.1
34958.1,33090.7
34959.4,33082.3
34961.4,33074.1
34964.3,33066.2
34967.9,33058.5
34972.2,33051.3
34977.3,33044.5
34982.9,33038.2
34989.2,33032.5
34996,33027.5
35003.2,33023.2
35010.9,33019.5
35018.8,33016.7
35027,33014.6
35035.4,33013.4
35043.8,33013
35216.1,33013
Z" /> 
</g>
<g >
</g>
<g style="fill:#FFFFFF; fill-opacity:1.0; 
stroke:#FFFFFF; stroke-width:0; stroke-opacity:1; 
stroke-linecap:round; stroke-linejoin:round;">
<path style="fill:#FFFFFF; fill-opacity:1.0; 
stroke:#FFFFFF; stroke-width:0; stroke-opacity:1; 
stroke-linecap:round; stroke-linejoin:round;fill-rule:evenodd;"
d="M 37194.6,38138.4
37202.9,38139.6
37211.1,38141.7
37219.1,38144.5
37226.7,38148.2
37234,38152.5
37240.8,38157.5
37247,38163.2
37252.7,38169.5
37257.7,38176.3
37262.1,38183.5
37265.7,38191.2
37268.5,38199.1
37270.6,38207.3
37271.8,38215.7
37272.2,38224.1
37272.2,38425.9
37271.8,38434.3
37270.6,38442.7
37268.5,38450.9
37265.7,38458.8
37262.1,38466.5
37257.7,38473.7
37252.7,38480.5
37247,38486.8
37240.8,38492.5
37234,38497.5
37226.7,38501.8
37219.1,38505.5
37211.1,38508.3
37202.9,38510.4
37194.6,38511.6
37186.1,38512
37013.9,38512
37005.4,38511.6
36997.1,38510.4
36988.9,38508.3
36980.9,38505.5
36973.3,38501.8
36966,38497.5
36959.2,38492.5
36953,38486.8
36947.3,38480.5
36942.3,38473.7
36937.9,38466.5
36934.3,38458.8
36931.5,38450.9
36929.4,38442.7
36928.2,38434.3
36927.8,38425.9
36927.8,38224.1
36928.2,38215.7
36929.4,38207.3
36931.5,38199.1
36934.3,38191.2
36937.9,38183.5
36942.3,38176.3
36947.3,38169.5
36953,38163.2
36959.2,38157.5
36966,38152.5
36973.3,38148.2
36980.9,38144.5
36988.9,38141.7
36997.1,38139.6
37005.4,38138.4
37013.9,38138
37186.1,38138
Z" /> 
<path style="fill:#FFFFFF; fill-opacity:1.0; 
stroke:#FFFFFF; stroke-width:0; stroke-opacity:1; 
stroke-linecap:round; stroke-linejoin:round;fill-rule:evenodd;"
d="M 36574.5,38138.4
36582.8,38139.6
36591,38141.7
36599,38144.5
36606.6,38148.2
36613.9,38152.5
36620.7,38157.5
36626.9,38163.2
36632.6,38169.5
36637.7,38176.3
36642,38183.5
36645.6,38191.2
36648.5,38199.1
36650.5,38207.3
36651.8,38215.7
36652.2,38224.1
36652.2,38425.9
36651.8,38434.3
36650.5,38442.7
36648.5,38450.9
36645.6,38458.8
36642,38466.5
36637.7,38473.7
36632.6,38480.5
36626.9,38486.8
36620.7,38492.5
36613.9,38497.5
36606.6,38501.8
36599,38505.5
36591,38508.3
36582.8,38510.4
36574.5,38511.6
36566,38512
36393.8,38512
36385.4,38511.6
36377,38510.4
36368.8,38508.3
36360.8,38505.5
36353.2,38501.8
36346,38497.5
36339.2,38492.5
36332.9,38486.8
36327.2,38480.5
36322.2,38473.7
36317.8,38466.5
36314.2,38458.8
36311.4,38450.9
36309.3,38442.7
36308.1,38434.3
36307.7,38425.9
36307.7,38224.1
36308.1,38215.7
36309.3,38207.3
36311.4,38199.1
36314.2,38191.2
36317.8,38183.5
36322.2,38176.3
36327.2,38169.5
36332.9,38163.2
36339.2,38157.5
36346,38152.5
36353.2,38148.2
36360.8,38144.5
36368.8,38141.7
36377,38139.6
36385.4,38138.4
36393.8,38138
36566,38138
Z" /> 
</g>
<g >
</g>
<g style="fill:#FFFFFF; fill-opacity:1.0; 
stroke:#FFFFFF; stroke-width:0; stroke-opacity:1; 
stroke-linecap:round; stroke-linejoin:round;">
<path style="fill:#FFFFFF; fill-opacity:1.0; 
stroke:#FFFFFF; stroke-width:0; stroke-opacity:1; 
stroke-linecap:round; stroke-linejoin:round;fill-rule:evenodd;"
d="M 35609.3,40243.1
35617.7,40244.4
35625.9,40246.4
35633.8,40249.3
35641.5,40252.9
35648.7,40257.2
35655.5,40262.3
35661.8,40267.9
35667.5,40274.2
35672.5,40281
35676.8,40288.2
35680.5,40295.9
35683.3,40303.8
35685.4,40312
35686.6,40320.4
35687,40328.8
35687,40501.1
35686.6,40509.5
35685.4,40517.9
35683.3,40526.1
35680.5,40534
35676.8,40541.7
35672.5,40548.9
35667.5,40555.7
35661.8,40562
35655.5,40567.7
35648.7,40572.7
35641.5,40577
35633.8,40580.6
35625.9,40583.5
35617.7,40585.6
35609.3,40586.8
35600.9,40587.2
35399.1,40587.2
35390.7,40586.8
35382.3,40585.6
35374.1,40583.5
35366.2,40580.6
35358.5,40577
35351.3,40572.7
35344.5,40567.7
35338.2,40562
35332.5,40555.7
35327.5,40548.9
35323.2,40541.7
35319.5,40534
35316.7,40526.1
35314.6,40517.9
35313.4,40509.5
35313,40501.1
35313,40328.8
35313.4,40320.4
35314.6,40312
35316.7,40303.8
35319.5,40295.9
35323.2,40288.2
35327.5,40281
35332.5,40274.2
35338.2,40267.9
35344.5,40262.3
35351.3,40257.2
35358.5,40252.9
35366.2,40249.3
35374.1,40246.4
35382.3,40244.4
35390.7,40243.1
35399.1,40242.7
35600.9,40242.7
Z" /> 
<path style="fill:#FFFFFF; fill-opacity:1.0; 
stroke:#FFFFFF; stroke-width:0; stroke-opacity:1; 
stroke-linecap:round; stroke-linejoin:round;fill-rule:evenodd;"
d="M 35609.3,40863.2
35617.7,40864.4
35625.9,40866.5
35633.8,40869.4
35641.5,40873
35648.7,40877.3
35655.5,40882.3
35661.8,40888
35667.5,40894.3
35672.5,40901.1
35676.8,40908.3
35680.5,40916
35683.3,40923.9
35685.4,40932.1
35686.6,40940.5
35687,40948.9
35687,41121.2
35686.6,41129.6
35685.4,41138
35683.3,41146.2
35680.5,41154.1
35676.8,41161.8
35672.5,41169
35667.5,41175.8
35661.8,41182.1
35655.5,41187.7
35648.7,41192.8
35641.5,41197.1
35633.8,41200.7
35625.9,41203.6
35617.7,41205.6
35609.3,41206.9
35600.9,41207.3
35399.1,41207.3
35390.7,41206.9
35382.3,41205.6
35374.1,41203.6
35366.2,41200.7
35358.5,41197.1
35351.3,41192.8
35344.5,41187.7
35338.2,41182.1
35332.5,41175.8
35327.5,41169
35323.2,41161.8
35319.5,41154.1
35316.7,41146.2
35314.6,41138
35313.4,41129.6
35313,41121.2
35313,40948.9
35313.4,40940.5
35314.6,40932.1
35316.7,40923.9
35319.5,40916
35323.2,40908.3
35327.5,40901.1
35332.5,40894.3
35338.2,40888
35344.5,40882.3
35351.3,40877.3
35358.5,40873
35366.2,40869.4
35374.1,40866.5
35382.3,40864.4
35390.7,40863.2
35399.1,40862.8
35600.9,40862.8
Z" /> 
</g>
<g >
</g>
<g style="fill:#FFFFFF; fill-opacity:1.0; 
stroke:#FFFFFF; stroke-width:0; stroke-opacity:1; 
stroke-linecap:round; stroke-linejoin:round;">
<path style="fill:#FFFFFF; fill-opacity:1.0; 
stroke:#FFFFFF; stroke-width:0; stroke-opacity:1; 
stroke-linecap:round; stroke-linejoin:round;fill-rule:evenodd;"
d="M 36209.3,40243.1
36217.7,40244.4
36225.9,40246.4
36233.8,40249.3
36241.5,40252.9
36248.7,40257.2
36255.5,40262.3
36261.8,40267.9
36267.5,40274.2
36272.5,40281
36276.8,40288.2
36280.5,40295.9
36283.3,40303.8
36285.4,40312
36286.6,40320.4
36287,40328.8
36287,40501.1
36286.6,40509.5
36285.4,40517.9
36283.3,40526.1
36280.5,40534
36276.8,40541.7
36272.5,40548.9
36267.5,40555.7
36261.8,40562
36255.5,40567.7
36248.7,40572.7
36241.5,40577
36233.8,40580.6
36225.9,40583.5
36217.7,40585.6
36209.3,40586.8
36200.9,40587.2
35999.1,40587.2
35990.7,40586.8
35982.3,40585.6
35974.1,40583.5
35966.2,40580.6
35958.5,40577
35951.3,40572.7
35944.5,40567.7
35938.2,40562
35932.5,40555.7
35927.5,40548.9
35923.2,40541.7
35919.5,40534
35916.7,40526.1
35914.6,40517.9
35913.4,40509.5
35913,40501.1
35913,40328.8
35913.4,40320.4
35914.6,40312
35916.7,40303.8
35919.5,40295.9
35923.2,40288.2
35927.5,40281
35932.5,40274.2
35938.2,40267.9
35944.5,40262.3
35951.3,40257.2
35958.5,40252.9
35966.2,40249.3
35974.1,40246.4
35982.3,40244.4
35990.7,40243.1
35999.1,40242.7
36200.9,40242.7
Z" /> 
<path style="fill:#FFFFFF; fill-opacity:1.0; 
stroke:#FFFFFF; stroke-width:0; stroke-opacity:1; 
stroke-linecap:round; stroke-linejoin:round;fill-rule:evenodd;"
d="M 36209.3,40863.2
36217.7,40864.4
36225.9,40866.5
36233.8,40869.4
36241.5,40873
36248.7,40877.3
36255.5,40882.3
36261.8,40888
36267.5,40894.3
36272.5,40901.1
36276.8,40908.3
36280.5,40916
36283.3,40923.9
36285.4,40932.1
36286.6,40940.5
36287,40948.9
36287,41121.2
36286.6,41129.6
36285.4,41138
36283.3,41146.2
36280.5,41154.1
36276.8,41161.8
36272.5,41169
36267.5,41175.8
36261.8,41182.1
36255.5,41187.7
36248.7,41192.8
36241.5,41197.1
36233.8,41200.7
36225.9,41203.6
36217.7,41205.6
36209.3,41206.9
36200.9,41207.3
35999.1,41207.3
35990.7,41206.9
35982.3,41205.6
35974.1,41203.6
35966.2,41200.7
35958.5,41197.1
35951.3,41192.8
35944.5,41187.7
35938.2,41182.1
35932.5,41175.8
35927.5,41169
35923.2,41161.8
35919.5,41154.1
35916.7,41146.2
35914.6,41138
35913.4,41129.6
35913,41121.2
35913,40948.9
35913.4,40940.5
35914.6,40932.1
35916.7,40923.9
35919.5,40916
35923.2,40908.3
35927.5,40901.1
35932.5,40894.3
35938.2,40888
35944.5,40882.3
35951.3,40877.3
35958.5,40873
35966.2,40869.4
35974.1,40866.5
35982.3,40864.4
35990.7,40863.2
35999.1,40862.8
36200.9,40862.8
Z" /> 
</g>
<g >
</g>
<g style="fill:#FFFFFF; fill-opacity:1.0; 
stroke:#FFFFFF; stroke-width:0; stroke-opacity:1; 
stroke-linecap:round; stroke-linejoin:round;">
<circle cx="34975" cy="34950" r="334.646" /> 
</g>
<g style="fill:#FFFFFF; fill-opacity:1.0; 
stroke:#FFFFFF; stroke-width:7.87402; stroke-opacity:1; 
stroke-linecap:round; stroke-linejoin:round;">
</g>
<g style="fill:#FFFFFF; fill-opacity:1.0; 
stroke:#FFFFFF; stroke-width:0; stroke-opacity:1; 
stroke-linecap:round; stroke-linejoin:round;">
<circle cx="37700" cy="30400" r="334.646" /> 
</g>
<g style="fill:#FFFFFF; fill-opacity:1.0; 
stroke:#FFFFFF; stroke-width:7.87402; stroke-opacity:1; 
stroke-linecap:round; stroke-linejoin:round;">
</g>
<g style="fill:#FFFFFF; fill-opacity:1.0; 
stroke:#FFFFFF; stroke-width:0; stroke-opacity:1; 
stroke-linecap:round; stroke-linejoin:round;">
<circle cx="39025" cy="37550" r="334.646" /> 
</g>
<g style="fill:#FFFFFF; fill-opacity:1.0; 
stroke:#FFFFFF; stroke-width:7.87402; stroke-opacity:1; 
stroke-linecap:round; stroke-linejoin:round;">
</g>
<g style="fill:#FFFFFF; fill-opacity:1.0; 
stroke:#FFFFFF; stroke-width:0; stroke-opacity:1; 
stroke-linecap:round; stroke-linejoin:round;">
<circle cx="36825" cy="36800" r="334.646" /> 
</g>
<g style="fill:#FFFFFF; fill-opacity:1.0; 
stroke:#FFFFFF; stroke-width:7.87402; stroke-opacity:1; 
stroke-linecap:round; stroke-linejoin:round;">
</g>
<g style="fill:#FFFFFF; fill-opacity:1.0; 
stroke:#FFFFFF; stroke-width:0; stroke-opacity:1; 
stroke-linecap:round; stroke-linejoin:round;">
<circle cx="35600" cy="34075" r="334.646" /> 
</g>
<g style="fill:#FFFFFF; fill-opacity:1.0; 
stroke:#FFFFFF; stroke-width:7.87402; stroke-opacity:1; 
stroke-linecap:round; stroke-linejoin:round;">
</g>
<g style="fill:#FFFFFF; fill-opacity:1.0; 
stroke:#FFFFFF; stroke-width:0; stroke-opacity:1; 
stroke-linecap:round; stroke-linejoin:round;">
<circle cx="39000" cy="34125" r="334.646" /> 
</g>
<g style="fill:#FFFFFF; fill-opacity:1.0; 
stroke:#FFFFFF; stroke-width:7.87402; stroke-opacity:1; 
stroke-linecap:round; stroke-linejoin:round;">
</g>
<g style="fill:#FFFFFF; fill-opacity:1.0; 
stroke:#FFFFFF; stroke-width:0; stroke-opacity:1; 
stroke-linecap:round; stroke-linejoin:round;">
<circle cx="37425" cy="32600" r="334.646" /> 
</g>
<g style="fill:#FFFFFF; fill-opacity:1.0; 
stroke:#FFFFFF; stroke-width:7.87402; stroke-opacity:1; 
stroke-linecap:round; stroke-linejoin:round;">
</g>
<g style="fill:#FFFFFF; fill-opacity:1.0; 
stroke:#FFFFFF; stroke-width:0; stroke-opacity:1; 
stroke-linecap:round; stroke-linejoin:round;">
<circle cx="37350" cy="33350" r="334.646" /> 
</g>
<g style="fill:#FFFFFF; fill-opacity:1.0; 
stroke:#FFFFFF; stroke-width:7.87402; stroke-opacity:1; 
stroke-linecap:round; stroke-linejoin:round;">
</g>
<g style="fill:#FFFFFF; fill-opacity:1.0; 
stroke:#FFFFFF; stroke-width:0; stroke-opacity:1; 
stroke-linecap:round; stroke-linejoin:round;">
<circle cx="35650" cy="37575" r="334.646" /> 
</g>
<g style="fill:#FFFFFF; fill-opacity:1.0; 
stroke:#FFFFFF; stroke-width:7.87402; stroke-opacity:1; 
stroke-linecap:round; stroke-linejoin:round;">
</g>
<g style="fill:#FFFFFF; fill-opacity:1.0; 
stroke:#FFFFFF; stroke-width:0; stroke-opacity:1; 
stroke-linecap:round; stroke-linejoin:round;">
<circle cx="38850" cy="39725" r="334.646" /> 
</g>
<g style="fill:#FFFFFF; fill-opacity:1.0; 
stroke:#FFFFFF; stroke-width:7.87402; stroke-opacity:1; 
stroke-linecap:round; stroke-linejoin:round;">
</g>
<g >
</g>
<g style="fill:#FFFFFF; fill-opacity:1.0; 
stroke:#FFFFFF; stroke-width:7.87402; stroke-opacity:1; 
stroke-linecap:round; stroke-linejoin:round;">
</g>
<g style="fill:#FFFFFF; fill-opacity:1.0; 
stroke:#FFFFFF; stroke-width:196.85; stroke-opacity:1; 
stroke-linecap:round; stroke-linejoin:round;">
</g>
<g style="fill:#FFFFFF; fill-opacity:0.0; 
stroke:#FFFFFF; stroke-width:196.85; stroke-opacity:1; 
stroke-linecap:round; stroke-linejoin:round;">
<path d="M43307 23622
L31496 23622
" />
<path d="M43307 43307
L43307 23622
" />
<path d="M31496 23622
L31496 43307
" />
<path d="M31496 43307
L43307 43307
" />
</g>
<g style="fill:#FFFFFF; fill-opacity:0.0; 
stroke:#FFFFFF; stroke-width:118.11; stroke-opacity:1; 
stroke-linecap:round; stroke-linejoin:round;">
<path d="M34939 40240
L34939 39679
" />
<path d="M34949 39670
L34939 39679
" />
<path d="M34939 39679
L34939 38540
" />
<path d="M38205 33564
L38320 33450
" />
</g>
<g style="fill:#FFFFFF; fill-opacity:0.0; 
stroke:#FFFFFF; stroke-width:98.4252; stroke-opacity:1; 
stroke-linecap:round; stroke-linejoin:round;">
<path d="M38205 33589
L38320 33475
" />
<path d="M38205 34137
L38205 33589
" />
<path d="M38320 33475
L38225 33475
" />
<path d="M37668 31500
L37668 32158
" />
<path d="M37668 32158
L37942 32432
" />
<path d="M38320 33420
L38320 33475
" />
<path d="M37942 33042
L38320 33420
" />
<path d="M37942 32432
L37942 33042
" />
</g>
<g style="fill:#FFFFFF; fill-opacity:0.0; 
stroke:#FFFFFF; stroke-width:118.11; stroke-opacity:1; 
stroke-linecap:round; stroke-linejoin:round;">
<path d="M34989 34964
L34975 34950
" />
<path d="M35607 34964
L34989 34964
" />
</g>
<g style="fill:#FFFFFF; fill-opacity:0.0; 
stroke:#FFFFFF; stroke-width:98.4252; stroke-opacity:1; 
stroke-linecap:round; stroke-linejoin:round;">
<path d="M37024 37262
L37551 36735
" />
<path d="M37024 37562
L37024 37262
" />
<path d="M39032 36145
L38554 36145
" />
<path d="M38435 36264
L38435 36735
" />
<path d="M38554 36145
L38435 36264
" />
<path d="M37551 36735
L38435 36735
" />
<path d="M38435 36735
L39032 36735
" />
<path d="M36250 36690
L36007 36932
" />
<path d="M36007 36932
L35607 36932
" />
<path d="M36250 36250
L36250 36690
" />
<path d="M36354 36145
L36250 36250
" />
<path d="M38205 34137
L38205 36121
" />
<path d="M39032 36145
L38229 36145
" />
<path d="M38205 36121
L38229 36145
" />
<path d="M38229 36145
L36354 36145
" />
<path d="M36479 38300
L36479 38220
" />
<path d="M36444 38547
L35297 38547
" />
<path d="M36479 38325
L36479 38512
" />
<path d="M36479 38512
L36444 38547
" />
<path d="M35289 38539
L35289 38225
" />
<path d="M35297 38547
L35289 38539
" />
<path d="M34940 38539
L34939 38540
" />
<path d="M35289 38539
L34940 38539
" />
<path d="M34939 38310
L34939 38540
" />
<path d="M34939 40240
L34939 40964
" />
<path d="M35010 41035
L35500 41035
" />
<path d="M34939 40964
L35010 41035
" />
<path d="M35500 41035
L36100 41035
" />
<path d="M36954 41035
L37090 40900
" />
<path d="M36100 41035
L36954 41035
" />
<path d="M37229 40760
L37090 40900
" />
<path d="M38675 41035
L38075 41035
" />
<path d="M37225 41035
L37090 40900
" />
<path d="M38075 41035
L37225 41035
" />
<path d="M39139 41035
L38675 41035
" />
<path d="M39312 40862
L39139 41035
" />
<path d="M39312 39502
L39312 40862
" />
<path d="M39080 38810
L39080 39270
" />
<path d="M39080 39270
L39312 39502
" />
</g>
<g style="fill:#FFFFFF; fill-opacity:0.0; 
stroke:#FFFFFF; stroke-width:118.11; stroke-opacity:1; 
stroke-linecap:round; stroke-linejoin:round;">
<path d="M34939 34985
L34975 34950
" />
<path d="M34975 34950
L34975 33675
" />
<path d="M35129 33520
L35129 33200
" />
<path d="M34975 33675
L35129 33520
" />
<path d="M36525 29580
L35750 29580
" />
<path d="M35400 30914
L35364 30914
" />
<path d="M35364 30914
L35275 30825
" />
<path d="M35275 30825
L35275 29675
" />
<path d="M35369 29580
L35750 29580
" />
<path d="M35275 29675
L35369 29580
" />
<path d="M35429 32550
L35225 32550
" />
<path d="M35129 32645
L35129 33200
" />
<path d="M35225 32550
L35129 32645
" />
<path d="M34947 36932
L34939 36939
" />
<path d="M34939 38310
L34939 36939
" />
<path d="M35607 36932
L34947 36932
" />
<path d="M34939 36939
L34939 34985
" />
</g>
<g style="fill:#FFFFFF; fill-opacity:0.0; 
stroke:#FFFFFF; stroke-width:236.22; stroke-opacity:1; 
stroke-linecap:round; stroke-linejoin:round;">
<path d="M34975 34950
L34975 34600
" />
<path d="M34975 34600
L34775 34400
" />
<path d="M34775 34400
L34775 31075
" />
</g>
<g style="fill:#FFFFFF; fill-opacity:0.0; 
stroke:#FFFFFF; stroke-width:118.11; stroke-opacity:1; 
stroke-linecap:round; stroke-linejoin:round;">
<path d="M37820 30400
L37700 30400
" />
<path d="M38172 30751
L37820 30400
" />
<path d="M38172 31500
L38172 30751
" />
<path d="M37416 30683
L37700 30400
" />
<path d="M37416 31500
L37416 30683
" />
<path d="M36827 36852
L36825 36850
" />
<path d="M36827 37562
L36827 36852
" />
</g>
<g style="fill:#FFFFFF; fill-opacity:0.0; 
stroke:#FFFFFF; stroke-width:98.4252; stroke-opacity:1; 
stroke-linecap:round; stroke-linejoin:round;">
<path d="M39025 38134
L39080 38189
" />
<path d="M39025 37550
L39025 38134
" />
<path d="M39032 37542
L39025 37550
" />
<path d="M39032 36932
L39032 37542
" />
<path d="M36827 37901
L36754 37975
" />
<path d="M36827 37562
L36827 37901
" />
<path d="M36160 37975
L35910 38225
" />
<path d="M36754 37975
L36160 37975
" />
</g>
<g style="fill:#FFFFFF; fill-opacity:0.0; 
stroke:#FFFFFF; stroke-width:137.795; stroke-opacity:1; 
stroke-linecap:round; stroke-linejoin:round;">
<path d="M35600 34075
L35600 33800
" />
<path d="M35750 33200
L35750 33524
" />
<path d="M35600 33675
L35600 34075
" />
<path d="M35750 33524
L35600 33675
" />
</g>
<g style="fill:#FFFFFF; fill-opacity:0.0; 
stroke:#FFFFFF; stroke-width:118.11; stroke-opacity:1; 
stroke-linecap:round; stroke-linejoin:round;">
<path d="M38987 34137
L39000 34125
" />
<path d="M38402 34137
L38987 34137
" />
<path d="M39000 33534
L38940 33475
" />
<path d="M39000 34125
L39000 33534
" />
<path d="M35607 34082
L35600 34075
" />
<path d="M35607 34767
L35607 34082
" />
</g>
<g style="fill:#FFFFFF; fill-opacity:0.0; 
stroke:#FFFFFF; stroke-width:98.4252; stroke-opacity:1; 
stroke-linecap:round; stroke-linejoin:round;">
<path d="M37615 38988
L37253 39350
" />
<path d="M37615 37562
L37615 38988
" />
<path d="M36100 40389
L37035 40389
" />
<path d="M37253 40171
L37253 39350
" />
<path d="M37035 40389
L37253 40171
" />
<path d="M35500 39646
L35796 39350
" />
<path d="M35500 40389
L35500 39646
" />
<path d="M37418 38631
L37418 37562
" />
<path d="M35800 39350
L36075 39075
" />
<path d="M35796 39350
L35800 39350
" />
<path d="M36075 39075
L36075 38800
" />
<path d="M37418 38631
L37325 38725
" />
<path d="M36150 38725
L36075 38800
" />
<path d="M37325 38725
L36150 38725
" />
<path d="M37221 38178
L37100 38300
" />
<path d="M37221 37562
L37221 38178
" />
</g>
<g style="fill:#FFFFFF; fill-opacity:0.0; 
stroke:#FFFFFF; stroke-width:137.795; stroke-opacity:1; 
stroke-linecap:round; stroke-linejoin:round;">
<path d="M36156 32443
L36050 32550
" />
<path d="M36156 31500
L36156 32443
" />
</g>
<g style="fill:#FFFFFF; fill-opacity:0.0; 
stroke:#FFFFFF; stroke-width:157.48; stroke-opacity:1; 
stroke-linecap:round; stroke-linejoin:round;">
<path d="M35904 31716
L35904 31886
" />
</g>
<g style="fill:#FFFFFF; fill-opacity:0.0; 
stroke:#FFFFFF; stroke-width:118.11; stroke-opacity:1; 
stroke-linecap:round; stroke-linejoin:round;">
<path d="M35435 31500
L35400 31535
" />
<path d="M35904 31500
L35435 31500
" />
<path d="M35904 30473
L35750 30319
" />
<path d="M35904 31500
L35904 30473
" />
</g>
<g style="fill:#FFFFFF; fill-opacity:0.0; 
stroke:#FFFFFF; stroke-width:98.4252; stroke-opacity:1; 
stroke-linecap:round; stroke-linejoin:round;">
<path d="M39190 31876
L39180 31886
" />
</g>
<g style="fill:#FFFFFF; fill-opacity:0.0; 
stroke:#FFFFFF; stroke-width:157.48; stroke-opacity:1; 
stroke-linecap:round; stroke-linejoin:round;">
<path d="M39180 31886
L39180 32210
" />
<path d="M39180 32718
L39099 32800
" />
<path d="M39180 31500
L39180 32718
" />
<path d="M38928 31500
L38928 32244
" />
<path d="M38928 32244
L38822 32350
" />
<path d="M38822 32350
L38450 32350
" />
<path d="M38360 32439
L38360 32800
" />
<path d="M38450 32350
L38360 32439
" />
<path d="M39102 30597
L39102 30200
" />
<path d="M38676 31473
L38664 31461
" />
<path d="M38676 31500
L38676 31473
" />
<path d="M38664 30785
L38800 30650
" />
<path d="M38664 31461
L38664 30785
" />
<path d="M38800 30650
L39050 30650
" />
<path d="M39050 30650
L39102 30597
" />
<path d="M38424 30260
L38364 30200
" />
<path d="M38424 31500
L38424 30260
" />
</g>
<g style="fill:#FFFFFF; fill-opacity:0.0; 
stroke:#FFFFFF; stroke-width:118.11; stroke-opacity:1; 
stroke-linecap:round; stroke-linejoin:round;">
<path d="M36408 30435
L36525 30319
" />
<path d="M36408 31500
L36408 30435
" />
</g>
<g style="fill:#FFFFFF; fill-opacity:0.0; 
stroke:#FFFFFF; stroke-width:98.4252; stroke-opacity:1; 
stroke-linecap:round; stroke-linejoin:round;">
<path d="M36660 31885
L36666 31879
" />
<path d="M36660 31886
L36660 31885
" />
<path d="M36660 32192
L36600 32253
" />
<path d="M36660 31500
L36660 32192
" />
<path d="M36600 32253
L36600 32850
" />
<path d="M36600 32850
L36225 33225
" />
<path d="M36225 34125
L36237 34137
" />
<path d="M36225 33225
L36225 34125
" />
<path d="M36237 34885
L36237 34137
" />
<path d="M35961 35161
L36237 34885
" />
<path d="M35607 35161
L35961 35161
" />
<path d="M37812 34137
L37812 33762
" />
<path d="M37925 33650
L37925 33275
" />
<path d="M37812 33762
L37925 33650
" />
<path d="M37925 33275
L37765 33115
" />
<path d="M37765 33115
L37765 32790
" />
<path d="M37575 32600
L37425 32600
" />
<path d="M37765 32790
L37575 32600
" />
<path d="M37615 33615
L37350 33350
" />
<path d="M37615 34137
L37615 33615
" />
<path d="M36434 34137
L36434 33288
" />
<path d="M36785 32318
L36912 32190
" />
<path d="M36785 32937
L36785 32318
" />
<path d="M36912 32190
L36912 31500
" />
<path d="M36434 33288
L36785 32937
" />
<path d="M36015 35357
L35607 35357
" />
<path d="M36434 34939
L36015 35357
" />
<path d="M36434 34137
L36434 34939
" />
<path d="M36631 34137
L36631 33368
" />
<path d="M36631 33368
L36962 33037
" />
<path d="M37164 32190
L37164 31500
" />
<path d="M36962 32393
L37164 32190
" />
<path d="M36962 33037
L36962 32393
" />
</g>
<g style="fill:#FFFFFF; fill-opacity:0.0; 
stroke:#FFFFFF; stroke-width:118.11; stroke-opacity:1; 
stroke-linecap:round; stroke-linejoin:round;">
<path d="M38008 37562
L38008 37562
" />
</g>
<g style="fill:#FFFFFF; fill-opacity:0.0; 
stroke:#FFFFFF; stroke-width:98.4252; stroke-opacity:1; 
stroke-linecap:round; stroke-linejoin:round;">
<path d="M38175 39459
L38175 39239
" />
<path d="M38562 38245
L38442 38125
" />
<path d="M38442 38125
L38150 38125
" />
<path d="M38008 37983
L38008 37562
" />
<path d="M38150 38125
L38008 37983
" />
<path d="M38435 39239
L38562 39112
" />
<path d="M38200 39239
L38435 39239
" />
<path d="M38562 39112
L38562 38250
" />
<path d="M38175 39650
L38175 39459
" />
<path d="M38675 40414
L38675 40400
" />
<path d="M38175 39734
L38175 39459
" />
<path d="M38450 40009
L38175 39734
" />
<path d="M38450 40175
L38450 40009
" />
<path d="M38675 40400
L38450 40175
" />
<path d="M37812 38147
L37812 37562
" />
<path d="M37860 38510
L37812 38462
" />
<path d="M37812 38147
L37812 38462
" />
<path d="M38200 38510
L37860 38510
" />
<path d="M37812 38462
L37812 39687
" />
<path d="M38075 39950
L38075 40414
" />
<path d="M37812 39687
L38075 39950
" />
</g>
<g style="fill:#FFFFFF; fill-opacity:0.0; 
stroke:#FFFFFF; stroke-width:118.11; stroke-opacity:1; 
stroke-linecap:round; stroke-linejoin:round;">
<path d="M35662 37562
L35650 37575
" />
<path d="M36237 37562
L35662 37562
" />
<path d="M38552 37577
L38552 37752
" />
<path d="M38402 37562
L38537 37562
" />
<path d="M38537 37562
L38552 37577
" />
<path d="M38552 37752
L38750 37950
" />
<path d="M38750 37950
L38750 39325
" />
</g>
<g style="fill:#FFFFFF; fill-opacity:0.0; 
stroke:#FFFFFF; stroke-width:98.4252; stroke-opacity:1; 
stroke-linecap:round; stroke-linejoin:round;">
<path d="M38750 39625
L38850 39725
" />
<path d="M38750 39325
L38750 39625
" />
</g>
<g >
</g>
<g style="fill:#FFFFFF; fill-opacity:0.0; 
stroke:#FFFFFF; stroke-width:98.4252; stroke-opacity:1; 
stroke-linecap:round; stroke-linejoin:round;">
</g>
<g style="fill:#FFFFFF; fill-opacity:1.0; 
stroke:#FFFFFF; stroke-width:100; stroke-opacity:1; 
stroke-linecap:round; stroke-linejoin:round;">
<path style="fill:#FFFFFF; fill-opacity:1.0; 
stroke:#FFFFFF; stroke-width:100; stroke-opacity:1; 
stroke-linecap:round; stroke-linejoin:round;fill-rule:evenodd;"
d="M 35180,33150
35187.8,33150
35187.8,33250
35180,33250
35180,33574.5
35226.8,33621.4
35145.9,33702.3
35081.9,33798.1
35037.8,33904.5
35015.4,34017.4
35015.4,34132.6
35037.8,34245.5
35081.9,34351.9
35145.9,34447.7
35209.5,34511.3
35173.9,34540.5
35142.6,34578.5
35119.4,34622
35105.1,34669.1
35100.3,34718.1
35100.3,34816.5
35105.1,34865.5
35105.4,34866.6
35101.5,34901.7
35127.4,34927.5
35142.6,34956.1
35149.2,34964.2
35142.6,34972.2
35127.4,35000.8
35101.5,35026.7
35105.4,35061.7
35105.1,35062.8
35100.3,35111.8
35100.3,35210.2
35105.1,35259.2
35105.2,35259.4
35105.1,35259.7
35100.3,35308.7
35100.3,35407.1
35105.1,35456.1
35105.2,35456.3
35105.1,35456.5
35100.3,35505.5
35100.3,35603.9
35105.1,35652.9
35105.2,35653.1
35105.1,35653.4
35100.3,35702.4
35100.3,35800.8
35105.1,35849.8
35105.2,35850
35105.1,35850.2
35100.3,35899.2
35100.3,35997.6
35105.1,36046.6
35105.2,36046.9
35105.1,36047.1
35100.3,36096.1
35100.3,36194.5
35105.1,36243.5
35105.2,36243.7
35105.1,36243.9
35100.3,36292.9
35100.3,36391.3
35105.1,36440.3
35105.2,36440.6
35105.1,36440.8
35100.3,36489.8
35100.3,36588.2
35105.1,36637.2
35105.2,36637.4
35105.1,36637.6
35100.3,36686.6
35100.3,36785
35105.1,36834
35105.4,36835.1
35101.5,36870.2
35127.4,36896
35142.6,36924.6
35155.9,36940.8
35101.5,36995.2
35106,37035.2
35121.1,37082.1
35145.1,37125.1
35177,37162.6
35209.7,37188.5
35195.9,37202.3
35131.9,37298.1
35087.8,37404.5
35065.4,37517.4
35065.4,37632.6
35087.8,37745.5
35105.4,37788
35068.7,37791.6
35021.6,37805.9
34978.2,37829.1
34940.1,37860.4
34908.8,37898.4
34885.6,37941.9
34871.3,37989
34866.5,38038
34867.7,38112.5
34930.2,38175
35240,38175
35240,38167.1
35340,38167.1
35340,38175
35347.8,38175
35347.8,38275
35340,38275
35340,38599.5
35392.8,38652.3
35353.9,38656.2
35306.8,38670.5
35263.4,38693.7
35225.3,38724.9
35194.1,38763
35170.9,38806.4
35156.6,38853.6
35151.7,38902.6
35151.7,39847.4
35156.6,39896.4
35170.9,39943.6
35194.1,39987
35200.8,39995.2
35200.8,40057.3
35160.6,40090.3
35118.6,40141.4
35087.5,40199.7
35068.3,40263
35061.8,40328.8
35061.8,40501.1
35068.3,40566.9
35087.5,40630.2
35118.6,40688.5
35125.6,40697
35104.1,40723.2
35080.9,40766.7
35066.6,40813.8
35061.8,40862.8
35063,40922.5
35125.5,40985
35450,40985
35450,40977.2
35550,40977.2
35550,40985
36050,40985
36050,40977.2
36150,40977.2
36150,40985
36157.9,40985
36157.9,41085
36150,41085
36150,41092.9
36050,41092.9
36050,41085
35550,41085
35550,41092.9
35450,41092.9
35450,41085
35125.5,41085
35063,41147.5
35061.8,41207.3
35066,41250
34710,41250
34710,38412
34866.5,38412
34871.3,38461
34885.6,38508.1
34908.8,38551.6
34940.1,38589.6
34978.2,38620.9
35021.6,38644.1
35068.7,38658.4
35117.7,38663.2
35177.5,38662
35240,38599.5
35240,38275
34930.2,38275
34867.7,38337.5
34866.5,38412
34710,38412
34710,33422.5
34711.3,33436
34725.6,33483.1
34748.8,33526.6
34780.1,33564.6
34818.2,33595.9
34861.6,33619.1
34908.7,33633.4
34957.7,33638.2
35017.5,33637
35080,33574.5
35080,33250
35072.1,33250
35072.1,33150
35080,33150
35080,33142.1
35180,33142.1
Z" /> 
<path style="fill:#FFFFFF; fill-opacity:1.0; 
stroke:#FFFFFF; stroke-width:100; stroke-opacity:1; 
stroke-linecap:round; stroke-linejoin:round;fill-rule:evenodd;"
d="M 39310,41250
39109,41250
39113.2,41207.3
39112,41147.5
39049.5,41085
38725,41085
38725,41092.9
38625,41092.9
38625,41085
38125,41085
38125,41092.9
38025,41092.9
38025,41085
38017.1,41085
38017.1,40985
38025,40985
38025,40977.2
38125,40977.2
38125,40985
38625,40985
38625,40977.2
38725,40977.2
38725,40985
39049.5,40985
39112,40922.5
39113.2,40862.8
39108.4,40813.8
39094.1,40766.7
39070.9,40723.2
39049.4,40697
39056.4,40688.5
39087.5,40630.2
39106.7,40566.9
39113.2,40501.1
39113.2,40328.8
39106.7,40263
39103.6,40252.8
39126.9,40243.1
39222.7,40179.1
39304.1,40097.7
39310.8,40087.7
Z" /> 
<path style="fill:#FFFFFF; fill-opacity:1.0; 
stroke:#FFFFFF; stroke-width:100; stroke-opacity:1; 
stroke-linecap:round; stroke-linejoin:round;fill-rule:evenodd;"
d="M 37140,40850
37147.9,40850
37147.9,40950
37140,40950
37140,40957.9
37040,40957.9
37040,40950
37032.1,40950
37032.1,40850
37040,40850
37040,40842.1
37140,40842.1
Z" /> 
<path style="fill:#FFFFFF; fill-opacity:1.0; 
stroke:#FFFFFF; stroke-width:100; stroke-opacity:1; 
stroke-linecap:round; stroke-linejoin:round;fill-rule:evenodd;"
d="M 39130,38760
39137.9,38760
39137.9,38860
39130,38860
39130,38867.9
39059.1,38867.9
39059.1,38752.2
39130,38752.2
Z" /> 
<path style="fill:#FFFFFF; fill-opacity:1.0; 
stroke:#FFFFFF; stroke-width:100; stroke-opacity:1; 
stroke-linecap:round; stroke-linejoin:round;fill-rule:evenodd;"
d="M 36529.9,38275
36537.8,38275
36537.8,38375
36529.9,38375
36529.9,38382.9
36429.9,38382.9
36429.9,38375
36422,38375
36422,38275
36429.9,38275
36429.9,38274.2
36529.9,38274.2
Z" /> 
<path style="fill:#FFFFFF; fill-opacity:1.0; 
stroke:#FFFFFF; stroke-width:100; stroke-opacity:1; 
stroke-linecap:round; stroke-linejoin:round;fill-rule:evenodd;"
d="M 38213.9,34602.2
38242.5,34617.5
38268.3,34643.3
38303.4,34639.4
38304.5,34639.7
38353.5,34644.5
38451.9,34644.5
38500.9,34639.7
38543.1,34626.9
38530.3,34669.1
38525.5,34718.1
38525.5,34816.5
38530.3,34865.5
38530.4,34865.7
38530.3,34866
38525.5,34915
38525.5,35013.4
38530.3,35062.4
38530.4,35062.6
38530.3,35062.8
38525.5,35111.8
38525.5,35210.2
38530.3,35259.2
38530.4,35259.4
38530.3,35259.7
38525.5,35308.7
38525.5,35407.1
38530.3,35456.1
38530.4,35456.3
38530.3,35456.5
38525.5,35505.5
38525.5,35603.9
38530.3,35652.9
38530.4,35653.1
38530.3,35653.4
38525.5,35702.4
38525.5,35800.8
38530.3,35849.8
38530.4,35850
38530.3,35850.2
38525.5,35899.2
38525.5,35997.6
38530.3,36046.6
38530.6,36047.7
38526.7,36082.8
38552.5,36108.6
38567.8,36137.2
38574.4,36145.3
38567.8,36153.3
38552.5,36181.9
38526.7,36207.8
38530.6,36242.8
38530.3,36243.9
38525.5,36292.9
38525.5,36391.3
38530.3,36440.3
38530.4,36440.6
38530.3,36440.8
38525.5,36489.8
38525.5,36588.2
38530.3,36637.2
38530.6,36638.3
38526.7,36673.3
38552.5,36699.2
38567.8,36727.8
38574.4,36735.8
38567.8,36743.9
38552.5,36772.5
38526.7,36798.3
38530.6,36833.4
38530.3,36834.5
38525.5,36883.5
38525.5,36981.9
38530.3,37030.9
38543.1,37073.1
38500.9,37060.3
38451.9,37055.5
38353.5,37055.5
38304.5,37060.3
38304.3,37060.4
38304,37060.3
38255,37055.5
38156.6,37055.5
38107.6,37060.3
38107.4,37060.4
38107.2,37060.3
38058.2,37055.5
37959.8,37055.5
37910.8,37060.3
37910.6,37060.4
37910.3,37060.3
37861.3,37055.5
37762.9,37055.5
37713.9,37060.3
37713.7,37060.4
37713.5,37060.3
37664.5,37055.5
37566.1,37055.5
37517.1,37060.3
37516.9,37060.4
37516.6,37060.3
37467.6,37055.5
37369.2,37055.5
37351.3,37057.3
37387.2,36970.5
37409.6,36857.6
37409.6,36742.4
37387.2,36629.5
37343.1,36523.1
37279.1,36427.3
37197.7,36345.9
37101.9,36281.9
36995.5,36237.8
36882.6,36215.4
36767.4,36215.4
36654.5,36237.8
36548.1,36281.9
36452.3,36345.9
36370.9,36427.3
36306.9,36523.1
36262.8,36629.5
36240.4,36742.4
36240.4,36857.6
36262.8,36970.5
36298.5,37056.7
36286.5,37055.5
36188.1,37055.5
36139.1,37060.3
36096.5,37073.2
36108.8,37035.2
36113.3,36995.2
36058.9,36940.8
36072.2,36924.6
36087.5,36896
36113.3,36870.2
36109.4,36835.1
36109.7,36834
36114.5,36785
36114.5,36686.6
36109.7,36637.6
36109.6,36637.4
36109.7,36637.2
36114.5,36588.2
36114.5,36489.8
36109.7,36440.8
36109.6,36440.6
36109.7,36440.3
36114.5,36391.3
36114.5,36292.9
36109.7,36243.9
36109.6,36243.7
36109.7,36243.5
36114.5,36194.5
36114.5,36096.1
36109.7,36047.1
36109.6,36046.9
36109.7,36046.6
36114.5,35997.6
36114.5,35899.2
36109.7,35850.2
36109.6,35850
36109.7,35849.8
36114.5,35800.8
36114.5,35702.4
36109.7,35653.4
36109.6,35653.1
36109.7,35652.9
36110.8,35641.6
36130.5,35635.6
36182.5,35607.9
36228,35570.5
36237.4,35559.1
36635.4,35161.1
36646.8,35151.7
36656.1,35140.3
36656.1,35140.3
36684.2,35106.2
36686.2,35102.4
36711.9,35054.2
36729.1,34997.8
36733.4,34953.8
36733.4,34953.8
36734.8,34939.1
36733.4,34924.4
36733.4,34640.1
36778.7,34644.5
36877.1,34644.5
36926.1,34639.7
36926.3,34639.6
36926.5,34639.7
36975.5,34644.5
37073.9,34644.5
37122.9,34639.7
37123.1,34639.6
37123.4,34639.7
37172.4,34644.5
37270.8,34644.5
37319.8,34639.7
37320,34639.6
37320.2,34639.7
37369.2,34644.5
37467.6,34644.5
37516.6,34639.7
37516.9,34639.6
37517.1,34639.7
37566.1,34644.5
37664.5,34644.5
37713.5,34639.7
37713.7,34639.6
37713.9,34639.7
37762.9,34644.5
37861.3,34644.5
37910.3,34639.7
37910.6,34639.6
37910.8,34639.7
37959.8,34644.5
38058.2,34644.5
38107.2,34639.7
38108.3,34639.4
38143.3,34643.3
38169.2,34617.5
38197.8,34602.2
38205.8,34595.6
Z" /> 
<path style="fill:#FFFFFF; fill-opacity:1.0; 
stroke:#FFFFFF; stroke-width:100; stroke-opacity:1; 
stroke-linecap:round; stroke-linejoin:round;fill-rule:evenodd;"
d="M 38370.5,33425
38378.4,33425
38378.4,33525
38370.5,33525
38370.5,33532.9
38270.5,33532.9
38270.5,33525
38262.6,33525
38262.6,33425
38270.5,33425
38270.5,33417.1
38370.5,33417.1
Z" /> 
<path style="fill:#FFFFFF; fill-opacity:1.0; 
stroke:#FFFFFF; stroke-width:100; stroke-opacity:1; 
stroke-linecap:round; stroke-linejoin:round;fill-rule:evenodd;"
d="M 39319.8,26609.7
39294.1,26622.3
39294.1,27446.5
39302,27446.5
39302,27546.5
39294.1,27546.5
39294.1,28370.8
39318.6,28382.8
39317.8,29695.5
39266.3,29679.9
39198.6,29673.2
39006.7,29673.2
38938.9,29679.9
38873.8,29699.6
38813.8,29731.7
38761.2,29774.9
38733.5,29808.6
38705.9,29774.9
38653.3,29731.7
38593.3,29699.6
38528.1,29679.9
38460.4,29673.2
38268.5,29673.2
38200.8,29679.9
38135.6,29699.6
38075.6,29731.7
38023,29774.9
37979.8,29827.5
37955.5,29873
37870.5,29837.8
37757.6,29815.4
37642.4,29815.4
37529.5,29837.8
37423.1,29881.9
37327.3,29945.9
37245.9,30027.3
37181.9,30123.1
37137.8,30229.5
37115.4,30342.4
37115.4,30457.6
37134.8,30555.1
37129.7,30564.5
37113.2,30618.9
37082,30618.9
37038.7,30623.1
36995.4,30618.9
36984.3,30618.9
36993.3,30607.9
37025.4,30547.9
37045.1,30482.8
37051.8,30415.1
37051.8,30223.1
37045.1,30155.4
37025.4,30090.3
36993.3,30030.3
36950.1,29977.6
36947.6,29975.6
36978.2,29950.5
37009.5,29912.4
37032.7,29869
37047,29821.8
37051.8,29772.8
37050.6,29693.4
36988.1,29630.9
36575,29630.9
36575,29638.8
36475,29638.8
36475,29630.9
35800,29630.9
35800,29638.8
35700,29638.8
35700,29630.9
35286.9,29630.9
35224.4,29693.4
35223.2,29772.8
35228,29821.8
35242.3,29869
35265.5,29912.4
35296.8,29950.5
35327.4,29975.6
35324.9,29977.6
35281.7,30030.3
35249.6,30090.3
35229.9,30155.4
35223.2,30223.1
35223.2,30415.1
35229.9,30482.8
35232.6,30491.8
35213,30491.5
35164,30496.3
35116.9,30510.6
35073.4,30533.8
35035.4,30565.1
35004.1,30603.2
34980.9,30646.6
34966.6,30693.7
34961.8,30742.7
34963,30802.5
35025.5,30865
35350,30865
35350,30857.1
35450,30857.1
35450,30865
35457.9,30865
35457.9,30965
35450,30965
35450,30972.8
35350,30972.8
35350,30965
35025.5,30965
34963,31027.5
34961.8,31087.2
34966.6,31136.2
34980.9,31183.3
35004.1,31226.8
35025.6,31253
35018.6,31261.5
34987.5,31319.8
34968.3,31383.1
34961.8,31448.9
34961.8,31621.2
34968.3,31687
34987.5,31750.3
35018.6,31808.6
35060.6,31859.7
35111.7,31901.6
35170,31932.8
35233.3,31952
35299.1,31958.5
35500.9,31958.5
35566.7,31952
35570.9,31950.7
35570.9,32112.4
35542.5,32113
35480,32175.5
35480,32500
35487.8,32500
35487.8,32600
35480,32600
35480,32607.9
35380,32607.9
35380,32600
35070.2,32600
35007.7,32662.5
35006.5,32737
35009,32762.8
34957.7,32761.8
34908.7,32766.6
34861.6,32780.9
34818.2,32804.1
34780.1,32835.4
34748.8,32873.4
34725.6,32916.9
34711.3,32964
34710,32977.5
34710,32363
35006.5,32363
35007.7,32437.5
35070.2,32500
35380,32500
35380,32175.5
35317.5,32113
35257.7,32111.8
35208.7,32116.6
35161.6,32130.9
35118.2,32154.1
35080.1,32185.4
35048.8,32223.4
35025.6,32266.9
35011.3,32314
35006.5,32363
34710,32363
34710,29389
35223.2,29389
35224.4,29468.4
35286.9,29530.9
35700,29530.9
35700,29201.5
35800,29201.5
35800,29530.9
36475,29530.9
36475,29201.5
36575,29201.5
36575,29530.9
36988.1,29530.9
37050.6,29468.4
37051.8,29389
37047,29340
37032.7,29292.8
37009.5,29249.4
36978.2,29211.3
36940.2,29180.1
36896.7,29156.9
36849.6,29142.6
36800.6,29137.8
36637.5,29139
36575,29201.5
36475,29201.5
36412.5,29139
36249.4,29137.8
36200.4,29142.6
36153.3,29156.9
36137.5,29165.3
36121.7,29156.9
36074.6,29142.6
36025.6,29137.8
35862.5,29139
35800,29201.5
35700,29201.5
35637.5,29139
35474.4,29137.8
35425.4,29142.6
35378.3,29156.9
35334.8,29180.1
35296.8,29211.3
35265.5,29249.4
35242.3,29292.8
35228,29340
35223.2,29389
34710,29389
34710,27546.5
34805.9,27546.5
34805.9,28370.8
34902.6,28418
34948.5,28407.1
35061,28358.1
35161.8,28288.1
35247,28199.8
35313.3,28096.5
35358.2,27982.3
35379.9,27861.5
35379.9,27546.5
34805.9,27546.5
34710,27546.5
34710,27450.6
35628,27450.6
35628,27542.5
35645.9,27632.6
35681,27717.5
35732.1,27793.9
35797.1,27858.9
35873.5,27910
35958.4,27945.1
36048.5,27963.1
36140.4,27963.1
36230.6,27945.1
36315.5,27910
36391.9,27858.9
36456.9,27793.9
36507.9,27717.5
36543.1,27632.6
36561,27542.5
36561,27450.6
37439,27450.6
37439,27542.5
37456.9,27632.6
37492.1,27717.5
37543.1,27793.9
37608.1,27858.9
37684.5,27910
37769.4,27945.1
37859.6,27963.1
37951.5,27963.1
38041.6,27945.1
38126.5,27910
38202.9,27858.9
38267.9,27793.9
38319,27717.5
38354.1,27632.6
38371.2,27546.5
38620.1,27546.5
38620.1,27861.5
38641.8,27982.3
38686.7,28096.5
38753,28199.8
38838.2,28288.1
38939,28358.1
39051.5,28407.1
39097.4,28418
39194.1,28370.8
39194.1,27546.5
38620.1,27546.5
38371.2,27546.5
38372,27542.5
38372,27450.6
38354.1,27360.5
38319,27275.5
38267.9,27199.1
38202.9,27134.2
38199.1,27131.6
38620.1,27131.6
38620.1,27446.5
39194.1,27446.5
39194.1,26622.3
39097.4,26575
39051.5,26585.9
38939,26634.9
38838.2,26705
38753,26793.3
38686.7,26896.6
38641.8,27010.8
38620.1,27131.6
38199.1,27131.6
38126.5,27083.1
38041.6,27047.9
37951.5,27030
37859.6,27030
37769.4,27047.9
37684.5,27083.1
37608.1,27134.2
37543.1,27199.1
37492.1,27275.5
37456.9,27360.5
37439,27450.6
36561,27450.6
36543.1,27360.5
36507.9,27275.5
36456.9,27199.1
36391.9,27134.2
36315.5,27083.1
36230.6,27047.9
36140.4,27030
36048.5,27030
35958.4,27047.9
35873.5,27083.1
35797.1,27134.2
35732.1,27199.1
35681,27275.5
35645.9,27360.5
35628,27450.6
34710,27450.6
34710,26622.3
34805.9,26622.3
34805.9,27446.5
35379.9,27446.5
35379.9,27131.6
35358.2,27010.8
35313.3,26896.6
35247,26793.3
35161.8,26705
35061,26634.9
34948.5,26585.9
34902.6,26575
34805.9,26622.3
34710,26622.3
34710,26401
39320,26400
Z" /> 
<path style="fill:#FFFFFF; fill-opacity:1.0; 
stroke:#FFFFFF; stroke-width:100; stroke-opacity:1; 
stroke-linecap:round; stroke-linejoin:round;fill-rule:evenodd;"
d="M 37983,32419.3
37967.2,32381.1
38003.2,32381.1
38015.3,32379.9
Z" /> 
</g>
</g>
<g style="fill:#000000; fill-opacity:1.0; 
stroke:#000000; stroke-width:100; stroke-opacity:1; 
stroke-linecap:round; stroke-linejoin:round;">
</g>
<g style="fill:#000000; fill-opacity:1.0; 
stroke:#000000; stroke-width:0; stroke-opacity:1; 
stroke-linecap:round; stroke-linejoin:round;">
<circle cx="34975" cy="34950" r="68.8976" /> 
</g>
<g style="fill:#000000; fill-opacity:1.0; 
stroke:#000000; stroke-width:7.87402; stroke-opacity:1; 
stroke-linecap:round; stroke-linejoin:round;">
</g>
<g style="fill:#000000; fill-opacity:1.0; 
stroke:#000000; stroke-width:0; stroke-opacity:1; 
stroke-linecap:round; stroke-linejoin:round;">
<circle cx="37700" cy="30400" r="68.8976" /> 
</g>
<g style="fill:#000000; fill-opacity:1.0; 
stroke:#000000; stroke-width:7.87402; stroke-opacity:1; 
stroke-linecap:round; stroke-linejoin:round;">
</g>
<g style="fill:#000000; fill-opacity:1.0; 
stroke:#000000; stroke-width:0; stroke-opacity:1; 
stroke-linecap:round; stroke-linejoin:round;">
<circle cx="39025" cy="37550" r="68.8976" /> 
</g>
<g style="fill:#000000; fill-opacity:1.0; 
stroke:#000000; stroke-width:7.87402; stroke-opacity:1; 
stroke-linecap:round; stroke-linejoin:round;">
</g>
<g style="fill:#000000; fill-opacity:1.0; 
stroke:#000000; stroke-width:0; stroke-opacity:1; 
stroke-linecap:round; stroke-linejoin:round;">
<circle cx="36825" cy="36800" r="68.8976" /> 
</g>
<g style="fill:#000000; fill-opacity:1.0; 
stroke:#000000; stroke-width:7.87402; stroke-opacity:1; 
stroke-linecap:round; stroke-linejoin:round;">
</g>
<g style="fill:#000000; fill-opacity:1.0; 
stroke:#000000; stroke-width:0; stroke-opacity:1; 
stroke-linecap:round; stroke-linejoin:round;">
<circle cx="35600" cy="34075" r="68.8976" /> 
</g>
<g style="fill:#000000; fill-opacity:1.0; 
stroke:#000000; stroke-width:7.87402; stroke-opacity:1; 
stroke-linecap:round; stroke-linejoin:round;">
</g>
<g style="fill:#000000; fill-opacity:1.0; 
stroke:#000000; stroke-width:0; stroke-opacity:1; 
stroke-linecap:round; stroke-linejoin:round;">
<circle cx="39000" cy="34125" r="68.8976" /> 
</g>
<g style="fill:#000000; fill-opacity:1.0; 
stroke:#000000; stroke-width:7.87402; stroke-opacity:1; 
stroke-linecap:round; stroke-linejoin:round;">
</g>
<g style="fill:#000000; fill-opacity:1.0; 
stroke:#000000; stroke-width:0; stroke-opacity:1; 
stroke-linecap:round; stroke-linejoin:round;">
<circle cx="37425" cy="32600" r="68.8976" /> 
</g>
<g style="fill:#000000; fill-opacity:1.0; 
stroke:#000000; stroke-width:7.87402; stroke-opacity:1; 
stroke-linecap:round; stroke-linejoin:round;">
</g>
<g style="fill:#000000; fill-opacity:1.0; 
stroke:#000000; stroke-width:0; stroke-opacity:1; 
stroke-linecap:round; stroke-linejoin:round;">
<circle cx="37350" cy="33350" r="68.8976" /> 
</g>
<g style="fill:#000000; fill-opacity:1.0; 
stroke:#000000; stroke-width:7.87402; stroke-opacity:1; 
stroke-linecap:round; stroke-linejoin:round;">
</g>
<g style="fill:#000000; fill-opacity:1.0; 
stroke:#000000; stroke-width:0; stroke-opacity:1; 
stroke-linecap:round; stroke-linejoin:round;">
<circle cx="35650" cy="37575" r="68.8976" /> 
</g>
<g style="fill:#000000; fill-opacity:1.0; 
stroke:#000000; stroke-width:7.87402; stroke-opacity:1; 
stroke-linecap:round; stroke-linejoin:round;">
</g>
<g style="fill:#000000; fill-opacity:1.0; 
stroke:#000000; stroke-width:0; stroke-opacity:1; 
stroke-linecap:round; stroke-linejoin:round;">
<circle cx="38850" cy="39725" r="68.8976" /> 
</g>
<g style="fill:#000000; fill-opacity:1.0; 
stroke:#000000; stroke-width:7.87402; stroke-opacity:1; 
stroke-linecap:round; stroke-linejoin:round;">
</g>
<g style="fill:#000000; fill-opacity:1.0; 
stroke:#000000; stroke-width:0; stroke-opacity:1; 
stroke-linecap:round; stroke-linejoin:round;">
<circle cx="37905.5" cy="27496.5" r="68.8976" /> 
</g>
<g style="fill:#000000; fill-opacity:1.0; 
stroke:#000000; stroke-width:7.87402; stroke-opacity:1; 
stroke-linecap:round; stroke-linejoin:round;">
</g>
<g style="fill:#000000; fill-opacity:1.0; 
stroke:#000000; stroke-width:0; stroke-opacity:1; 
stroke-linecap:round; stroke-linejoin:round;">
<circle cx="36094.5" cy="27496.5" r="68.8976" /> 
</g>
<g style="fill:#000000; fill-opacity:1.0; 
stroke:#000000; stroke-width:7.87402; stroke-opacity:1; 
stroke-linecap:round; stroke-linejoin:round;">
</g>
<g style="fill:#000000; fill-opacity:1.0; 
stroke:#000000; stroke-width:354.331; stroke-opacity:1; 
stroke-linecap:round; stroke-linejoin:round;">
</g>
<g style="fill:#000000; fill-opacity:0.0; 
stroke:#000000; stroke-width:354.331; stroke-opacity:1; 
stroke-linecap:round; stroke-linejoin:round;">
<path d="M39244 27811
L39244 27181
" />
<path d="M34755 27811
L34755 27181
" />
</g>
<g style="fill:#FFFFFF; fill-opacity:0.0; 
stroke:#FFFFFF; stroke-width:354.331; stroke-opacity:1; 
stroke-linecap:round; stroke-linejoin:round;">
</g> 
</svg>
